<?xml version="1.0" encoding="UTF-8" standalone="no"?>
<!-- Created with matplotlib (http://matplotlib.org/) -->

<svg
   xmlns:dc="http://purl.org/dc/elements/1.1/"
   xmlns:cc="http://creativecommons.org/ns#"
   xmlns:rdf="http://www.w3.org/1999/02/22-rdf-syntax-ns#"
   xmlns:svg="http://www.w3.org/2000/svg"
   xmlns="http://www.w3.org/2000/svg"
   xmlns:xlink="http://www.w3.org/1999/xlink"
   xmlns:sodipodi="http://sodipodi.sourceforge.net/DTD/sodipodi-0.dtd"
   xmlns:inkscape="http://www.inkscape.org/namespaces/inkscape"
   height="728.107773pt"
   version="1.1"
   viewBox="0 0 1008.422656 728.107773"
   width="1008.422656pt"
   id="svg2"
   inkscape:version="0.48.4 r9939"
   sodipodi:docname="association_diagram_base.svg">
  <metadata
     id="metadata140">
    <rdf:RDF>
      <cc:Work
         rdf:about="">
        <dc:format>image/svg+xml</dc:format>
        <dc:type
           rdf:resource="http://purl.org/dc/dcmitype/StillImage" />
      </cc:Work>
    </rdf:RDF>
  </metadata>
  <sodipodi:namedview
     pagecolor="#ffffff"
     bordercolor="#666666"
     borderopacity="1"
     objecttolerance="10"
     gridtolerance="10"
     guidetolerance="10"
     inkscape:pageopacity="0"
     inkscape:pageshadow="2"
     inkscape:window-width="1855"
     inkscape:window-height="1056"
     id="namedview138"
     showgrid="false"
     inkscape:zoom="0.50137707"
     inkscape:cx="406.33753"
     inkscape:cy="237.89195"
     inkscape:window-x="1985"
     inkscape:window-y="24"
     inkscape:window-maximized="1"
     inkscape:current-layer="figure_1" />
  <defs
     id="defs4">
    <marker
       inkscape:stockid="SemiCircleIn"
       orient="auto"
       refY="0.0"
       refX="0.0"
       id="SemiCircleIn"
       style="overflow:visible">
      <path
         id="path4268"
         d="M -0.37450702,-0.045692580 C -0.37450702,2.7143074 1.8654930,4.9543074 4.6254930,4.9543074 L 4.6254930,-5.0456926 C 1.8654930,-5.0456926 -0.37450702,-2.8056926 -0.37450702,-0.045692580 z "
         style="fill-rule:evenodd;stroke:#000000;stroke-width:1.0pt"
         transform="scale(0.6)" />
    </marker>
    <marker
       inkscape:stockid="DotL"
       orient="auto"
       refY="0.0"
       refX="0.0"
       id="DotL"
       style="overflow:visible">
      <path
         id="path4151"
         d="M -2.5,-1.0 C -2.5,1.7600000 -4.7400000,4.0 -7.5,4.0 C -10.260000,4.0 -12.5,1.7600000 -12.5,-1.0 C -12.5,-3.7600000 -10.260000,-6.0 -7.5,-6.0 C -4.7400000,-6.0 -2.5,-3.7600000 -2.5,-1.0 z "
         style="fill-rule:evenodd;stroke:#000000;stroke-width:1.0pt"
         transform="scale(0.8) translate(7.4, 1)" />
    </marker>
    <marker
       inkscape:stockid="Arrow2Lend"
       orient="auto"
       refY="0.0"
       refX="0.0"
       id="Arrow2Lend"
       style="overflow:visible;">
      <path
         id="path4111"
         style="fill-rule:evenodd;stroke-width:0.62500000;stroke-linejoin:round;"
         d="M 8.7185878,4.0337352 L -2.2072895,0.016013256 L 8.7185884,-4.0017078 C 6.9730900,-1.6296469 6.9831476,1.6157441 8.7185878,4.0337352 z "
         transform="scale(1.1) rotate(180) translate(1,0)" />
    </marker>
    <style
       type="text/css"
       id="style6">
*{stroke-linecap:butt;stroke-linejoin:round;}
  </style>
  </defs>
  <g
     id="figure_1">
    <g
       id="axes_1">
      <g
         id="PolyCollection_1">
        <defs
           id="defs14">
          <path
             d="M 268.035988 -130.704311  L 268.707983 -156.285487  L 269.379979 -156.285487  L 269.379979 -180.161252  L 270.051975 -180.161252  L 270.051975 -202.445299  L 270.72397 -202.445299  L 270.72397 -223.243743  L 271.395966 -223.243743  L 271.395966 -242.655624  L 272.067962 -242.655624  L 272.067962 -260.773379  L 272.739957 -260.773379  L 272.739957 -277.683285  L 273.411953 -277.683285  L 273.411953 -293.465863  L 274.083949 -293.465863  L 274.083949 -308.196269  L 274.755944 -308.196269  L 274.755944 -321.944648  L 275.42794 -321.944648  L 275.42794 -334.776469  L 276.099936 -334.776469  L 276.099936 -344.10463  L 276.771931 -344.10463  L 276.771931 -339.836623  L 277.443927 -339.836623  L 277.443927 -335.653977  L 278.115923 -335.653977  L 278.115923 -331.554984  L 278.787918 -331.554984  L 278.787918 -327.53797  L 279.459914 -327.53797  L 279.459914 -323.601297  L 280.13191 -323.601297  L 280.13191 -319.743357  L 280.803905 -319.743357  L 280.803905 -315.962576  L 281.475901 -315.962576  L 281.475901 -312.257411  L 282.147897 -312.257411  L 282.147897 -308.626349  L 282.819892 -308.626349  L 282.819892 -305.067908  L 283.491888 -305.067908  L 283.491888 -301.580636  L 284.163884 -301.580636  L 284.163884 -298.16311  L 284.835879 -298.16311  L 284.835879 -294.813934  L 285.507875 -294.813934  L 285.507875 -291.531741  L 286.179871 -291.531741  L 286.179871 -288.315193  L 286.851866 -288.315193  L 286.851866 -285.162975  L 287.523862 -285.162975  L 287.523862 -282.073802  L 288.195858 -282.073802  L 288.195858 -279.046412  L 288.867853 -279.046412  L 288.867853 -276.07957  L 289.539849 -276.07957  L 289.539849 -273.172065  L 290.211845 -273.172065  L 290.211845 -270.32271  L 290.88384 -270.32271  L 290.88384 -267.530342  L 291.555836 -267.530342  L 291.555836 -264.793821  L 292.227832 -264.793821  L 292.227832 -262.112031  L 292.899827 -262.112031  L 292.899827 -259.483877  L 293.571823 -259.483877  L 293.571823 -256.908285  L 294.243819 -256.908285  L 294.243819 -254.384206  L 294.915814 -254.384206  L 294.915814 -251.910608  L 295.58781 -251.910608  L 295.58781 -249.486482  L 296.259806 -249.486482  L 296.259806 -247.110838  L 296.931801 -247.110838  L 296.931801 -244.782708  L 297.603797 -244.782708  L 297.603797 -242.50114  L 298.275793 -242.50114  L 298.275793 -240.265203  L 298.947788 -240.265203  L 298.947788 -238.073985  L 299.619784 -238.073985  L 299.619784 -235.926592  L 300.29178 -235.926592  L 300.29178 -233.822146  L 300.963775 -233.822146  L 300.963775 -231.75979  L 301.635771 -231.75979  L 301.635771 -229.73868  L 302.307767 -229.73868  L 302.307767 -227.757993  L 302.979762 -227.757993  L 302.979762 -225.816919  L 303.651758 -225.816919  L 303.651758 -223.914667  L 304.323754 -223.914667  L 304.323754 -222.05046  L 304.995749 -222.05046  L 304.995749 -220.223537  L 305.667745 -220.223537  L 305.667745 -218.433152  L 306.339741 -218.433152  L 306.339741 -216.678575  L 307.011736 -216.678575  L 307.011736 -214.95909  L 307.683732 -214.95909  L 307.683732 -213.273995  L 308.355728 -213.273995  L 308.355728 -211.622601  L 309.027723 -211.622601  L 309.027723 -210.004235  L 309.699719 -210.004235  L 309.699719 -208.418237  L 310.371715 -208.418237  L 310.371715 -206.863958  L 311.04371 -206.863958  L 311.04371 -205.340765  L 311.715706 -205.340765  L 311.715706 -203.848036  L 312.387702 -203.848036  L 312.387702 -202.385162  L 313.059697 -202.385162  L 313.059697 -200.951544  L 313.731693 -200.951544  L 313.731693 -199.5466  L 314.403689 -199.5466  L 314.403689 -198.169754  L 315.075684 -198.169754  L 315.075684 -196.820445  L 315.74768 -196.820445  L 315.74768 -195.498122  L 316.419676 -195.498122  L 316.419676 -194.202246  L 317.091671 -194.202246  L 317.091671 -192.932288  L 317.763667 -192.932288  L 317.763667 -191.687728  L 318.435663 -191.687728  L 318.435663 -190.46806  L 319.107658 -190.46806  L 319.107658 -189.272785  L 319.779654 -189.272785  L 319.779654 -188.101415  L 320.45165 -188.101415  L 320.45165 -186.953473  L 321.123645 -186.953473  L 321.123645 -185.82849  L 321.795641 -185.82849  L 321.795641 -184.726006  L 322.467637 -184.726006  L 322.467637 -183.645572  L 323.139632 -183.645572  L 323.139632 -182.586747  L 323.811628 -182.586747  L 323.811628 -181.549098  L 324.483624 -181.549098  L 324.483624 -180.532203  L 325.155619 -180.532203  L 325.155619 -179.535645  L 325.827615 -179.535645  L 325.827615 -178.559018  L 326.499611 -178.559018  L 326.499611 -177.601924  L 327.171606 -177.601924  L 327.171606 -176.663972  L 327.843602 -176.663972  L 327.843602 -175.744778  L 328.515598 -175.744778  L 328.515598 -174.843969  L 329.187593 -174.843969  L 329.187593 -173.961176  L 329.859589 -173.961176  L 329.859589 -173.096039  L 330.531585 -173.096039  L 330.531585 -172.248204  L 331.20358 -172.248204  L 331.20358 -171.417326  L 331.875576 -171.417326  L 331.875576 -170.603066  L 332.547572 -170.603066  L 332.547572 -169.805091  L 333.219567 -169.805091  L 333.219567 -169.023075  L 333.891563 -169.023075  L 333.891563 -168.2567  L 334.563559 -168.2567  L 334.563559 -167.505652  L 335.235554 -167.505652  L 335.235554 -166.769625  L 335.90755 -166.769625  L 335.90755 -166.048319  L 336.579546 -166.048319  L 336.579546 -165.341439  L 337.251541 -165.341439  L 337.251541 -164.648696  L 337.923537 -164.648696  L 337.923537 -163.969809  L 338.595533 -163.969809  L 338.595533 -163.304499  L 339.267528 -163.304499  L 339.267528 -162.652495  L 339.939524 -162.652495  L 339.939524 -162.013531  L 340.61152 -162.013531  L 340.61152 -161.387347  L 341.283515 -161.387347  L 341.283515 -160.773686  L 341.955511 -160.773686  L 341.955511 -160.172299  L 342.627507 -160.172299  L 342.627507 -159.582939  L 343.299502 -159.582939  L 343.299502 -159.005366  L 343.971498 -159.005366  L 343.971498 -158.439345  L 344.643494 -158.439345  L 344.643494 -157.884644  L 345.315489 -157.884644  L 345.315489 -157.341038  L 345.987485 -157.341038  L 345.987485 -156.808303  L 346.659481 -156.808303  L 346.659481 -156.286223  L 347.331476 -156.286223  L 347.331476 -155.774585  L 348.003472 -155.774585  L 348.003472 -155.27318  L 348.675468 -155.27318  L 348.675468 -154.781802  L 349.347463 -154.781802  L 349.347463 -154.300252  L 350.019459 -154.300252  L 350.019459 -153.828334  L 350.691455 -153.828334  L 350.691455 -153.365853  L 351.36345 -153.365853  L 351.36345 -152.912622  L 352.035446 -152.912622  L 352.035446 -152.468456  L 352.707442 -152.468456  L 352.707442 -152.033173  L 353.379437 -152.033173  L 353.379437 -151.606596  L 354.051433 -151.606596  L 354.051433 -151.18855  L 354.723429 -151.18855  L 354.723429 -150.778865  L 355.395424 -150.778865  L 355.395424 -150.377374  L 356.06742 -150.377374  L 356.06742 -149.983913  L 356.739415 -149.983913  L 356.739415 -149.598321  L 357.411411 -149.598321  L 357.411411 -149.220441  L 358.083407 -149.220441  L 358.083407 -148.850118  L 358.755402 -148.850118  L 358.755402 -148.487202  L 359.427398 -148.487202  L 359.427398 -148.131544  L 360.099394 -148.131544  L 360.099394 -147.782999  L 360.771389 -147.782999  L 360.771389 -147.441426  L 361.443385 -147.441426  L 361.443385 -147.106683  L 362.115381 -147.106683  L 362.115381 -146.778636  L 362.787376 -146.778636  L 362.787376 -146.457149  L 363.459372 -146.457149  L 363.459372 -146.142093  L 364.131368 -146.142093  L 364.131368 -145.833337  L 364.803363 -145.833337  L 364.803363 -145.530757  L 365.475359 -145.530757  L 365.475359 -145.234228  L 366.147355 -145.234228  L 366.147355 -144.943629  L 366.81935 -144.943629  L 366.81935 -144.658843  L 367.491346 -144.658843  L 367.491346 -144.379752  L 368.163342 -144.379752  L 368.163342 -143.747254  L 368.835337 -143.747254  L 368.835337 -142.877725  L 369.507333 -142.877725  L 369.507333 -142.066164  L 370.179329 -142.066164  L 370.179329 -141.308707  L 370.851324 -141.308707  L 370.851324 -140.601747  L 371.52332 -140.601747  L 371.52332 -139.941918  L 372.195316 -139.941918  L 372.195316 -139.326078  L 372.867311 -139.326078  L 372.867311 -138.751293  L 373.539307 -138.751293  L 373.539307 -138.214828  L 374.211303 -138.214828  L 374.211303 -137.714126  L 374.883298 -137.714126  L 374.883298 -137.246805  L 375.555294 -137.246805  L 375.555294 -136.810639  L 376.22729 -136.810639  L 376.22729 -136.403551  L 376.899285 -136.403551  L 376.899285 -136.023601  L 377.571281 -136.023601  L 377.571281 -135.668982  L 378.243277 -135.668982  L 378.243277 -135.338004  L 378.915272 -135.338004  L 378.915272 -135.029091  L 379.587268 -135.029091  L 379.587268 -134.740772  L 380.259264 -134.471675  L 379.587268 -130.704311  L 379.587268 -130.704311  L 378.915272 -130.704311  L 378.915272 -130.704311  L 378.243277 -130.704311  L 378.243277 -130.704311  L 377.571281 -130.704311  L 377.571281 -130.704311  L 376.899285 -130.704311  L 376.899285 -130.704311  L 376.22729 -130.704311  L 376.22729 -130.704311  L 375.555294 -130.704311  L 375.555294 -130.704311  L 374.883298 -130.704311  L 374.883298 -130.704311  L 374.211303 -130.704311  L 374.211303 -130.704311  L 373.539307 -130.704311  L 373.539307 -130.704311  L 372.867311 -130.704311  L 372.867311 -130.704311  L 372.195316 -130.704311  L 372.195316 -130.704311  L 371.52332 -130.704311  L 371.52332 -130.704311  L 370.851324 -130.704311  L 370.851324 -130.704311  L 370.179329 -130.704311  L 370.179329 -130.704311  L 369.507333 -130.704311  L 369.507333 -130.704311  L 368.835337 -130.704311  L 368.835337 -130.704311  L 368.163342 -130.704311  L 368.163342 -130.704311  L 367.491346 -130.704311  L 367.491346 -130.704311  L 366.81935 -130.704311  L 366.81935 -130.704311  L 366.147355 -130.704311  L 366.147355 -130.704311  L 365.475359 -130.704311  L 365.475359 -130.704311  L 364.803363 -130.704311  L 364.803363 -130.704311  L 364.131368 -130.704311  L 364.131368 -130.704311  L 363.459372 -130.704311  L 363.459372 -130.704311  L 362.787376 -130.704311  L 362.787376 -130.704311  L 362.115381 -130.704311  L 362.115381 -130.704311  L 361.443385 -130.704311  L 361.443385 -130.704311  L 360.771389 -130.704311  L 360.771389 -130.704311  L 360.099394 -130.704311  L 360.099394 -130.704311  L 359.427398 -130.704311  L 359.427398 -130.704311  L 358.755402 -130.704311  L 358.755402 -130.704311  L 358.083407 -130.704311  L 358.083407 -130.704311  L 357.411411 -130.704311  L 357.411411 -130.704311  L 356.739415 -130.704311  L 356.739415 -130.704311  L 356.06742 -130.704311  L 356.06742 -130.704311  L 355.395424 -130.704311  L 355.395424 -130.704311  L 354.723429 -130.704311  L 354.723429 -130.704311  L 354.051433 -130.704311  L 354.051433 -130.704311  L 353.379437 -130.704311  L 353.379437 -130.704311  L 352.707442 -130.704311  L 352.707442 -130.704311  L 352.035446 -130.704311  L 352.035446 -130.704311  L 351.36345 -130.704311  L 351.36345 -130.704311  L 350.691455 -130.704311  L 350.691455 -130.704311  L 350.019459 -130.704311  L 350.019459 -130.704311  L 349.347463 -130.704311  L 349.347463 -130.704311  L 348.675468 -130.704311  L 348.675468 -130.704311  L 348.003472 -130.704311  L 348.003472 -130.704311  L 347.331476 -130.704311  L 347.331476 -130.704311  L 346.659481 -130.704311  L 346.659481 -130.704311  L 345.987485 -130.704311  L 345.987485 -130.704311  L 345.315489 -130.704311  L 345.315489 -130.704311  L 344.643494 -130.704311  L 344.643494 -130.704311  L 343.971498 -130.704311  L 343.971498 -130.704311  L 343.299502 -130.704311  L 343.299502 -130.704311  L 342.627507 -130.704311  L 342.627507 -130.704311  L 341.955511 -130.704311  L 341.955511 -130.704311  L 341.283515 -130.704311  L 341.283515 -130.704311  L 340.61152 -130.704311  L 340.61152 -130.704311  L 339.939524 -130.704311  L 339.939524 -130.704311  L 339.267528 -130.704311  L 339.267528 -130.704311  L 338.595533 -130.704311  L 338.595533 -130.704311  L 337.923537 -130.704311  L 337.923537 -130.704311  L 337.251541 -130.704311  L 337.251541 -130.704311  L 336.579546 -130.704311  L 336.579546 -130.704311  L 335.90755 -130.704311  L 335.90755 -130.704311  L 335.235554 -130.704311  L 335.235554 -130.704311  L 334.563559 -130.704311  L 334.563559 -130.704311  L 333.891563 -130.704311  L 333.891563 -130.704311  L 333.219567 -130.704311  L 333.219567 -130.704311  L 332.547572 -130.704311  L 332.547572 -130.704311  L 331.875576 -130.704311  L 331.875576 -130.704311  L 331.20358 -130.704311  L 331.20358 -130.704311  L 330.531585 -130.704311  L 330.531585 -130.704311  L 329.859589 -130.704311  L 329.859589 -130.704311  L 329.187593 -130.704311  L 329.187593 -130.704311  L 328.515598 -130.704311  L 328.515598 -130.704311  L 327.843602 -130.704311  L 327.843602 -130.704311  L 327.171606 -130.704311  L 327.171606 -130.704311  L 326.499611 -130.704311  L 326.499611 -130.704311  L 325.827615 -130.704311  L 325.827615 -130.704311  L 325.155619 -130.704311  L 325.155619 -130.704311  L 324.483624 -130.704311  L 324.483624 -130.704311  L 323.811628 -130.704311  L 323.811628 -130.704311  L 323.139632 -130.704311  L 323.139632 -130.704311  L 322.467637 -130.704311  L 322.467637 -130.704311  L 321.795641 -130.704311  L 321.795641 -130.704311  L 321.123645 -130.704311  L 321.123645 -130.704311  L 320.45165 -130.704311  L 320.45165 -130.704311  L 319.779654 -130.704311  L 319.779654 -130.704311  L 319.107658 -130.704311  L 319.107658 -130.704311  L 318.435663 -130.704311  L 318.435663 -130.704311  L 317.763667 -130.704311  L 317.763667 -130.704311  L 317.091671 -130.704311  L 317.091671 -130.704311  L 316.419676 -130.704311  L 316.419676 -130.704311  L 315.74768 -130.704311  L 315.74768 -130.704311  L 315.075684 -130.704311  L 315.075684 -130.704311  L 314.403689 -130.704311  L 314.403689 -130.704311  L 313.731693 -130.704311  L 313.731693 -130.704311  L 313.059697 -130.704311  L 313.059697 -130.704311  L 312.387702 -130.704311  L 312.387702 -130.704311  L 311.715706 -130.704311  L 311.715706 -130.704311  L 311.04371 -130.704311  L 311.04371 -130.704311  L 310.371715 -130.704311  L 310.371715 -130.704311  L 309.699719 -130.704311  L 309.699719 -130.704311  L 309.027723 -130.704311  L 309.027723 -130.704311  L 308.355728 -130.704311  L 308.355728 -130.704311  L 307.683732 -130.704311  L 307.683732 -130.704311  L 307.011736 -130.704311  L 307.011736 -130.704311  L 306.339741 -130.704311  L 306.339741 -130.704311  L 305.667745 -130.704311  L 305.667745 -130.704311  L 304.995749 -130.704311  L 304.995749 -130.704311  L 304.323754 -130.704311  L 304.323754 -130.704311  L 303.651758 -130.704311  L 303.651758 -130.704311  L 302.979762 -130.704311  L 302.979762 -130.704311  L 302.307767 -130.704311  L 302.307767 -130.704311  L 301.635771 -130.704311  L 301.635771 -130.704311  L 300.963775 -130.704311  L 300.963775 -130.704311  L 300.29178 -130.704311  L 300.29178 -130.704311  L 299.619784 -130.704311  L 299.619784 -130.704311  L 298.947788 -130.704311  L 298.947788 -130.704311  L 298.275793 -130.704311  L 298.275793 -130.704311  L 297.603797 -130.704311  L 297.603797 -130.704311  L 296.931801 -130.704311  L 296.931801 -130.704311  L 296.259806 -130.704311  L 296.259806 -130.704311  L 295.58781 -130.704311  L 295.58781 -130.704311  L 294.915814 -130.704311  L 294.915814 -130.704311  L 294.243819 -130.704311  L 294.243819 -130.704311  L 293.571823 -130.704311  L 293.571823 -130.704311  L 292.899827 -130.704311  L 292.899827 -130.704311  L 292.227832 -130.704311  L 292.227832 -130.704311  L 291.555836 -130.704311  L 291.555836 -130.704311  L 290.88384 -130.704311  L 290.88384 -130.704311  L 290.211845 -130.704311  L 290.211845 -130.704311  L 289.539849 -130.704311  L 289.539849 -130.704311  L 288.867853 -130.704311  L 288.867853 -130.704311  L 288.195858 -130.704311  L 288.195858 -130.704311  L 287.523862 -130.704311  L 287.523862 -130.704311  L 286.851866 -130.704311  L 286.851866 -130.704311  L 286.179871 -130.704311  L 286.179871 -130.704311  L 285.507875 -130.704311  L 285.507875 -130.704311  L 284.835879 -130.704311  L 284.835879 -130.704311  L 284.163884 -130.704311  L 284.163884 -130.704311  L 283.491888 -130.704311  L 283.491888 -130.704311  L 282.819892 -130.704311  L 282.819892 -130.704311  L 282.147897 -130.704311  L 282.147897 -130.704311  L 281.475901 -130.704311  L 281.475901 -130.704311  L 280.803905 -130.704311  L 280.803905 -130.704311  L 280.13191 -130.704311  L 280.13191 -130.704311  L 279.459914 -130.704311  L 279.459914 -130.704311  L 278.787918 -130.704311  L 278.787918 -130.704311  L 278.115923 -130.704311  L 278.115923 -130.704311  L 277.443927 -130.704311  L 277.443927 -130.704311  L 276.771931 -130.704311  L 276.771931 -130.704311  L 276.099936 -130.704311  L 276.099936 -130.704311  L 275.42794 -130.704311  L 275.42794 -130.704311  L 274.755944 -130.704311  L 274.755944 -130.704311  L 274.083949 -130.704311  L 274.083949 -130.704311  L 273.411953 -130.704311  L 273.411953 -130.704311  L 272.739957 -130.704311  L 272.739957 -130.704311  L 272.067962 -130.704311  L 272.067962 -130.704311  L 271.395966 -130.704311  L 271.395966 -130.704311  L 270.72397 -130.704311  L 270.72397 -130.704311  L 270.051975 -130.704311  L 270.051975 -130.704311  L 269.379979 -130.704311  L 269.379979 -130.704311  L 268.707983 -130.704311  z "
             id="mee02300fa2"
             style="stroke:#8f1402;" />
        </defs>
        <g
           clip-path="url(#pb43f70af2b)"
           id="g17">
          <use
             style="fill:#8f1402;stroke:#8f1402;"
             x="0"
             xlink:href="#mee02300fa2"
             y="728.107773"
             id="use19" />
        </g>
      </g>
      <g
         id="line2d_1">
        <path
           clip-path="url(#pb43f70af2b)"
           d="M 120.868937 597.403463  L 194.116465 597.403463  L 196.804447 567.614756  L 199.49243 540.138601  L 202.180413 514.795471  L 204.868395 491.419774  L 207.556378 469.858776  L 210.244361 449.971598  L 212.932343 431.628298  L 215.620326 414.709022  L 218.308309 399.10322  L 220.996291 384.708926  L 223.684274 371.432087  L 226.372257 359.185954  L 229.060239 347.890511  L 231.748222 337.471953  L 234.436205 327.862208  L 237.124187 318.998484  L 239.81217 310.822868  L 242.500153 303.28194  L 245.188135 296.326428  L 247.876118 289.910885  L 250.5641 283.993393  L 253.252083 278.535286  L 255.940066 273.500902  L 258.628048 268.857347  L 261.316031 264.57428  L 264.004014 290.412422  L 266.691996 314.244701  L 269.379979 336.226837  L 272.067962 356.502459  L 274.755944 375.204047  L 277.443927 392.453796  L 280.13191 408.364416  L 282.819892 423.039865  L 285.507875 436.576032  L 288.195858 449.061361  L 290.88384 460.577432  L 293.571823 471.199488  L 296.259806 480.996935  L 298.947788 490.033788  L 301.635771 498.369093  L 304.323754 506.057314  L 307.011736 513.148683  L 309.699719 519.689537  L 312.387702 525.722612  L 315.075684 531.287328  L 317.763667 536.420045  L 320.45165 541.1543  L 323.139632 545.521026  L 326.499611 550.505849  L 329.859589 555.011735  L 333.219567 559.084698  L 336.579546 562.766335  L 339.939524 566.094242  L 343.299502 569.102407  L 346.659481 571.82155  L 350.019459 574.27944  L 353.379437 576.501178  L 357.411411 578.887333  L 361.443385 581.00109  L 365.475359 582.873546  L 370.179329 584.789671  L 374.883298 586.453108  L 379.587268 587.89718  L 384.963233 589.315869  L 391.011194 590.66045  L 397.059155 591.781491  L 403.779112 592.809902  L 411.171064 593.725255  L 419.907008 594.574839  L 429.986943 595.314328  L 441.410869 595.921594  L 455.522778 596.433942  L 472.994665 596.830092  L 489.794557 597.057454  L 489.794557 597.057454  "
           style="fill:none;stroke:#000000;stroke-linecap:round;stroke-width:4;"
           id="path22" />
      </g>
      <g
         id="line2d_2">
        <path
           clip-path="url(#pb43f70af2b)"
           d="M 120.868937 597.403463  L 268.035988 597.403463  L 269.379979 547.946522  L 270.72397 504.864031  L 272.067962 467.334394  L 273.411953 434.641911  L 274.755944 406.163125  L 276.099936 381.354939  L 277.443927 359.744252  L 278.787918 340.918942  L 280.13191 324.520006  L 281.475901 310.23471  L 282.819892 297.79063  L 284.163884 286.950454  L 285.507875 277.507456  L 286.851866 269.281556  L 288.195858 262.115883  L 289.539849 255.873785  L 290.88384 250.436225  L 292.227832 245.699505  L 293.571823 241.573297  L 294.915814 237.97891  L 296.259806 234.8478  L 297.603797 232.120256  L 298.947788 229.744261  L 300.29178 227.674506  L 302.307767 225.059139  L 304.323754 222.932749  L 306.339741 221.203915  L 308.355728 219.798309  L 310.371715 218.655499  L 312.387702 217.726352  L 315.075684 216.751914  L 317.763667 216.012477  L 321.123645 215.333664  L 325.155619 214.775091  L 329.859589 214.357856  L 335.235554 214.072797  L 336.579546 263.47986  L 337.923537 306.518902  L 339.267528 344.01069  L 340.61152 376.670203  L 341.955511 405.120268  L 343.299502 429.903435  L 344.643494 451.492327  L 345.987485 470.298652  L 347.331476 486.681049  L 348.675468 500.951938  L 350.019459 513.383468  L 351.36345 524.212712  L 352.707442 533.646186  L 354.051433 541.863791  L 355.395424 549.022238  L 356.739415 555.25804  L 358.083407 560.690117  L 359.427398 565.422059  L 360.771389 569.544107  L 362.115381 573.134868  L 363.459372 576.26282  L 364.803363 578.987614  L 366.147355 581.361212  L 367.491346 583.42888  L 369.507333 586.04161  L 371.52332 588.165855  L 373.539307 589.892946  L 375.555294 591.297134  L 377.571281 592.438792  L 379.587268 593.367001  L 382.275251 594.340456  L 384.963233 595.079148  L 388.323212 595.757277  L 392.355186 596.315286  L 397.059155 596.7321  L 403.107116 597.042645  L 411.84306 597.256311  L 427.29896 597.37336  L 474.338657 597.403222  L 489.794557 597.403414  L 489.794557 597.403414  "
           style="fill:none;stroke:#000000;stroke-dasharray:14.8,6.4;stroke-dashoffset:0;stroke-width:4;"
           id="path25" />
      </g>
      <g
         id="line2d_3">
        <defs
           id="defs28">
          <path
             d="M -20 20  L 20 20  L 20 -20  L -20 -20  z "
             id="md251a21311"
             style="stroke:#8f1402;stroke-linejoin:miter;" />
        </defs>
        <g
           clip-path="url(#pb43f70af2b)"
           id="g31">
          <use
             style="fill:#8f1402;stroke:#8f1402;stroke-linejoin:miter;"
             x="322.467637"
             xlink:href="#md251a21311"
             y="654.96111"
             id="use33" />
        </g>
      </g>
      <g
         id="text_1">
        <!-- $w_{12} \propto$ -->
        <defs
           id="defs36">
          <path
             d="M 8.5 54.6875  L 17.390625 54.6875  L 19.671875 10.6875  L 40.09375 54.6875  L 50.484375 54.6875  L 53.515625 10.6875  L 72.90625 54.6875  L 81.890625 54.6875  L 56.890625 0  L 46.390625 0  L 43.703125 45.3125  L 22.796875 0  L 12.203125 0  z "
             id="DejaVuSans-Oblique-77" />
          <path
             d="M 12.40625 8.296875  L 28.515625 8.296875  L 28.515625 63.921875  L 10.984375 60.40625  L 10.984375 69.390625  L 28.421875 72.90625  L 38.28125 72.90625  L 38.28125 8.296875  L 54.390625 8.296875  L 54.390625 0  L 12.40625 0  z "
             id="DejaVuSans-31" />
          <path
             d="M 19.1875 8.296875  L 53.609375 8.296875  L 53.609375 0  L 7.328125 0  L 7.328125 8.296875  Q 12.9375 14.109375 22.625 23.890625  Q 32.328125 33.6875 34.8125 36.53125  Q 39.546875 41.84375 41.421875 45.53125  Q 43.3125 49.21875 43.3125 52.78125  Q 43.3125 58.59375 39.234375 62.25  Q 35.15625 65.921875 28.609375 65.921875  Q 23.96875 65.921875 18.8125 64.3125  Q 13.671875 62.703125 7.8125 59.421875  L 7.8125 69.390625  Q 13.765625 71.78125 18.9375 73  Q 24.125 74.21875 28.421875 74.21875  Q 39.75 74.21875 46.484375 68.546875  Q 53.21875 62.890625 53.21875 53.421875  Q 53.21875 48.921875 51.53125 44.890625  Q 49.859375 40.875 45.40625 35.40625  Q 44.1875 33.984375 37.640625 27.21875  Q 31.109375 20.453125 19.1875 8.296875  z "
             id="DejaVuSans-32" />
          <path
             d="M 25.734375 17.71875  Q 33.796875 17.71875 38.625 29.4375  Q 32.421875 42.234375 25.734375 42.234375  Q 20.84375 42.234375 18.359375 38.71875  Q 15.71875 34.96875 15.71875 29.984375  Q 15.71875 24.515625 18.359375 21.140625  Q 21.09375 17.71875 25.734375 17.71875  z M 60.6875 17.625  L 60.6875 11.1875  L 56.9375 11.1875  Q 53.375 11.1875 50.734375 12.640625  Q 48.09375 13.96875 45.5625 17.046875  Q 44.046875 18.796875 41.65625 22.90625  Q 38.375 17.046875 35.5 14.453125  Q 31.9375 11.328125 26.265625 11.328125  Q 19.671875 11.328125 15.328125 16.265625  Q 10.75 21.4375 10.75 29.984375  Q 10.75 38.1875 15.328125 43.75  Q 19.390625 48.6875 26.375 48.6875  Q 29.9375 48.6875 32.5625 47.21875  Q 35.640625 45.609375 37.75 42.828125  Q 39.703125 40.328125 41.65625 36.96875  Q 44.921875 42.828125 47.796875 45.40625  Q 51.375 48.53125 57.03125 48.53125  L 60.6875 48.53125  L 60.6875 42.140625  L 57.5625 42.140625  Q 50.34375 42.140625 44.671875 30.421875  Q 50.875 17.625 57.5625 17.625  z "
             id="DejaVuSans-221d" />
        </defs>
        <g
           style="fill:#262626;stroke-linecap:butt;stroke-linejoin:round"
           transform="matrix(0.5,0,0,-0.5,154.46872,674.14699)"
           id="g42">
          <use
             transform="translate(0,0.3125)"
             xlink:href="#DejaVuSans-Oblique-77"
             id="use44"
             style="stroke-linecap:butt;stroke-linejoin:round"
             x="0"
             y="0"
             width="1008.4227"
             height="728.10779" />
          <use
             transform="matrix(0.7,0,0,0.7,112.90141,-27.66189)"
             xlink:href="#DejaVuSans-31"
             id="use46"
             style="stroke-linecap:butt;stroke-linejoin:round"
             x="0"
             y="0"
             width="1008.4227"
             height="728.10779" />
          <use
             transform="matrix(0.7,0,0,0.7,72.072656,-27.262988)"
             xlink:href="#DejaVuSans-32"
             id="use48"
             style="stroke-linecap:butt;stroke-linejoin:round"
             x="0"
             y="0"
             width="1008.4227"
             height="728.10779" />
          <use
             transform="translate(193.07617,0.3125)"
             xlink:href="#DejaVuSans-221d"
             id="use50"
             style="stroke-linecap:butt;stroke-linejoin:round"
             x="0"
             y="0"
             width="1008.4227"
             height="728.10779" />
          <use
             style="fill:#262626;stroke-linecap:butt;stroke-linejoin:round"
             transform="translate(438.64372,688.6342)"
             xlink:href="#DejaVuSans-Oblique-77"
             id="use44-1"
             x="0"
             y="0"
             width="1"
             height="1" />
          <use
             transform="matrix(0.7,0,0,0.7,551.54513,660.6598)"
             xlink:href="#DejaVuSans-31"
             id="use46-8"
             style="fill:#262626;stroke-linecap:butt;stroke-linejoin:round"
             x="0"
             y="0"
             width="1008.4227"
             height="728.10779" />
          <use
             transform="matrix(0.7,0,0,0.7,510.71638,661.05871)"
             xlink:href="#DejaVuSans-32"
             id="use48-7"
             style="fill:#262626;stroke-linecap:butt;stroke-linejoin:round"
             x="0"
             y="0"
             width="1008.4227"
             height="728.10779" />
        </g>
      </g>
      <g
         id="legend_1">
        <g
           id="line2d_4">
          <path
             d="M 462.768111 442.434008  L 539.768111 442.434008  "
             style="fill:none;stroke:#000000;stroke-linecap:round;stroke-width:4;"
             id="path54" />
        </g>
        <g
           id="line2d_5" />
        <g
           id="text_2">
          <!-- $z_{pre}$ -->
          <defs
             id="defs58">
            <path
               d="M 11.625 54.6875  L 54.296875 54.6875  L 52.6875 46.484375  L 11.53125 7.171875  L 45.515625 7.171875  L 44.09375 0  L -0.296875 0  L 1.3125 8.203125  L 42.484375 47.515625  L 10.203125 47.515625  z "
               id="DejaVuSans-Oblique-7a" />
            <path
               d="M 49.609375 33.6875  Q 49.609375 40.875 46.484375 44.671875  Q 43.359375 48.484375 37.5 48.484375  Q 33.5 48.484375 29.859375 46.4375  Q 26.21875 44.390625 23.390625 40.484375  Q 20.609375 36.625 18.9375 31.15625  Q 17.28125 25.6875 17.28125 20.3125  Q 17.28125 13.484375 20.40625 9.796875  Q 23.53125 6.109375 29.296875 6.109375  Q 33.546875 6.109375 37.1875 8.109375  Q 40.828125 10.109375 43.40625 13.921875  Q 46.1875 17.921875 47.890625 23.34375  Q 49.609375 28.765625 49.609375 33.6875  z M 21.78125 46.390625  Q 25.390625 51.125 30.296875 53.5625  Q 35.203125 56 41.21875 56  Q 49.609375 56 54.25 50.5  Q 58.890625 45.015625 58.890625 35.109375  Q 58.890625 27 56 19.65625  Q 53.125 12.3125 47.703125 6.5  Q 44.09375 2.640625 39.546875 0.609375  Q 35.015625 -1.421875 29.984375 -1.421875  Q 24.171875 -1.421875 20.21875 1  Q 16.265625 3.421875 14.3125 8.203125  L 8.6875 -20.796875  L -0.296875 -20.796875  L 14.40625 54.6875  L 23.390625 54.6875  z "
               id="DejaVuSans-Oblique-70" />
            <path
               d="M 44.578125 46.390625  Q 43.21875 47.125 41.453125 47.515625  Q 39.703125 47.90625 37.703125 47.90625  Q 30.515625 47.90625 25.140625 42.453125  Q 19.78125 37.015625 18.015625 27.875  L 12.5 0  L 3.515625 0  L 14.203125 54.6875  L 23.1875 54.6875  L 21.484375 46.1875  Q 25.046875 50.921875 30 53.453125  Q 34.96875 56 40.578125 56  Q 42.046875 56 43.453125 55.828125  Q 44.875 55.671875 46.296875 55.28125  z "
               id="DejaVuSans-Oblique-72" />
            <path
               d="M 48.09375 32.234375  Q 48.25 33.015625 48.3125 33.84375  Q 48.390625 34.671875 48.390625 35.5  Q 48.390625 41.453125 44.890625 44.921875  Q 41.40625 48.390625 35.40625 48.390625  Q 28.71875 48.390625 23.578125 44.15625  Q 18.453125 39.9375 15.828125 32.171875  z M 55.90625 25.203125  L 14.109375 25.203125  Q 13.8125 23.34375 13.71875 22.265625  Q 13.625 21.1875 13.625 20.40625  Q 13.625 13.625 17.796875 9.90625  Q 21.96875 6.203125 29.59375 6.203125  Q 35.453125 6.203125 40.671875 7.515625  Q 45.90625 8.84375 50.390625 11.375  L 48.6875 2.484375  Q 43.84375 0.53125 38.6875 -0.4375  Q 33.546875 -1.421875 28.21875 -1.421875  Q 16.84375 -1.421875 10.71875 4.015625  Q 4.59375 9.46875 4.59375 19.484375  Q 4.59375 28.03125 7.640625 35.375  Q 10.6875 42.71875 16.609375 48.484375  Q 20.40625 52.09375 25.65625 54.046875  Q 30.90625 56 36.8125 56  Q 46.09375 56 51.578125 50.4375  Q 57.078125 44.875 57.078125 35.5  Q 57.078125 33.25 56.78125 30.6875  Q 56.5 28.125 55.90625 25.203125  z "
               id="DejaVuSans-Oblique-65" />
          </defs>
          <g
             style="fill:#262626;"
             transform="translate(570.568111 455.909008)scale(0.385 -0.385)"
             id="g64">
            <use
               transform="translate(0 0.3125)"
               xlink:href="#DejaVuSans-Oblique-7a"
               id="use66" />
            <use
               transform="translate(52.490234 -16.09375)scale(0.7)"
               xlink:href="#DejaVuSans-Oblique-70"
               id="use68" />
            <use
               transform="translate(96.923828 -16.09375)scale(0.7)"
               xlink:href="#DejaVuSans-Oblique-72"
               id="use70" />
            <use
               transform="translate(125.703125 -16.09375)scale(0.7)"
               xlink:href="#DejaVuSans-Oblique-65"
               id="use72" />
          </g>
        </g>
        <g
           id="line2d_6">
          <path
             d="M 462.768111 502.872992  L 539.768111 502.872992  "
             style="fill:none;stroke:#000000;stroke-dasharray:14.8,6.4;stroke-dashoffset:0;stroke-width:4;"
             id="path75" />
        </g>
        <g
           id="line2d_7" />
        <g
           id="text_3">
          <!-- $z_{post}$ -->
          <defs
             id="defs79">
            <path
               d="M 25.390625 -1.421875  Q 15.765625 -1.421875 10.171875 4.515625  Q 4.59375 10.453125 4.59375 20.703125  Q 4.59375 26.65625 6.515625 32.828125  Q 8.453125 39.015625 11.53125 43.21875  Q 16.359375 49.75 22.3125 52.875  Q 28.265625 56 35.796875 56  Q 45.125 56 50.859375 50.1875  Q 56.59375 44.390625 56.59375 35.015625  Q 56.59375 28.515625 54.6875 22.0625  Q 52.78125 15.625 49.703125 11.375  Q 44.921875 4.828125 38.96875 1.703125  Q 33.015625 -1.421875 25.390625 -1.421875  z M 13.921875 21  Q 13.921875 13.578125 17.015625 9.890625  Q 20.125 6.203125 26.421875 6.203125  Q 35.453125 6.203125 41.375 14.078125  Q 47.3125 21.96875 47.3125 34.078125  Q 47.3125 41.15625 44.140625 44.765625  Q 40.96875 48.390625 34.8125 48.390625  Q 29.734375 48.390625 25.78125 46.015625  Q 21.828125 43.65625 18.703125 38.8125  Q 16.40625 35.203125 15.15625 30.5625  Q 13.921875 25.921875 13.921875 21  z "
               id="DejaVuSans-Oblique-6f" />
            <path
               d="M 50 53.078125  L 48.296875 44.578125  Q 44.734375 46.53125 40.765625 47.5  Q 36.8125 48.484375 32.625 48.484375  Q 25.53125 48.484375 21.453125 46.0625  Q 17.390625 43.65625 17.390625 39.5  Q 17.390625 34.671875 26.859375 32.078125  Q 27.59375 31.890625 27.9375 31.78125  L 30.8125 30.90625  Q 39.796875 28.421875 42.796875 25.6875  Q 45.796875 22.953125 45.796875 18.21875  Q 45.796875 9.515625 38.890625 4.046875  Q 31.984375 -1.421875 20.796875 -1.421875  Q 16.453125 -1.421875 11.671875 -0.578125  Q 6.890625 0.25 1.125 2  L 2.875 11.28125  Q 7.8125 8.734375 12.59375 7.421875  Q 17.390625 6.109375 21.78125 6.109375  Q 28.375 6.109375 32.5 8.9375  Q 36.625 11.765625 36.625 16.109375  Q 36.625 20.796875 25.78125 23.6875  L 24.859375 23.921875  L 21.78125 24.703125  Q 14.9375 26.515625 11.765625 29.46875  Q 8.59375 32.421875 8.59375 37.015625  Q 8.59375 45.75 15.15625 50.875  Q 21.734375 56 33.015625 56  Q 37.453125 56 41.671875 55.265625  Q 45.90625 54.546875 50 53.078125  z "
               id="DejaVuSans-Oblique-73" />
            <path
               d="M 42.28125 54.6875  L 40.921875 47.703125  L 23 47.703125  L 17.1875 18.015625  Q 16.890625 16.359375 16.75 15.234375  Q 16.609375 14.109375 16.609375 13.484375  Q 16.609375 10.359375 18.484375 8.9375  Q 20.359375 7.515625 24.515625 7.515625  L 33.59375 7.515625  L 32.078125 0  L 23.484375 0  Q 15.484375 0 11.546875 3.125  Q 7.625 6.25 7.625 12.59375  Q 7.625 13.71875 7.765625 15.0625  Q 7.90625 16.40625 8.203125 18.015625  L 14.015625 47.703125  L 6.390625 47.703125  L 7.8125 54.6875  L 15.28125 54.6875  L 18.3125 70.21875  L 27.296875 70.21875  L 24.3125 54.6875  z "
               id="DejaVuSans-Oblique-74" />
          </defs>
          <g
             style="fill:#262626;"
             transform="translate(570.568111 516.347992)scale(0.385 -0.385)"
             id="g84">
            <use
               transform="translate(0 0.3125)"
               xlink:href="#DejaVuSans-Oblique-7a"
               id="use86" />
            <use
               transform="translate(52.490234 -16.09375)scale(0.7)"
               xlink:href="#DejaVuSans-Oblique-70"
               id="use88" />
            <use
               transform="translate(96.923828 -16.09375)scale(0.7)"
               xlink:href="#DejaVuSans-Oblique-6f"
               id="use90" />
            <use
               transform="translate(139.750977 -16.09375)scale(0.7)"
               xlink:href="#DejaVuSans-Oblique-73"
               id="use92" />
            <use
               transform="translate(176.220703 -16.09375)scale(0.7)"
               xlink:href="#DejaVuSans-Oblique-74"
               id="use94" />
          </g>
        </g>
      </g>
    </g>
    <g
       id="axes_2">
      <g
         id="PolyCollection_2">
        <defs
           id="defs98">
          <path
             d="M 681.770279 -130.704311  L 681.770279 -130.704311  L 682.442274 -130.704311  L 682.442274 -130.704311  L 683.11427 -130.704311  L 683.11427 -130.704311  L 683.786266 -130.704311  L 683.786266 -130.704311  L 684.458261 -130.704311  L 684.458261 -130.704311  L 685.130257 -130.704311  L 685.130257 -130.704311  L 685.802253 -130.704311  L 685.802253 -130.704311  L 686.474248 -130.704311  L 686.474248 -130.704311  L 687.146244 -130.704311  L 687.146244 -130.704311  L 687.81824 -130.704311  L 687.81824 -130.704311  L 688.490235 -130.704311  L 688.490235 -130.704311  L 689.162231 -130.704311  L 689.162231 -130.704311  L 689.834226 -130.704311  L 689.834226 -130.704311  L 690.506222 -130.704311  L 690.506222 -130.704311  L 691.178218 -130.704311  L 691.178218 -130.704311  L 691.850213 -130.704311  L 691.850213 -130.704311  L 692.522209 -130.704311  L 692.522209 -130.704311  L 693.194205 -130.704311  L 693.194205 -130.704311  L 693.8662 -130.704311  L 693.8662 -130.704311  L 694.538196 -130.704311  L 694.538196 -130.704311  L 695.210192 -130.704311  L 695.210192 -130.704311  L 695.882187 -130.704311  L 695.882187 -130.704311  L 696.554183 -130.704311  L 696.554183 -130.704311  L 697.226179 -130.704311  L 697.226179 -130.704311  L 697.898174 -130.704311  L 697.898174 -130.704311  L 698.57017 -130.704311  L 698.57017 -130.704311  L 699.242166 -130.704311  L 699.242166 -130.704311  L 699.914161 -130.704311  L 699.914161 -130.704311  L 700.586157 -130.704311  L 700.586157 -130.704311  L 701.258153 -130.704311  L 701.258153 -130.704311  L 701.930148 -130.704311  L 701.930148 -130.704311  L 702.602144 -130.704311  L 702.602144 -130.704311  L 703.27414 -130.704311  L 703.27414 -130.704311  L 703.946135 -130.704311  L 703.946135 -130.704311  L 704.618131 -130.704311  L 704.618131 -130.704311  L 705.290127 -130.704311  L 705.290127 -130.704311  L 705.962122 -130.704311  L 705.962122 -130.704311  L 706.634118 -130.704311  L 706.634118 -130.704311  L 707.306114 -130.704311  L 707.306114 -130.704311  L 707.978109 -130.704311  L 707.978109 -130.704311  L 708.650105 -130.704311  L 708.650105 -130.704311  L 709.322101 -130.704311  L 709.322101 -130.704311  L 709.994096 -130.704311  L 709.994096 -130.704311  L 710.666092 -130.704311  L 710.666092 -130.704311  L 711.338088 -130.704311  L 711.338088 -130.704311  L 712.010083 -130.704311  L 712.010083 -130.704311  L 712.682079 -130.704311  L 712.682079 -130.704311  L 713.354075 -130.704311  L 713.354075 -130.704311  L 714.02607 -130.704311  L 714.02607 -130.704311  L 714.698066 -130.704311  L 714.698066 -130.704311  L 715.370062 -130.704311  L 715.370062 -130.704311  L 716.042057 -130.704311  L 716.042057 -130.704311  L 716.714053 -130.704311  L 716.714053 -130.704311  L 717.386049 -130.704311  L 717.386049 -130.704311  L 718.058044 -130.704311  L 718.058044 -130.704311  L 718.73004 -130.704311  L 718.73004 -130.704311  L 719.402036 -130.704311  L 719.402036 -130.704311  L 720.074031 -130.704311  L 720.074031 -130.704311  L 720.746027 -130.704311  L 720.746027 -130.704311  L 721.418023 -130.704311  L 721.418023 -130.704311  L 722.090018 -130.704311  L 722.090018 -130.704311  L 722.762014 -130.704311  L 722.762014 -130.704311  L 723.43401 -130.704311  L 723.43401 -130.704311  L 724.106005 -130.704311  L 724.106005 -130.704311  L 724.778001 -130.704311  L 724.778001 -130.704311  L 725.449997 -130.704311  L 725.449997 -130.704311  L 726.121992 -130.704311  L 726.121992 -130.704311  L 726.793988 -130.704311  L 726.793988 -130.704311  L 727.465984 -130.704311  L 727.465984 -130.704311  L 728.137979 -130.704311  L 728.137979 -130.704311  L 728.809975 -130.704311  L 728.809975 -130.704311  L 729.481971 -130.704311  L 729.481971 -130.704311  L 730.153966 -130.704311  L 730.153966 -130.704311  L 730.825962 -130.704311  L 730.825962 -130.704311  L 731.497958 -130.704311  L 731.497958 -130.704311  L 732.169953 -130.704311  L 732.169953 -130.704311  L 732.841949 -130.704311  L 732.841949 -130.704311  L 733.513945 -130.704311  L 733.513945 -130.704311  L 734.18594 -130.704311  L 734.18594 -130.704311  L 734.857936 -130.704311  L 734.857936 -130.704311  L 735.529932 -130.704311  L 735.529932 -130.704311  L 736.201927 -130.704311  L 736.201927 -130.704311  L 736.873923 -130.704311  L 736.873923 -130.704311  L 737.545919 -130.704311  L 737.545919 -130.704311  L 738.217914 -130.704311  L 738.217914 -130.704311  L 738.88991 -130.704311  L 738.88991 -130.704311  L 739.561906 -130.704311  L 739.561906 -130.704311  L 740.233901 -130.704311  L 740.233901 -130.704311  L 740.905897 -130.704311  L 740.905897 -130.704311  L 741.577893 -130.704311  L 741.577893 -130.704311  L 742.249888 -130.704311  L 742.249888 -130.704311  L 742.921884 -130.704311  L 742.921884 -130.704311  L 743.59388 -130.704311  L 743.59388 -130.704311  L 744.265875 -130.704311  L 744.265875 -130.704311  L 744.937871 -130.704311  L 744.937871 -130.704311  L 745.609867 -130.704311  L 745.609867 -130.704311  L 746.281862 -130.704311  L 746.281862 -130.704311  L 746.953858 -130.704311  L 746.953858 -130.704311  L 747.625854 -130.704311  L 747.625854 -130.704311  L 748.297849 -130.704311  L 748.297849 -130.704311  L 748.969845 -130.704311  L 748.969845 -130.704311  L 749.641841 -130.704311  L 749.641841 -130.704311  L 750.313836 -130.704311  L 750.313836 -130.704311  L 750.985832 -130.704311  L 750.985832 -130.704311  L 751.657828 -130.704311  L 751.657828 -130.704311  L 752.329823 -130.704311  L 752.329823 -130.704311  L 753.001819 -130.704311  L 753.001819 -130.704311  L 753.673815 -130.704311  L 753.673815 -130.704311  L 754.34581 -130.704311  L 754.34581 -130.704311  L 755.017806 -130.704311  L 755.017806 -130.704311  L 755.689802 -130.704311  L 755.689802 -138.378664  L 756.361797 -138.378664  L 756.361797 -145.899529  L 757.033793 -145.899529  L 757.033793 -153.269978  L 757.705789 -153.269978  L 757.705789 -160.493018  L 758.377784 -160.493018  L 758.377784 -167.571596  L 759.04978 -167.571596  L 759.04978 -174.508604  L 759.721776 -174.508604  L 759.721776 -181.306871  L 760.393771 -181.306871  L 760.393771 -187.969172  L 761.065767 -187.969172  L 761.065767 -194.498228  L 761.737763 -194.498228  L 761.737763 -200.896703  L 762.409758 -200.896703  L 762.409758 -207.167208  L 763.081754 -207.167208  L 763.081754 -213.312303  L 763.75375 -213.312303  L 763.75375 -209.122972  L 764.425745 -209.122972  L 764.425745 -203.895062  L 765.097741 -203.895062  L 765.097741 -199.015678  L 765.769737 -199.015678  L 765.769737 -194.461587  L 766.441732 -194.461587  L 766.441732 -190.211102  L 767.113728 -190.211102  L 767.113728 -186.243983  L 767.785724 -186.243983  L 767.785724 -182.541338  L 768.457719 -182.541338  L 768.457719 -179.085536  L 769.129715 -179.085536  L 769.129715 -175.860121  L 769.801711 -175.860121  L 769.801711 -172.849734  L 770.473706 -172.849734  L 770.473706 -170.040039  L 771.145702 -170.040039  L 771.145702 -167.417657  L 771.817698 -167.417657  L 771.817698 -164.9701  L 772.489693 -164.9701  L 772.489693 -162.685714  L 773.161689 -162.685714  L 773.161689 -160.553621  L 773.833685 -160.553621  L 773.833685 -158.563667  L 774.50568 -158.563667  L 774.50568 -156.706376  L 775.177676 -156.706376  L 775.177676 -154.972905  L 775.849672 -154.972905  L 775.849672 -153.354999  L 776.521667 -153.354999  L 776.521667 -151.844953  L 777.193663 -151.844953  L 777.193663 -150.435577  L 777.865659 -150.435577  L 777.865659 -149.120159  L 778.537654 -149.120159  L 778.537654 -147.892436  L 779.20965 -147.892436  L 779.20965 -146.746561  L 779.881646 -146.746561  L 779.881646 -145.677078  L 780.553641 -145.677078  L 780.553641 -144.678893  L 781.225637 -144.678893  L 781.225637 -143.747254  L 781.897633 -143.747254  L 781.897633 -142.877725  L 782.569628 -142.877725  L 782.569628 -142.066164  L 783.241624 -142.066164  L 783.241624 -141.308707  L 783.91362 -141.308707  L 783.91362 -140.601747  L 784.585615 -140.601747  L 784.585615 -139.941918  L 785.257611 -139.941918  L 785.257611 -139.326078  L 785.929607 -139.326078  L 785.929607 -138.751293  L 786.601602 -138.751293  L 786.601602 -138.214828  L 787.273598 -138.214828  L 787.273598 -137.714126  L 787.945594 -137.714126  L 787.945594 -137.246805  L 788.617589 -137.246805  L 788.617589 -136.810639  L 789.289585 -136.810639  L 789.289585 -136.403551  L 789.961581 -136.403551  L 789.961581 -136.023601  L 790.633576 -136.023601  L 790.633576 -135.668982  L 791.305572 -135.668982  L 791.305572 -135.338004  L 791.977568 -135.338004  L 791.977568 -135.029091  L 792.649563 -135.029091  L 792.649563 -134.740772  L 793.321559 -134.471675  L 792.649563 -130.704311  L 792.649563 -130.704311  L 791.977568 -130.704311  L 791.977568 -130.704311  L 791.305572 -130.704311  L 791.305572 -130.704311  L 790.633576 -130.704311  L 790.633576 -130.704311  L 789.961581 -130.704311  L 789.961581 -130.704311  L 789.289585 -130.704311  L 789.289585 -130.704311  L 788.617589 -130.704311  L 788.617589 -130.704311  L 787.945594 -130.704311  L 787.945594 -130.704311  L 787.273598 -130.704311  L 787.273598 -130.704311  L 786.601602 -130.704311  L 786.601602 -130.704311  L 785.929607 -130.704311  L 785.929607 -130.704311  L 785.257611 -130.704311  L 785.257611 -130.704311  L 784.585615 -130.704311  L 784.585615 -130.704311  L 783.91362 -130.704311  L 783.91362 -130.704311  L 783.241624 -130.704311  L 783.241624 -130.704311  L 782.569628 -130.704311  L 782.569628 -130.704311  L 781.897633 -130.704311  L 781.897633 -130.704311  L 781.225637 -130.704311  L 781.225637 -130.704311  L 780.553641 -130.704311  L 780.553641 -130.704311  L 779.881646 -130.704311  L 779.881646 -130.704311  L 779.20965 -130.704311  L 779.20965 -130.704311  L 778.537654 -130.704311  L 778.537654 -130.704311  L 777.865659 -130.704311  L 777.865659 -130.704311  L 777.193663 -130.704311  L 777.193663 -130.704311  L 776.521667 -130.704311  L 776.521667 -130.704311  L 775.849672 -130.704311  L 775.849672 -130.704311  L 775.177676 -130.704311  L 775.177676 -130.704311  L 774.50568 -130.704311  L 774.50568 -130.704311  L 773.833685 -130.704311  L 773.833685 -130.704311  L 773.161689 -130.704311  L 773.161689 -130.704311  L 772.489693 -130.704311  L 772.489693 -130.704311  L 771.817698 -130.704311  L 771.817698 -130.704311  L 771.145702 -130.704311  L 771.145702 -130.704311  L 770.473706 -130.704311  L 770.473706 -130.704311  L 769.801711 -130.704311  L 769.801711 -130.704311  L 769.129715 -130.704311  L 769.129715 -130.704311  L 768.457719 -130.704311  L 768.457719 -130.704311  L 767.785724 -130.704311  L 767.785724 -130.704311  L 767.113728 -130.704311  L 767.113728 -130.704311  L 766.441732 -130.704311  L 766.441732 -130.704311  L 765.769737 -130.704311  L 765.769737 -130.704311  L 765.097741 -130.704311  L 765.097741 -130.704311  L 764.425745 -130.704311  L 764.425745 -130.704311  L 763.75375 -130.704311  L 763.75375 -130.704311  L 763.081754 -130.704311  L 763.081754 -130.704311  L 762.409758 -130.704311  L 762.409758 -130.704311  L 761.737763 -130.704311  L 761.737763 -130.704311  L 761.065767 -130.704311  L 761.065767 -130.704311  L 760.393771 -130.704311  L 760.393771 -130.704311  L 759.721776 -130.704311  L 759.721776 -130.704311  L 759.04978 -130.704311  L 759.04978 -130.704311  L 758.377784 -130.704311  L 758.377784 -130.704311  L 757.705789 -130.704311  L 757.705789 -130.704311  L 757.033793 -130.704311  L 757.033793 -130.704311  L 756.361797 -130.704311  L 756.361797 -130.704311  L 755.689802 -130.704311  L 755.689802 -130.704311  L 755.017806 -130.704311  L 755.017806 -130.704311  L 754.34581 -130.704311  L 754.34581 -130.704311  L 753.673815 -130.704311  L 753.673815 -130.704311  L 753.001819 -130.704311  L 753.001819 -130.704311  L 752.329823 -130.704311  L 752.329823 -130.704311  L 751.657828 -130.704311  L 751.657828 -130.704311  L 750.985832 -130.704311  L 750.985832 -130.704311  L 750.313836 -130.704311  L 750.313836 -130.704311  L 749.641841 -130.704311  L 749.641841 -130.704311  L 748.969845 -130.704311  L 748.969845 -130.704311  L 748.297849 -130.704311  L 748.297849 -130.704311  L 747.625854 -130.704311  L 747.625854 -130.704311  L 746.953858 -130.704311  L 746.953858 -130.704311  L 746.281862 -130.704311  L 746.281862 -130.704311  L 745.609867 -130.704311  L 745.609867 -130.704311  L 744.937871 -130.704311  L 744.937871 -130.704311  L 744.265875 -130.704311  L 744.265875 -130.704311  L 743.59388 -130.704311  L 743.59388 -130.704311  L 742.921884 -130.704311  L 742.921884 -130.704311  L 742.249888 -130.704311  L 742.249888 -130.704311  L 741.577893 -130.704311  L 741.577893 -130.704311  L 740.905897 -130.704311  L 740.905897 -130.704311  L 740.233901 -130.704311  L 740.233901 -130.704311  L 739.561906 -130.704311  L 739.561906 -130.704311  L 738.88991 -130.704311  L 738.88991 -130.704311  L 738.217914 -130.704311  L 738.217914 -130.704311  L 737.545919 -130.704311  L 737.545919 -130.704311  L 736.873923 -130.704311  L 736.873923 -130.704311  L 736.201927 -130.704311  L 736.201927 -130.704311  L 735.529932 -130.704311  L 735.529932 -130.704311  L 734.857936 -130.704311  L 734.857936 -130.704311  L 734.18594 -130.704311  L 734.18594 -130.704311  L 733.513945 -130.704311  L 733.513945 -130.704311  L 732.841949 -130.704311  L 732.841949 -130.704311  L 732.169953 -130.704311  L 732.169953 -130.704311  L 731.497958 -130.704311  L 731.497958 -130.704311  L 730.825962 -130.704311  L 730.825962 -130.704311  L 730.153966 -130.704311  L 730.153966 -130.704311  L 729.481971 -130.704311  L 729.481971 -130.704311  L 728.809975 -130.704311  L 728.809975 -130.704311  L 728.137979 -130.704311  L 728.137979 -130.704311  L 727.465984 -130.704311  L 727.465984 -130.704311  L 726.793988 -130.704311  L 726.793988 -130.704311  L 726.121992 -130.704311  L 726.121992 -130.704311  L 725.449997 -130.704311  L 725.449997 -130.704311  L 724.778001 -130.704311  L 724.778001 -130.704311  L 724.106005 -130.704311  L 724.106005 -130.704311  L 723.43401 -130.704311  L 723.43401 -130.704311  L 722.762014 -130.704311  L 722.762014 -130.704311  L 722.090018 -130.704311  L 722.090018 -130.704311  L 721.418023 -130.704311  L 721.418023 -130.704311  L 720.746027 -130.704311  L 720.746027 -130.704311  L 720.074031 -130.704311  L 720.074031 -130.704311  L 719.402036 -130.704311  L 719.402036 -130.704311  L 718.73004 -130.704311  L 718.73004 -130.704311  L 718.058044 -130.704311  L 718.058044 -130.704311  L 717.386049 -130.704311  L 717.386049 -130.704311  L 716.714053 -130.704311  L 716.714053 -130.704311  L 716.042057 -130.704311  L 716.042057 -130.704311  L 715.370062 -130.704311  L 715.370062 -130.704311  L 714.698066 -130.704311  L 714.698066 -130.704311  L 714.02607 -130.704311  L 714.02607 -130.704311  L 713.354075 -130.704311  L 713.354075 -130.704311  L 712.682079 -130.704311  L 712.682079 -130.704311  L 712.010083 -130.704311  L 712.010083 -130.704311  L 711.338088 -130.704311  L 711.338088 -130.704311  L 710.666092 -130.704311  L 710.666092 -130.704311  L 709.994096 -130.704311  L 709.994096 -130.704311  L 709.322101 -130.704311  L 709.322101 -130.704311  L 708.650105 -130.704311  L 708.650105 -130.704311  L 707.978109 -130.704311  L 707.978109 -130.704311  L 707.306114 -130.704311  L 707.306114 -130.704311  L 706.634118 -130.704311  L 706.634118 -130.704311  L 705.962122 -130.704311  L 705.962122 -130.704311  L 705.290127 -130.704311  L 705.290127 -130.704311  L 704.618131 -130.704311  L 704.618131 -130.704311  L 703.946135 -130.704311  L 703.946135 -130.704311  L 703.27414 -130.704311  L 703.27414 -130.704311  L 702.602144 -130.704311  L 702.602144 -130.704311  L 701.930148 -130.704311  L 701.930148 -130.704311  L 701.258153 -130.704311  L 701.258153 -130.704311  L 700.586157 -130.704311  L 700.586157 -130.704311  L 699.914161 -130.704311  L 699.914161 -130.704311  L 699.242166 -130.704311  L 699.242166 -130.704311  L 698.57017 -130.704311  L 698.57017 -130.704311  L 697.898174 -130.704311  L 697.898174 -130.704311  L 697.226179 -130.704311  L 697.226179 -130.704311  L 696.554183 -130.704311  L 696.554183 -130.704311  L 695.882187 -130.704311  L 695.882187 -130.704311  L 695.210192 -130.704311  L 695.210192 -130.704311  L 694.538196 -130.704311  L 694.538196 -130.704311  L 693.8662 -130.704311  L 693.8662 -130.704311  L 693.194205 -130.704311  L 693.194205 -130.704311  L 692.522209 -130.704311  L 692.522209 -130.704311  L 691.850213 -130.704311  L 691.850213 -130.704311  L 691.178218 -130.704311  L 691.178218 -130.704311  L 690.506222 -130.704311  L 690.506222 -130.704311  L 689.834226 -130.704311  L 689.834226 -130.704311  L 689.162231 -130.704311  L 689.162231 -130.704311  L 688.490235 -130.704311  L 688.490235 -130.704311  L 687.81824 -130.704311  L 687.81824 -130.704311  L 687.146244 -130.704311  L 687.146244 -130.704311  L 686.474248 -130.704311  L 686.474248 -130.704311  L 685.802253 -130.704311  L 685.802253 -130.704311  L 685.130257 -130.704311  L 685.130257 -130.704311  L 684.458261 -130.704311  L 684.458261 -130.704311  L 683.786266 -130.704311  L 683.786266 -130.704311  L 683.11427 -130.704311  L 683.11427 -130.704311  L 682.442274 -130.704311  L 682.442274 -130.704311  L 681.770279 -130.704311  z "
             id="m95a2918d3b"
             style="stroke:#06470c;" />
        </defs>
        <g
           clip-path="url(#p7cd4dc4bd9)"
           id="g101">
          <use
             style="fill:#06470c;stroke:#06470c;"
             x="0"
             xlink:href="#m95a2918d3b"
             y="728.107773"
             id="use103" />
        </g>
      </g>
      <g
         id="line2d_8">
        <path
           clip-path="url(#p7cd4dc4bd9)"
           d="M 607.850755 597.403463  L 755.017806 597.403463  L 757.705789 567.614756  L 760.393771 540.138601  L 763.081754 514.795471  L 765.769737 491.419774  L 768.457719 469.858776  L 771.145702 449.971598  L 773.833685 431.628298  L 776.521667 414.709022  L 779.20965 399.10322  L 781.897633 384.708926  L 784.585615 371.432087  L 787.273598 359.185954  L 789.961581 347.890511  L 792.649563 337.471953  L 795.337546 327.862208  L 798.025528 318.998484  L 800.713511 310.822868  L 803.401494 303.28194  L 806.089476 296.326428  L 808.777459 289.910885  L 811.465442 283.993393  L 814.153424 278.535286  L 816.841407 273.500902  L 819.52939 268.857347  L 822.217372 264.57428  L 824.905355 290.412422  L 827.593338 314.244701  L 830.28132 336.226837  L 832.969303 356.502459  L 835.657286 375.204047  L 838.345268 392.453796  L 841.033251 408.364416  L 843.721234 423.039865  L 846.409216 436.576032  L 849.097199 449.061361  L 851.785182 460.577432  L 854.473164 471.199488  L 857.161147 480.996935  L 859.84913 490.033788  L 862.537112 498.369093  L 865.225095 506.057314  L 867.913078 513.148683  L 870.60106 519.689537  L 873.289043 525.722612  L 875.977026 531.287328  L 878.665008 536.420045  L 881.352991 541.1543  L 884.040974 545.521026  L 887.400952 550.505849  L 890.76093 555.011735  L 894.120909 559.084698  L 897.480887 562.766335  L 900.840865 566.094242  L 904.200843 569.102407  L 907.560822 571.82155  L 910.9208 574.27944  L 914.280778 576.501178  L 918.312752 578.887333  L 922.344726 581.00109  L 926.3767 582.873546  L 931.08067 584.789671  L 935.78464 586.453108  L 940.488609 587.89718  L 945.864575 589.315869  L 951.912536 590.66045  L 957.960497 591.781491  L 964.680453 592.809902  L 972.072406 593.725255  L 976.776375 594.210317  L 976.776375 594.210317  "
           style="fill:none;stroke:#000000;stroke-linecap:round;stroke-width:4;"
           id="path106" />
      </g>
      <g
         id="line2d_9">
        <path
           clip-path="url(#p7cd4dc4bd9)"
           d="M 607.850755 597.403463  L 681.098283 597.403463  L 682.442274 547.946522  L 683.786266 504.864031  L 685.130257 467.334394  L 686.474248 434.641911  L 687.81824 406.163125  L 689.162231 381.354939  L 690.506222 359.744252  L 691.850213 340.918942  L 693.194205 324.520006  L 694.538196 310.23471  L 695.882187 297.79063  L 697.226179 286.950454  L 698.57017 277.507456  L 699.914161 269.281556  L 701.258153 262.115883  L 702.602144 255.873785  L 703.946135 250.436225  L 705.290127 245.699505  L 706.634118 241.573297  L 707.978109 237.97891  L 709.322101 234.8478  L 710.666092 232.120256  L 712.010083 229.744261  L 713.354075 227.674506  L 715.370062 225.059139  L 717.386049 222.932749  L 719.402036 221.203915  L 721.418023 219.798309  L 723.43401 218.655499  L 725.449997 217.726352  L 728.137979 216.751914  L 730.825962 216.012477  L 734.18594 215.333664  L 738.217914 214.775091  L 742.921884 214.357856  L 748.297849 214.072797  L 749.641841 263.47986  L 750.985832 306.518902  L 752.329823 344.01069  L 753.673815 376.670203  L 755.017806 405.120268  L 756.361797 429.903435  L 757.705789 451.492327  L 759.04978 470.298652  L 760.393771 486.681049  L 761.737763 500.951938  L 763.081754 513.383468  L 764.425745 524.212712  L 765.769737 533.646186  L 767.113728 541.863791  L 768.457719 549.022238  L 769.801711 555.25804  L 771.145702 560.690117  L 772.489693 565.422059  L 773.833685 569.544107  L 775.177676 573.134868  L 776.521667 576.26282  L 777.865659 578.987614  L 779.20965 581.361212  L 780.553641 583.42888  L 782.569628 586.04161  L 784.585615 588.165855  L 786.601602 589.892946  L 788.617589 591.297134  L 790.633576 592.438792  L 792.649563 593.367001  L 795.337546 594.340456  L 798.025528 595.079148  L 801.385507 595.757277  L 805.417481 596.315286  L 810.12145 596.7321  L 816.169411 597.042645  L 824.905355 597.256311  L 840.361255 597.37336  L 887.400952 597.403222  L 976.776375 597.403463  L 976.776375 597.403463  "
           style="fill:none;stroke:#000000;stroke-dasharray:14.8,6.4;stroke-dashoffset:0;stroke-width:4;"
           id="path109" />
      </g>
      <g
         id="line2d_10">
        <defs
           id="defs112">
          <path
             d="M -20 20  L 20 20  L 20 -20  L -20 -20  z "
             id="mb02cf0b52a"
             style="stroke:#06470c;stroke-linejoin:miter;" />
        </defs>
        <g
           clip-path="url(#p7cd4dc4bd9)"
           id="g115">
          <use
             style="fill:#06470c;stroke:#06470c;stroke-linejoin:miter;"
             x="809.449455"
             xlink:href="#mb02cf0b52a"
             y="654.96111"
             id="use117" />
        </g>
      </g>
      <g
         id="text_4">
        <!-- $w_{12} \propto $ -->
        <g
           style="fill:#262626;"
           transform="translate(641.450539 674.146992)scale(0.5 -0.5)"
           id="g120">
          <use
             transform="translate(0 0.3125)"
             xlink:href="#DejaVuSans-Oblique-77"
             id="use122" />
          <use
             transform="matrix(0.7,0,0,0.7,69.376211,-35.274229)"
             xlink:href="#DejaVuSans-31"
             id="use124"
             style="stroke-linecap:butt;stroke-linejoin:round"
             x="0"
             y="0"
             width="1008.4227"
             height="728.10779" />
          <use
             transform="matrix(0.7,0,0,0.7,107.7069,-37.812821)"
             xlink:href="#DejaVuSans-32"
             id="use126"
             style="stroke-linecap:butt;stroke-linejoin:round"
             x="0"
             y="0"
             width="1008.4227"
             height="728.10779" />
          <use
             transform="translate(193.076172 0.3125)"
             xlink:href="#DejaVuSans-221d"
             id="use128" />
          <use
             style="fill:#262626;stroke-linecap:butt;stroke-linejoin:round"
             transform="translate(-80.272116,1044.0336)"
             xlink:href="#DejaVuSans-Oblique-77"
             id="use122-9"
             x="0"
             y="0"
             width="1"
             height="1" />
          <use
             transform="matrix(0.7,0,0,0.7,-10.895887,1008.4469)"
             xlink:href="#DejaVuSans-31"
             id="use124-2"
             style="fill:#262626;stroke-linecap:butt;stroke-linejoin:round"
             x="0"
             y="0"
             width="1008.4227"
             height="728.10779" />
          <use
             transform="matrix(0.7,0,0,0.7,27.434805,1005.9083)"
             xlink:href="#DejaVuSans-32"
             id="use126-0"
             style="fill:#262626;stroke-linecap:butt;stroke-linejoin:round"
             x="0"
             y="0"
             width="1008.4227"
             height="728.10779" />
        </g>
      </g>
    </g>
    <g
       id="g5238"
       style="fill:#8f1402;fill-opacity:1;stroke:none">
      <path
         style="font-size:medium;font-style:normal;font-variant:normal;font-weight:normal;font-stretch:normal;text-indent:0;text-align:start;text-decoration:none;line-height:normal;letter-spacing:normal;word-spacing:normal;text-transform:none;direction:ltr;block-progression:tb;writing-mode:lr-tb;text-anchor:start;baseline-shift:baseline;color:#000000;fill:#8f1402;fill-opacity:1;stroke:none;stroke-width:10;marker:none;visibility:visible;display:inline;overflow:visible;enable-background:accumulate;font-family:Sans;-inkscape-font-specification:Sans"
         d="m 481.125,162.34998 c 0,0 -29.08299,30.3165 -46.15,65.1 -8.5335,17.39174 -14.24094,36.03236 -11.175,53.075 3.06594,17.04264 15.55168,31.79296 40.675,39.85 l 2.425,-7.6 c -23.25098,-7.45658 -32.65845,-19.40833 -35.225,-33.675 -2.56655,-14.26667 2.35636,-31.52781 10.5,-48.125 16.28729,-33.19438 44.75,-63.1 44.75,-63.1 l -5.8,-5.525 z"
         id="path5048"
         inkscape:connector-curvature="0" />
      <path
         style="fill-rule:evenodd;stroke:none;stroke-width:0.59999999999999998pt;stroke-linecap:butt;stroke-linejoin:round;fill:#8f1402;fill-opacity:1"
         d="m 464.04595,315.81589 c -4.04567,12.61515 2.90926,26.13698 15.52441,30.18266 l 14.65825,-45.70707 c -12.61515,-4.04567 -26.13698,2.90926 -30.18266,15.52441 z"
         id="path5244"
         inkscape:connector-curvature="0" />
    </g>
    <path
       sodipodi:end="12.480174"
       sodipodi:start="6.1980484"
       transform="matrix(0.8,0,0,0.8,-3.191211,101.58121)"
       d="m 728.75386,288.23532 a 65.818726,65.818726 0 1 1 -0.006,-0.0695"
       sodipodi:ry="65.818726"
       sodipodi:rx="65.818726"
       sodipodi:cy="293.83215"
       sodipodi:cx="663.17352"
       id="path3997"
       style="fill:#ffffff;stroke:#000000;stroke-width:2;stroke-linecap:butt;stroke-linejoin:miter;stroke-miterlimit:4;stroke-opacity:1;stroke-dasharray:none;stroke-dashoffset:0"
       sodipodi:type="arc"
       sodipodi:open="true" />
    <g
       id="g5246"
       style="fill:#06470c;fill-opacity:1">
      <path
         style="font-size:medium;font-style:normal;font-variant:normal;font-weight:normal;font-stretch:normal;text-indent:0;text-align:start;text-decoration:none;line-height:normal;letter-spacing:normal;word-spacing:normal;text-transform:none;direction:ltr;block-progression:tb;writing-mode:lr-tb;text-anchor:start;baseline-shift:baseline;color:#000000;fill:#06470c;fill-opacity:1;stroke:none;stroke-width:8;marker:none;visibility:visible;display:inline;overflow:visible;enable-background:accumulate;font-family:Sans;-inkscape-font-specification:Sans"
         d="m 590.28125,152.5 -2.4375,7.59375 c 23.25098,7.45658 32.6522,19.38958 35.21875,33.65625 2.56655,14.26667 -2.32511,31.55906 -10.46875,48.15625 C 596.30646,275.10063 567.84375,305 567.84375,305 l 5.78125,5.53125 c 0,0 29.08924,-30.31026 46.15625,-65.09375 8.5335,-17.39175 14.2222,-36.05111 11.15625,-53.09375 C 627.87155,175.30111 615.40457,160.55704 590.28125,152.5 z"
         id="path5236"
         inkscape:connector-curvature="0" />
      <path
         style="fill-rule:evenodd;stroke:#000000;stroke-width:0.59999999999999998pt;stroke-linecap:butt;stroke-linejoin:round;fill:#06470c;fill-opacity:1"
         d="m 590.70723,157.0543 c 4.04568,-12.61515 -2.90926,-26.13698 -15.52441,-30.18266 l -14.65824,45.70707 c 12.61515,4.04567 26.13698,-2.90926 30.18265,-15.52441 z"
         id="path5252"
         inkscape:connector-curvature="0" />
    </g>
    <path
       sodipodi:type="arc"
       style="fill:#ffffff;stroke:#000000;stroke-width:2;stroke-linecap:butt;stroke-linejoin:miter;stroke-miterlimit:4;stroke-opacity:1;stroke-dasharray:none;stroke-dashoffset:0"
       id="path3171"
       sodipodi:cx="663.17352"
       sodipodi:cy="293.83215"
       sodipodi:rx="65.818726"
       sodipodi:ry="65.818726"
       d="m 728.60964,286.74558 a 65.818726,65.818726 0 1 1 -0.0397,-0.35773"
       transform="matrix(0.8,0,0,0.8,-3.191211,-98.41879)"
       sodipodi:start="6.1753081"
       sodipodi:end="12.453025"
       sodipodi:open="true" />
    <text
       xml:space="preserve"
       style="font-size:32px;font-style:normal;font-variant:normal;font-weight:normal;font-stretch:normal;text-align:start;line-height:125%;letter-spacing:0px;word-spacing:0px;writing-mode:lr-tb;text-anchor:start;fill:#000000;fill-opacity:1;stroke:none;font-family:Sans;-inkscape-font-specification:Sans"
       x="516.74463"
       y="144.23146"
       id="text3999"
       sodipodi:linespacing="125%"><tspan
         sodipodi:role="line"
         id="tspan4001"
         x="516.74463"
         y="144.23146">1</tspan></text>
    <text
       xml:space="preserve"
       style="font-size:32px;font-style:normal;font-variant:normal;font-weight:normal;font-stretch:normal;text-align:start;line-height:125%;letter-spacing:0px;word-spacing:0px;writing-mode:lr-tb;text-anchor:start;fill:#000000;fill-opacity:1;stroke:none;font-family:Sans;-inkscape-font-specification:Sans"
       x="518.69464"
       y="348.26443"
       id="text3999-6"
       sodipodi:linespacing="125%"><tspan
         sodipodi:role="line"
         id="tspan4001-7"
         x="518.69464"
         y="348.26443">2</tspan></text>
    <text
       xml:space="preserve"
       style="font-size:32px;font-style:normal;font-variant:normal;font-weight:normal;font-stretch:normal;text-align:start;line-height:125%;letter-spacing:0px;word-spacing:0px;writing-mode:lr-tb;text-anchor:start;fill:#000000;fill-opacity:1;stroke:none;font-family:Sans;-inkscape-font-specification:Sans"
       x="231.55159"
       y="419.34503"
       id="text3999-5"
       sodipodi:linespacing="125%"><tspan
         sodipodi:role="line"
         id="tspan4001-3"
         x="231.55159"
         y="419.34503">1</tspan></text>
    <text
       xml:space="preserve"
       style="font-size:32px;font-style:normal;font-variant:normal;font-weight:normal;font-stretch:normal;text-align:start;line-height:125%;letter-spacing:0px;word-spacing:0px;writing-mode:lr-tb;text-anchor:start;fill:#000000;fill-opacity:1;stroke:none;font-family:Sans;-inkscape-font-specification:Sans"
       x="712.75592"
       y="441.34616"
       id="text3999-56"
       sodipodi:linespacing="125%"><tspan
         sodipodi:role="line"
         id="tspan4001-2"
         x="712.75592"
         y="441.34616">1</tspan></text>
    <text
       xml:space="preserve"
       style="font-size:32px;font-style:normal;font-variant:normal;font-weight:normal;font-stretch:normal;text-align:start;line-height:125%;letter-spacing:0px;word-spacing:0px;writing-mode:lr-tb;text-anchor:start;fill:#000000;fill-opacity:1;stroke:none;font-family:Sans;-inkscape-font-specification:Sans"
       x="300.52243"
       y="418.99185"
       id="text3999-6-9"
       sodipodi:linespacing="125%"><tspan
         sodipodi:role="line"
         id="tspan4001-7-1"
         x="300.52243"
         y="418.99185">2</tspan></text>
    <text
       xml:space="preserve"
       style="font-size:32px;font-style:normal;font-variant:normal;font-weight:normal;font-stretch:normal;text-align:start;line-height:125%;letter-spacing:0px;word-spacing:0px;writing-mode:lr-tb;text-anchor:start;fill:#000000;fill-opacity:1;stroke:none;font-family:Sans;-inkscape-font-specification:Sans"
       x="799.77905"
       y="440.42886"
       id="text3999-6-2"
       sodipodi:linespacing="125%"><tspan
         sodipodi:role="line"
         id="tspan4001-7-7"
         x="799.77905"
         y="440.42886">2</tspan></text>
  </g>
  <defs
     id="defs130">
    <clipPath
       id="pb43f70af2b">
      <rect
         height="652.32"
         width="405.818182"
         x="102.422656"
         y="21.826992"
         id="rect133" />
    </clipPath>
    <clipPath
       id="p7cd4dc4bd9">
      <rect
         height="652.32"
         width="405.818182"
         x="589.404474"
         y="21.826992"
         id="rect136" />
    </clipPath>
  </defs>
</svg>
