<?xml version="1.0" encoding="utf-8" standalone="no"?>
<!DOCTYPE svg PUBLIC "-//W3C//DTD SVG 1.1//EN"
  "http://www.w3.org/Graphics/SVG/1.1/DTD/svg11.dtd">
<!-- Created with matplotlib (https://matplotlib.org/) -->
<svg height="546.688906pt" version="1.1" viewBox="0 0 839.327621 546.688906" width="839.327621pt" xmlns="http://www.w3.org/2000/svg" xmlns:xlink="http://www.w3.org/1999/xlink">
 <defs>
  <style type="text/css">
*{stroke-linecap:butt;stroke-linejoin:round;}
  </style>
 </defs>
 <g id="figure_1">
  <g id="patch_1">
   <path d="M 0 546.688906 
L 839.327621 546.688906 
L 839.327621 0 
L 0 0 
z
" style="fill:none;"/>
  </g>
  <g id="axes_1">
   <g id="patch_2">
    <path d="M 150.102656 448.08 
L 819.702656 448.08 
L 819.702656 13.2 
L 150.102656 13.2 
z
" style="fill:none;"/>
   </g>
   <g id="matplotlib.axis_1">
    <g id="xtick_1">
     <g id="text_1">
      <!-- 0.25 -->
      <defs>
       <path d="M 31.78125 66.40625 
Q 24.171875 66.40625 20.328125 58.90625 
Q 16.5 51.421875 16.5 36.375 
Q 16.5 21.390625 20.328125 13.890625 
Q 24.171875 6.390625 31.78125 6.390625 
Q 39.453125 6.390625 43.28125 13.890625 
Q 47.125 21.390625 47.125 36.375 
Q 47.125 51.421875 43.28125 58.90625 
Q 39.453125 66.40625 31.78125 66.40625 
z
M 31.78125 74.21875 
Q 44.046875 74.21875 50.515625 64.515625 
Q 56.984375 54.828125 56.984375 36.375 
Q 56.984375 17.96875 50.515625 8.265625 
Q 44.046875 -1.421875 31.78125 -1.421875 
Q 19.53125 -1.421875 13.0625 8.265625 
Q 6.59375 17.96875 6.59375 36.375 
Q 6.59375 54.828125 13.0625 64.515625 
Q 19.53125 74.21875 31.78125 74.21875 
z
" id="DejaVuSans-48"/>
       <path d="M 10.6875 12.40625 
L 21 12.40625 
L 21 0 
L 10.6875 0 
z
" id="DejaVuSans-46"/>
       <path d="M 19.1875 8.296875 
L 53.609375 8.296875 
L 53.609375 0 
L 7.328125 0 
L 7.328125 8.296875 
Q 12.9375 14.109375 22.625 23.890625 
Q 32.328125 33.6875 34.8125 36.53125 
Q 39.546875 41.84375 41.421875 45.53125 
Q 43.3125 49.21875 43.3125 52.78125 
Q 43.3125 58.59375 39.234375 62.25 
Q 35.15625 65.921875 28.609375 65.921875 
Q 23.96875 65.921875 18.8125 64.3125 
Q 13.671875 62.703125 7.8125 59.421875 
L 7.8125 69.390625 
Q 13.765625 71.78125 18.9375 73 
Q 24.125 74.21875 28.421875 74.21875 
Q 39.75 74.21875 46.484375 68.546875 
Q 53.21875 62.890625 53.21875 53.421875 
Q 53.21875 48.921875 51.53125 44.890625 
Q 49.859375 40.875 45.40625 35.40625 
Q 44.1875 33.984375 37.640625 27.21875 
Q 31.109375 20.453125 19.1875 8.296875 
z
" id="DejaVuSans-50"/>
       <path d="M 10.796875 72.90625 
L 49.515625 72.90625 
L 49.515625 64.59375 
L 19.828125 64.59375 
L 19.828125 46.734375 
Q 21.96875 47.46875 24.109375 47.828125 
Q 26.265625 48.1875 28.421875 48.1875 
Q 40.625 48.1875 47.75 41.5 
Q 54.890625 34.8125 54.890625 23.390625 
Q 54.890625 11.625 47.5625 5.09375 
Q 40.234375 -1.421875 26.90625 -1.421875 
Q 22.3125 -1.421875 17.546875 -0.640625 
Q 12.796875 0.140625 7.71875 1.703125 
L 7.71875 11.625 
Q 12.109375 9.234375 16.796875 8.0625 
Q 21.484375 6.890625 26.703125 6.890625 
Q 35.15625 6.890625 40.078125 11.328125 
Q 45.015625 15.765625 45.015625 23.390625 
Q 45.015625 31 40.078125 35.4375 
Q 35.15625 39.890625 26.703125 39.890625 
Q 22.75 39.890625 18.8125 39.015625 
Q 14.890625 38.140625 10.796875 36.28125 
z
" id="DejaVuSans-53"/>
      </defs>
      <g style="fill:#262626;" transform="translate(265.830802 486.833984)scale(0.385 -0.385)">
       <use xlink:href="#DejaVuSans-48"/>
       <use x="63.623047" xlink:href="#DejaVuSans-46"/>
       <use x="95.410156" xlink:href="#DejaVuSans-50"/>
       <use x="159.033203" xlink:href="#DejaVuSans-53"/>
      </g>
     </g>
    </g>
    <g id="xtick_2">
     <g id="text_2">
      <!-- 0.50 -->
      <g style="fill:#262626;" transform="translate(426.022189 486.833984)scale(0.385 -0.385)">
       <use xlink:href="#DejaVuSans-48"/>
       <use x="63.623047" xlink:href="#DejaVuSans-46"/>
       <use x="95.410156" xlink:href="#DejaVuSans-53"/>
       <use x="159.033203" xlink:href="#DejaVuSans-48"/>
      </g>
     </g>
    </g>
    <g id="xtick_3">
     <g id="text_3">
      <!-- 0.75 -->
      <defs>
       <path d="M 8.203125 72.90625 
L 55.078125 72.90625 
L 55.078125 68.703125 
L 28.609375 0 
L 18.3125 0 
L 43.21875 64.59375 
L 8.203125 64.59375 
z
" id="DejaVuSans-55"/>
      </defs>
      <g style="fill:#262626;" transform="translate(586.213577 486.833984)scale(0.385 -0.385)">
       <use xlink:href="#DejaVuSans-48"/>
       <use x="63.623047" xlink:href="#DejaVuSans-46"/>
       <use x="95.410156" xlink:href="#DejaVuSans-55"/>
       <use x="159.033203" xlink:href="#DejaVuSans-53"/>
      </g>
     </g>
    </g>
    <g id="xtick_4">
     <g id="text_4">
      <!-- 1.00 -->
      <defs>
       <path d="M 12.40625 8.296875 
L 28.515625 8.296875 
L 28.515625 63.921875 
L 10.984375 60.40625 
L 10.984375 69.390625 
L 28.421875 72.90625 
L 38.28125 72.90625 
L 38.28125 8.296875 
L 54.390625 8.296875 
L 54.390625 0 
L 12.40625 0 
z
" id="DejaVuSans-49"/>
      </defs>
      <g style="fill:#262626;" transform="translate(746.404964 486.833984)scale(0.385 -0.385)">
       <use xlink:href="#DejaVuSans-49"/>
       <use x="63.623047" xlink:href="#DejaVuSans-46"/>
       <use x="95.410156" xlink:href="#DejaVuSans-48"/>
       <use x="159.033203" xlink:href="#DejaVuSans-48"/>
      </g>
     </g>
    </g>
    <g id="text_5">
     <!-- $\sigma$ -->
     <defs>
      <path d="M 34.671875 47.5625 
Q 27.25 47.5625 22.21875 42.1875 
Q 16.890625 36.578125 15.140625 27.296875 
Q 13.1875 17.484375 16.3125 11.8125 
Q 19.390625 6.203125 26.65625 6.203125 
Q 33.84375 6.203125 39.109375 11.859375 
Q 44.4375 17.53125 46.34375 27.296875 
Q 48.046875 36.234375 45.015625 42.1875 
Q 42.1875 47.5625 34.671875 47.5625 
z
M 36.078125 54.734375 
L 65.921875 54.6875 
L 64.15625 45.703125 
L 54.109375 45.703125 
Q 57.90625 38.09375 55.859375 27.296875 
Q 53.21875 13.875 45.0625 6.25 
Q 36.859375 -1.421875 25.140625 -1.421875 
Q 13.375 -1.421875 8.203125 6.25 
Q 3.03125 13.875 5.671875 27.296875 
Q 8.25 40.765625 16.40625 48.390625 
Q 23.1875 54.734375 36.078125 54.734375 
z
" id="DejaVuSans-Oblique-963"/>
     </defs>
     <g style="fill:#262626;" transform="translate(471.462656 530.754219)scale(0.42 -0.42)">
      <use transform="translate(0 0.265625)" xlink:href="#DejaVuSans-Oblique-963"/>
     </g>
    </g>
   </g>
   <g id="matplotlib.axis_2">
    <g id="ytick_1">
     <g id="text_6">
      <!-- 0.05 -->
      <g style="fill:#262626;" transform="translate(54.88 361.144108)scale(0.385 -0.385)">
       <use xlink:href="#DejaVuSans-48"/>
       <use x="63.623047" xlink:href="#DejaVuSans-46"/>
       <use x="95.410156" xlink:href="#DejaVuSans-48"/>
       <use x="159.033203" xlink:href="#DejaVuSans-53"/>
      </g>
     </g>
    </g>
    <g id="ytick_2">
     <g id="text_7">
      <!-- 0.10 -->
      <g style="fill:#262626;" transform="translate(54.88 256.27794)scale(0.385 -0.385)">
       <use xlink:href="#DejaVuSans-48"/>
       <use x="63.623047" xlink:href="#DejaVuSans-46"/>
       <use x="95.410156" xlink:href="#DejaVuSans-49"/>
       <use x="159.033203" xlink:href="#DejaVuSans-48"/>
      </g>
     </g>
    </g>
    <g id="ytick_3">
     <g id="text_8">
      <!-- 0.15 -->
      <g style="fill:#262626;" transform="translate(54.88 151.411772)scale(0.385 -0.385)">
       <use xlink:href="#DejaVuSans-48"/>
       <use x="63.623047" xlink:href="#DejaVuSans-46"/>
       <use x="95.410156" xlink:href="#DejaVuSans-49"/>
       <use x="159.033203" xlink:href="#DejaVuSans-53"/>
      </g>
     </g>
    </g>
    <g id="ytick_4">
     <g id="text_9">
      <!-- 0.20 -->
      <g style="fill:#262626;" transform="translate(54.88 46.545603)scale(0.385 -0.385)">
       <use xlink:href="#DejaVuSans-48"/>
       <use x="63.623047" xlink:href="#DejaVuSans-46"/>
       <use x="95.410156" xlink:href="#DejaVuSans-50"/>
       <use x="159.033203" xlink:href="#DejaVuSans-48"/>
      </g>
     </g>
    </g>
    <g id="text_10">
     <!-- $T_{per}$ -->
     <defs>
      <path d="M 5.90625 72.90625 
L 67.578125 72.90625 
L 66.015625 64.59375 
L 39.984375 64.59375 
L 27.484375 0 
L 17.578125 0 
L 30.078125 64.59375 
L 4.296875 64.59375 
z
" id="DejaVuSans-Oblique-84"/>
      <path d="M 49.609375 33.6875 
Q 49.609375 40.875 46.484375 44.671875 
Q 43.359375 48.484375 37.5 48.484375 
Q 33.5 48.484375 29.859375 46.4375 
Q 26.21875 44.390625 23.390625 40.484375 
Q 20.609375 36.625 18.9375 31.15625 
Q 17.28125 25.6875 17.28125 20.3125 
Q 17.28125 13.484375 20.40625 9.796875 
Q 23.53125 6.109375 29.296875 6.109375 
Q 33.546875 6.109375 37.1875 8.109375 
Q 40.828125 10.109375 43.40625 13.921875 
Q 46.1875 17.921875 47.890625 23.34375 
Q 49.609375 28.765625 49.609375 33.6875 
z
M 21.78125 46.390625 
Q 25.390625 51.125 30.296875 53.5625 
Q 35.203125 56 41.21875 56 
Q 49.609375 56 54.25 50.5 
Q 58.890625 45.015625 58.890625 35.109375 
Q 58.890625 27 56 19.65625 
Q 53.125 12.3125 47.703125 6.5 
Q 44.09375 2.640625 39.546875 0.609375 
Q 35.015625 -1.421875 29.984375 -1.421875 
Q 24.171875 -1.421875 20.21875 1 
Q 16.265625 3.421875 14.3125 8.203125 
L 8.6875 -20.796875 
L -0.296875 -20.796875 
L 14.40625 54.6875 
L 23.390625 54.6875 
z
" id="DejaVuSans-Oblique-112"/>
      <path d="M 48.09375 32.234375 
Q 48.25 33.015625 48.3125 33.84375 
Q 48.390625 34.671875 48.390625 35.5 
Q 48.390625 41.453125 44.890625 44.921875 
Q 41.40625 48.390625 35.40625 48.390625 
Q 28.71875 48.390625 23.578125 44.15625 
Q 18.453125 39.9375 15.828125 32.171875 
z
M 55.90625 25.203125 
L 14.109375 25.203125 
Q 13.8125 23.34375 13.71875 22.265625 
Q 13.625 21.1875 13.625 20.40625 
Q 13.625 13.625 17.796875 9.90625 
Q 21.96875 6.203125 29.59375 6.203125 
Q 35.453125 6.203125 40.671875 7.515625 
Q 45.90625 8.84375 50.390625 11.375 
L 48.6875 2.484375 
Q 43.84375 0.53125 38.6875 -0.4375 
Q 33.546875 -1.421875 28.21875 -1.421875 
Q 16.84375 -1.421875 10.71875 4.015625 
Q 4.59375 9.46875 4.59375 19.484375 
Q 4.59375 28.03125 7.640625 35.375 
Q 10.6875 42.71875 16.609375 48.484375 
Q 20.40625 52.09375 25.65625 54.046875 
Q 30.90625 56 36.8125 56 
Q 46.09375 56 51.578125 50.4375 
Q 57.078125 44.875 57.078125 35.5 
Q 57.078125 33.25 56.78125 30.6875 
Q 56.5 28.125 55.90625 25.203125 
z
" id="DejaVuSans-Oblique-101"/>
      <path d="M 44.578125 46.390625 
Q 43.21875 47.125 41.453125 47.515625 
Q 39.703125 47.90625 37.703125 47.90625 
Q 30.515625 47.90625 25.140625 42.453125 
Q 19.78125 37.015625 18.015625 27.875 
L 12.5 0 
L 3.515625 0 
L 14.203125 54.6875 
L 23.1875 54.6875 
L 21.484375 46.1875 
Q 25.046875 50.921875 30 53.453125 
Q 34.96875 56 40.578125 56 
Q 42.046875 56 43.453125 55.828125 
Q 44.875 55.671875 46.296875 55.28125 
z
" id="DejaVuSans-Oblique-114"/>
     </defs>
     <g style="fill:#262626;" transform="translate(37.86 268.65)rotate(-90)scale(0.42 -0.42)">
      <use transform="translate(0 0.09375)" xlink:href="#DejaVuSans-Oblique-84"/>
      <use transform="translate(61.083984 -16.3125)scale(0.7)" xlink:href="#DejaVuSans-Oblique-112"/>
      <use transform="translate(105.517578 -16.3125)scale(0.7)" xlink:href="#DejaVuSans-Oblique-101"/>
      <use transform="translate(148.583984 -16.3125)scale(0.7)" xlink:href="#DejaVuSans-Oblique-114"/>
     </g>
    </g>
   </g>
   <g id="PolyCollection_1">
    <defs>
     <path d="M 180.53902 -315.524575 
L 180.53902 -290.356695 
L 201.529615 -269.383461 
L 222.520211 -248.410228 
L 243.510807 -219.047701 
L 264.501402 -198.074467 
L 285.491998 -166.614616 
L 306.482594 -147.738706 
L 327.473189 -137.252089 
L 348.463785 -133.057443 
L 369.45438 -128.862796 
L 390.444976 -128.862796 
L 411.435572 -126.765472 
L 432.426167 -126.765472 
L 453.416763 -126.765472 
L 474.407358 -124.668149 
L 495.397954 -124.668149 
L 516.38855 -124.668149 
L 537.379145 -122.570826 
L 558.369741 -122.570826 
L 579.360337 -122.570826 
L 600.350932 -122.570826 
L 621.341528 -122.570826 
L 642.332123 -122.570826 
L 663.322719 -122.570826 
L 684.313315 -122.570826 
L 705.30391 -122.570826 
L 726.294506 -120.473502 
L 747.285101 -122.570826 
L 768.275697 -122.570826 
L 789.266293 -120.473502 
L 789.266293 -149.836029 
L 789.266293 -149.836029 
L 768.275697 -151.933353 
L 747.285101 -151.933353 
L 726.294506 -151.933353 
L 705.30391 -154.030676 
L 684.313315 -154.030676 
L 663.322719 -151.933353 
L 642.332123 -156.128 
L 621.341528 -156.128 
L 600.350932 -160.322646 
L 579.360337 -164.517293 
L 558.369741 -166.614616 
L 537.379145 -166.614616 
L 516.38855 -170.809263 
L 495.397954 -175.00391 
L 474.407358 -175.00391 
L 453.416763 -181.29588 
L 432.426167 -187.58785 
L 411.435572 -195.977144 
L 390.444976 -210.658407 
L 369.45438 -212.75573 
L 348.463785 -221.145024 
L 327.473189 -235.826287 
L 306.482594 -244.739912 
L 285.491998 -256.799521 
L 264.501402 -269.383461 
L 243.510807 -279.870078 
L 222.520211 -296.648665 
L 201.529615 -307.135282 
L 180.53902 -315.524575 
z
" id="m03d41ffc3d" style="stroke:#4c72b0;stroke-opacity:0.3;"/>
    </defs>
    <g clip-path="url(#pc5cab91b20)">
     <use style="fill:#4c72b0;fill-opacity:0.3;stroke:#4c72b0;stroke-opacity:0.3;" x="0" xlink:href="#m03d41ffc3d" y="546.688906"/>
    </g>
   </g>
   <g id="PolyCollection_2">
    <defs>
     <path d="M 180.53902 -388.930893 
L 180.53902 -307.135282 
L 201.529615 -158.225323 
L 222.520211 -133.057443 
L 243.510807 -126.765472 
L 264.501402 -126.765472 
L 285.491998 -124.668149 
L 306.482594 -122.570826 
L 327.473189 -122.570826 
L 348.463785 -122.570826 
L 369.45438 -121.522164 
L 390.444976 -120.473502 
L 411.435572 -120.473502 
L 432.426167 -120.473502 
L 453.416763 -120.473502 
L 474.407358 -120.473502 
L 495.397954 -120.473502 
L 516.38855 -120.473502 
L 537.379145 -120.473502 
L 558.369741 -120.473502 
L 579.360337 -120.473502 
L 600.350932 -118.376179 
L 621.341528 -120.473502 
L 642.332123 -120.473502 
L 663.322719 -120.473502 
L 684.313315 -120.473502 
L 705.30391 -118.376179 
L 726.294506 -120.473502 
L 747.285101 -120.473502 
L 768.275697 -120.473502 
L 789.266293 -118.376179 
L 789.266293 -137.252089 
L 789.266293 -137.252089 
L 768.275697 -137.252089 
L 747.285101 -139.349413 
L 726.294506 -137.252089 
L 705.30391 -139.349413 
L 684.313315 -141.446736 
L 663.322719 -139.349413 
L 642.332123 -139.349413 
L 621.341528 -141.446736 
L 600.350932 -139.349413 
L 579.360337 -141.446736 
L 558.369741 -141.446736 
L 537.379145 -143.544059 
L 516.38855 -143.544059 
L 495.397954 -143.544059 
L 474.407358 -145.641383 
L 453.416763 -145.641383 
L 432.426167 -147.738706 
L 411.435572 -149.836029 
L 390.444976 -152.457684 
L 369.45438 -154.030676 
L 348.463785 -160.322646 
L 327.473189 -164.517293 
L 306.482594 -172.906587 
L 285.491998 -187.58785 
L 264.501402 -206.46376 
L 243.510807 -230.058648 
L 222.520211 -275.675431 
L 201.529615 -328.108516 
L 180.53902 -388.930893 
z
" id="mad60136b6c" style="stroke:#dd8452;stroke-opacity:0.3;"/>
    </defs>
    <g clip-path="url(#pc5cab91b20)">
     <use style="fill:#dd8452;fill-opacity:0.3;stroke:#dd8452;stroke-opacity:0.3;" x="0" xlink:href="#mad60136b6c" y="546.688906"/>
    </g>
   </g>
   <g id="PolyCollection_3">
    <defs>
     <path d="M 180.53902 -513.721634 
L 180.53902 -151.933353 
L 201.529615 -133.057443 
L 222.520211 -126.765472 
L 243.510807 -124.668149 
L 264.501402 -122.570826 
L 285.491998 -122.570826 
L 306.482594 -122.570826 
L 327.473189 -120.473502 
L 348.463785 -120.473502 
L 369.45438 -120.473502 
L 390.444976 -120.473502 
L 411.435572 -120.473502 
L 432.426167 -120.473502 
L 453.416763 -120.473502 
L 474.407358 -120.473502 
L 495.397954 -119.949172 
L 516.38855 -120.473502 
L 537.379145 -120.473502 
L 558.369741 -120.473502 
L 579.360337 -118.376179 
L 600.350932 -120.473502 
L 621.341528 -118.376179 
L 642.332123 -118.376179 
L 663.322719 -118.376179 
L 684.313315 -118.376179 
L 705.30391 -118.376179 
L 726.294506 -118.376179 
L 747.285101 -118.376179 
L 768.275697 -118.376179 
L 789.266293 -118.376179 
L 789.266293 -137.252089 
L 789.266293 -137.252089 
L 768.275697 -137.252089 
L 747.285101 -137.252089 
L 726.294506 -137.252089 
L 705.30391 -137.252089 
L 684.313315 -137.252089 
L 663.322719 -137.252089 
L 642.332123 -137.252089 
L 621.341528 -137.252089 
L 600.350932 -139.349413 
L 579.360337 -137.252089 
L 558.369741 -139.349413 
L 537.379145 -139.349413 
L 516.38855 -139.349413 
L 495.397954 -139.349413 
L 474.407358 -141.446736 
L 453.416763 -141.446736 
L 432.426167 -141.446736 
L 411.435572 -141.446736 
L 390.444976 -145.641383 
L 369.45438 -145.641383 
L 348.463785 -147.738706 
L 327.473189 -149.836029 
L 306.482594 -154.030676 
L 285.491998 -160.322646 
L 264.501402 -172.906587 
L 243.510807 -187.58785 
L 222.520211 -233.728964 
L 201.529615 -315.524575 
L 180.53902 -513.721634 
z
" id="m654ba71b6f" style="stroke:#55a868;stroke-opacity:0.3;"/>
    </defs>
    <g clip-path="url(#pc5cab91b20)">
     <use style="fill:#55a868;fill-opacity:0.3;stroke:#55a868;stroke-opacity:0.3;" x="0" xlink:href="#m654ba71b6f" y="546.688906"/>
    </g>
   </g>
   <g id="line2d_1">
    <path clip-path="url(#pc5cab91b20)" d="M 180.53902 246.195148 
L 201.529615 266.32386 
L 222.520211 284.142719 
L 243.510807 307.326532 
L 264.501402 317.585239 
L 285.491998 332.978195 
L 306.482594 343.835339 
L 327.473189 354.161161 
L 348.463785 361.591278 
L 369.45438 369.600257 
L 390.444976 372.282034 
L 411.435572 380.153988 
L 432.426167 383.533475 
L 453.416763 387.591097 
L 474.407358 391.377465 
L 495.397954 391.480933 
L 516.38855 393.484575 
L 537.379145 397.154891 
L 558.369741 396.59141 
L 579.360337 398.302826 
L 600.350932 400.868552 
L 621.341528 402.20245 
L 642.332123 402.391209 
L 663.322719 404.389259 
L 684.313315 403.569904 
L 705.30391 404.17673 
L 726.294506 405.577742 
L 747.285101 405.559565 
L 768.275697 406.192957 
L 789.266293 405.958057 
" style="fill:none;stroke:#4c72b0;stroke-linecap:round;stroke-width:10;"/>
   </g>
   <g id="line2d_2">
    <path clip-path="url(#pc5cab91b20)" d="M 180.53902 223.118998 
L 201.529615 288.808564 
L 222.520211 331.662474 
L 243.510807 359.583441 
L 264.501402 373.002115 
L 285.491998 384.604508 
L 306.482594 392.600903 
L 327.473189 396.353714 
L 348.463785 400.107296 
L 369.45438 403.333732 
L 390.444976 403.890686 
L 411.435572 404.837546 
L 432.426167 407.353485 
L 453.416763 408.7251 
L 474.407358 408.678866 
L 495.397954 409.643753 
L 516.38855 410.612716 
L 537.379145 408.60348 
L 558.369741 410.608522 
L 579.360337 412.689066 
L 600.350932 413.060992 
L 621.341528 412.901595 
L 642.332123 411.955003 
L 663.322719 412.649916 
L 684.313315 412.052878 
L 705.30391 413.792259 
L 726.294506 413.074974 
L 747.285101 413.776878 
L 768.275697 413.550367 
L 789.266293 413.47766 
" style="fill:none;stroke:#dd8452;stroke-linecap:round;stroke-width:10;"/>
   </g>
   <g id="line2d_3">
    <path clip-path="url(#pc5cab91b20)" d="M 180.53902 180.501169 
L 201.529615 309.260264 
L 222.520211 355.358033 
L 243.510807 380.005777 
L 264.501402 391.462756 
L 285.491998 398.30939 
L 306.482594 402.226567 
L 327.473189 405.49486 
L 348.463785 407.284744 
L 369.45438 409.641056 
L 390.444976 409.913673 
L 411.435572 411.227456 
L 432.426167 410.09144 
L 453.416763 410.515038 
L 474.407358 412.161653 
L 495.397954 412.697762 
L 516.38855 408.674663 
L 537.379145 411.661548 
L 558.369741 411.79281 
L 579.360337 412.82749 
L 600.350932 412.777154 
L 621.341528 413.502742 
L 642.332123 414.396288 
L 663.322719 414.824142 
L 684.313315 414.798974 
L 705.30391 415.394614 
L 726.294506 414.463402 
L 747.285101 414.994724 
L 768.275697 415.296738 
L 789.266293 415.074422 
" style="fill:none;stroke:#55a868;stroke-linecap:round;stroke-width:10;"/>
   </g>
   <g id="line2d_4">
    <path clip-path="url(#pc5cab91b20)" d="M 150.102656 430.410051 
L 819.702656 430.410051 
" style="fill:none;stroke:#ff0000;stroke-dasharray:5.55,2.4;stroke-dashoffset:0;stroke-width:1.5;"/>
   </g>
   <g id="patch_3">
    <path d="M 150.102656 448.08 
L 150.102656 13.2 
" style="fill:none;stroke:#cccccc;stroke-linecap:square;stroke-linejoin:miter;stroke-width:1.25;"/>
   </g>
   <g id="patch_4">
    <path d="M 819.702656 448.08 
L 819.702656 13.2 
" style="fill:none;stroke:#cccccc;stroke-linecap:square;stroke-linejoin:miter;stroke-width:1.25;"/>
   </g>
   <g id="patch_5">
    <path d="M 150.102656 448.08 
L 819.702656 448.08 
" style="fill:none;stroke:#cccccc;stroke-linecap:square;stroke-linejoin:miter;stroke-width:1.25;"/>
   </g>
   <g id="patch_6">
    <path d="M 150.102656 13.2 
L 819.702656 13.2 
" style="fill:none;stroke:#cccccc;stroke-linecap:square;stroke-linejoin:miter;stroke-width:1.25;"/>
   </g>
   <g id="legend_1">
    <g id="line2d_5">
     <path d="M 439.707656 63.628984 
L 516.707656 63.628984 
" style="fill:none;stroke:#4c72b0;stroke-linecap:round;stroke-width:10;"/>
    </g>
    <g id="line2d_6"/>
    <g id="text_11">
     <!-- $\tau_{z_{pre}}$ = 0.025 -->
     <defs>
      <path d="M 32.859375 9.96875 
Q 34.1875 7.625 39.453125 7.625 
L 43.75 7.625 
L 42.28125 0 
L 36.921875 0 
Q 28.125 0 25 4.6875 
Q 21.921875 9.46875 23.96875 19.828125 
L 29 45.703125 
L 8.453125 45.703125 
L 10.203125 54.6875 
L 60.640625 54.6875 
L 58.890625 45.703125 
L 38.1875 45.703125 
L 33.015625 19.28125 
Q 31.640625 12.203125 32.859375 9.96875 
z
" id="DejaVuSans-Oblique-964"/>
      <path d="M 11.625 54.6875 
L 54.296875 54.6875 
L 52.6875 46.484375 
L 11.53125 7.171875 
L 45.515625 7.171875 
L 44.09375 0 
L -0.296875 0 
L 1.3125 8.203125 
L 42.484375 47.515625 
L 10.203125 47.515625 
z
" id="DejaVuSans-Oblique-122"/>
      <path id="DejaVuSans-32"/>
      <path d="M 10.59375 45.40625 
L 73.1875 45.40625 
L 73.1875 37.203125 
L 10.59375 37.203125 
z
M 10.59375 25.484375 
L 73.1875 25.484375 
L 73.1875 17.1875 
L 10.59375 17.1875 
z
" id="DejaVuSans-61"/>
     </defs>
     <g style="fill:#262626;" transform="translate(547.507656 77.103984)scale(0.385 -0.385)">
      <use transform="translate(0 0.78125)" xlink:href="#DejaVuSans-Oblique-964"/>
      <use transform="translate(60.205078 -15.625)scale(0.7)" xlink:href="#DejaVuSans-Oblique-122"/>
      <use transform="translate(96.948242 -27.109375)scale(0.49)" xlink:href="#DejaVuSans-Oblique-112"/>
      <use transform="translate(128.051758 -27.109375)scale(0.49)" xlink:href="#DejaVuSans-Oblique-114"/>
      <use transform="translate(148.197266 -27.109375)scale(0.49)" xlink:href="#DejaVuSans-Oblique-101"/>
      <use transform="translate(182.992188 0.78125)" xlink:href="#DejaVuSans-32"/>
      <use transform="translate(214.779297 0.78125)" xlink:href="#DejaVuSans-61"/>
      <use transform="translate(298.568359 0.78125)" xlink:href="#DejaVuSans-32"/>
      <use transform="translate(330.355469 0.78125)" xlink:href="#DejaVuSans-48"/>
      <use transform="translate(393.978516 0.78125)" xlink:href="#DejaVuSans-46"/>
      <use transform="translate(425.765625 0.78125)" xlink:href="#DejaVuSans-48"/>
      <use transform="translate(489.388672 0.78125)" xlink:href="#DejaVuSans-50"/>
      <use transform="translate(553.011719 0.78125)" xlink:href="#DejaVuSans-53"/>
     </g>
    </g>
    <g id="line2d_7">
     <path d="M 439.707656 127.147969 
L 516.707656 127.147969 
" style="fill:none;stroke:#dd8452;stroke-linecap:round;stroke-width:10;"/>
    </g>
    <g id="line2d_8"/>
    <g id="text_12">
     <!-- $\tau_{z_{pre}}$ = 0.075 -->
     <g style="fill:#262626;" transform="translate(547.507656 140.622969)scale(0.385 -0.385)">
      <use transform="translate(0 0.78125)" xlink:href="#DejaVuSans-Oblique-964"/>
      <use transform="translate(60.205078 -15.625)scale(0.7)" xlink:href="#DejaVuSans-Oblique-122"/>
      <use transform="translate(96.948242 -27.109375)scale(0.49)" xlink:href="#DejaVuSans-Oblique-112"/>
      <use transform="translate(128.051758 -27.109375)scale(0.49)" xlink:href="#DejaVuSans-Oblique-114"/>
      <use transform="translate(148.197266 -27.109375)scale(0.49)" xlink:href="#DejaVuSans-Oblique-101"/>
      <use transform="translate(182.992188 0.78125)" xlink:href="#DejaVuSans-32"/>
      <use transform="translate(214.779297 0.78125)" xlink:href="#DejaVuSans-61"/>
      <use transform="translate(298.568359 0.78125)" xlink:href="#DejaVuSans-32"/>
      <use transform="translate(330.355469 0.78125)" xlink:href="#DejaVuSans-48"/>
      <use transform="translate(393.978516 0.78125)" xlink:href="#DejaVuSans-46"/>
      <use transform="translate(425.765625 0.78125)" xlink:href="#DejaVuSans-48"/>
      <use transform="translate(489.388672 0.78125)" xlink:href="#DejaVuSans-55"/>
      <use transform="translate(553.011719 0.78125)" xlink:href="#DejaVuSans-53"/>
     </g>
    </g>
    <g id="line2d_9">
     <path d="M 439.707656 190.666953 
L 516.707656 190.666953 
" style="fill:none;stroke:#55a868;stroke-linecap:round;stroke-width:10;"/>
    </g>
    <g id="line2d_10"/>
    <g id="text_13">
     <!-- $\tau_{z_{pre}}$ = 0.125 -->
     <g style="fill:#262626;" transform="translate(547.507656 204.141953)scale(0.385 -0.385)">
      <use transform="translate(0 0.78125)" xlink:href="#DejaVuSans-Oblique-964"/>
      <use transform="translate(60.205078 -15.625)scale(0.7)" xlink:href="#DejaVuSans-Oblique-122"/>
      <use transform="translate(96.948242 -27.109375)scale(0.49)" xlink:href="#DejaVuSans-Oblique-112"/>
      <use transform="translate(128.051758 -27.109375)scale(0.49)" xlink:href="#DejaVuSans-Oblique-114"/>
      <use transform="translate(148.197266 -27.109375)scale(0.49)" xlink:href="#DejaVuSans-Oblique-101"/>
      <use transform="translate(182.992188 0.78125)" xlink:href="#DejaVuSans-32"/>
      <use transform="translate(214.779297 0.78125)" xlink:href="#DejaVuSans-61"/>
      <use transform="translate(298.568359 0.78125)" xlink:href="#DejaVuSans-32"/>
      <use transform="translate(330.355469 0.78125)" xlink:href="#DejaVuSans-48"/>
      <use transform="translate(393.978516 0.78125)" xlink:href="#DejaVuSans-46"/>
      <use transform="translate(425.765625 0.78125)" xlink:href="#DejaVuSans-49"/>
      <use transform="translate(489.388672 0.78125)" xlink:href="#DejaVuSans-50"/>
      <use transform="translate(553.011719 0.78125)" xlink:href="#DejaVuSans-53"/>
     </g>
    </g>
    <g id="line2d_11">
     <path d="M 439.707656 254.185937 
L 516.707656 254.185937 
" style="fill:none;stroke:#ff0000;stroke-dasharray:5.55,2.4;stroke-dashoffset:0;stroke-width:1.5;"/>
    </g>
    <g id="line2d_12"/>
    <g id="text_14">
     <!-- $\tau_s$ -->
     <defs>
      <path d="M 50 53.078125 
L 48.296875 44.578125 
Q 44.734375 46.53125 40.765625 47.5 
Q 36.8125 48.484375 32.625 48.484375 
Q 25.53125 48.484375 21.453125 46.0625 
Q 17.390625 43.65625 17.390625 39.5 
Q 17.390625 34.671875 26.859375 32.078125 
Q 27.59375 31.890625 27.9375 31.78125 
L 30.8125 30.90625 
Q 39.796875 28.421875 42.796875 25.6875 
Q 45.796875 22.953125 45.796875 18.21875 
Q 45.796875 9.515625 38.890625 4.046875 
Q 31.984375 -1.421875 20.796875 -1.421875 
Q 16.453125 -1.421875 11.671875 -0.578125 
Q 6.890625 0.25 1.125 2 
L 2.875 11.28125 
Q 7.8125 8.734375 12.59375 7.421875 
Q 17.390625 6.109375 21.78125 6.109375 
Q 28.375 6.109375 32.5 8.9375 
Q 36.625 11.765625 36.625 16.109375 
Q 36.625 20.796875 25.78125 23.6875 
L 24.859375 23.921875 
L 21.78125 24.703125 
Q 14.9375 26.515625 11.765625 29.46875 
Q 8.59375 32.421875 8.59375 37.015625 
Q 8.59375 45.75 15.15625 50.875 
Q 21.734375 56 33.015625 56 
Q 37.453125 56 41.671875 55.265625 
Q 45.90625 54.546875 50 53.078125 
z
" id="DejaVuSans-Oblique-115"/>
     </defs>
     <g style="fill:#262626;" transform="translate(547.507656 267.660937)scale(0.385 -0.385)">
      <use transform="translate(0 0.3125)" xlink:href="#DejaVuSans-Oblique-964"/>
      <use transform="translate(60.205078 -16.09375)scale(0.7)" xlink:href="#DejaVuSans-Oblique-115"/>
     </g>
    </g>
   </g>
  </g>
 </g>
 <defs>
  <clipPath id="pc5cab91b20">
   <rect height="434.88" width="669.6" x="150.102656" y="13.2"/>
  </clipPath>
 </defs>
</svg>
