<?xml version="1.0" encoding="utf-8" standalone="no"?>
<!DOCTYPE svg PUBLIC "-//W3C//DTD SVG 1.1//EN"
  "http://www.w3.org/Graphics/SVG/1.1/DTD/svg11.dtd">
<!-- Created with matplotlib (https://matplotlib.org/) -->
<svg height="546.688906pt" version="1.1" viewBox="0 0 836.295746 546.688906" width="836.295746pt" xmlns="http://www.w3.org/2000/svg" xmlns:xlink="http://www.w3.org/1999/xlink">
 <defs>
  <style type="text/css">
*{stroke-linecap:butt;stroke-linejoin:round;}
  </style>
 </defs>
 <g id="figure_1">
  <g id="patch_1">
   <path d="M 0 546.688906 
L 836.295746 546.688906 
L 836.295746 0 
L 0 0 
z
" style="fill:none;"/>
  </g>
  <g id="axes_1">
   <g id="patch_2">
    <path d="M 147.070781 448.08 
L 816.670781 448.08 
L 816.670781 13.2 
L 147.070781 13.2 
z
" style="fill:none;"/>
   </g>
   <g id="matplotlib.axis_1">
    <g id="xtick_1">
     <g id="text_1">
      <!-- 0.25 -->
      <defs>
       <path d="M 31.78125 66.40625 
Q 24.171875 66.40625 20.328125 58.90625 
Q 16.5 51.421875 16.5 36.375 
Q 16.5 21.390625 20.328125 13.890625 
Q 24.171875 6.390625 31.78125 6.390625 
Q 39.453125 6.390625 43.28125 13.890625 
Q 47.125 21.390625 47.125 36.375 
Q 47.125 51.421875 43.28125 58.90625 
Q 39.453125 66.40625 31.78125 66.40625 
z
M 31.78125 74.21875 
Q 44.046875 74.21875 50.515625 64.515625 
Q 56.984375 54.828125 56.984375 36.375 
Q 56.984375 17.96875 50.515625 8.265625 
Q 44.046875 -1.421875 31.78125 -1.421875 
Q 19.53125 -1.421875 13.0625 8.265625 
Q 6.59375 17.96875 6.59375 36.375 
Q 6.59375 54.828125 13.0625 64.515625 
Q 19.53125 74.21875 31.78125 74.21875 
z
" id="DejaVuSans-48"/>
       <path d="M 10.6875 12.40625 
L 21 12.40625 
L 21 0 
L 10.6875 0 
z
" id="DejaVuSans-46"/>
       <path d="M 19.1875 8.296875 
L 53.609375 8.296875 
L 53.609375 0 
L 7.328125 0 
L 7.328125 8.296875 
Q 12.9375 14.109375 22.625 23.890625 
Q 32.328125 33.6875 34.8125 36.53125 
Q 39.546875 41.84375 41.421875 45.53125 
Q 43.3125 49.21875 43.3125 52.78125 
Q 43.3125 58.59375 39.234375 62.25 
Q 35.15625 65.921875 28.609375 65.921875 
Q 23.96875 65.921875 18.8125 64.3125 
Q 13.671875 62.703125 7.8125 59.421875 
L 7.8125 69.390625 
Q 13.765625 71.78125 18.9375 73 
Q 24.125 74.21875 28.421875 74.21875 
Q 39.75 74.21875 46.484375 68.546875 
Q 53.21875 62.890625 53.21875 53.421875 
Q 53.21875 48.921875 51.53125 44.890625 
Q 49.859375 40.875 45.40625 35.40625 
Q 44.1875 33.984375 37.640625 27.21875 
Q 31.109375 20.453125 19.1875 8.296875 
z
" id="DejaVuSans-50"/>
       <path d="M 10.796875 72.90625 
L 49.515625 72.90625 
L 49.515625 64.59375 
L 19.828125 64.59375 
L 19.828125 46.734375 
Q 21.96875 47.46875 24.109375 47.828125 
Q 26.265625 48.1875 28.421875 48.1875 
Q 40.625 48.1875 47.75 41.5 
Q 54.890625 34.8125 54.890625 23.390625 
Q 54.890625 11.625 47.5625 5.09375 
Q 40.234375 -1.421875 26.90625 -1.421875 
Q 22.3125 -1.421875 17.546875 -0.640625 
Q 12.796875 0.140625 7.71875 1.703125 
L 7.71875 11.625 
Q 12.109375 9.234375 16.796875 8.0625 
Q 21.484375 6.890625 26.703125 6.890625 
Q 35.15625 6.890625 40.078125 11.328125 
Q 45.015625 15.765625 45.015625 23.390625 
Q 45.015625 31 40.078125 35.4375 
Q 35.15625 39.890625 26.703125 39.890625 
Q 22.75 39.890625 18.8125 39.015625 
Q 14.890625 38.140625 10.796875 36.28125 
z
" id="DejaVuSans-53"/>
      </defs>
      <g style="fill:#262626;" transform="translate(262.798927 486.833984)scale(0.385 -0.385)">
       <use xlink:href="#DejaVuSans-48"/>
       <use x="63.623047" xlink:href="#DejaVuSans-46"/>
       <use x="95.410156" xlink:href="#DejaVuSans-50"/>
       <use x="159.033203" xlink:href="#DejaVuSans-53"/>
      </g>
     </g>
    </g>
    <g id="xtick_2">
     <g id="text_2">
      <!-- 0.50 -->
      <g style="fill:#262626;" transform="translate(422.990314 486.833984)scale(0.385 -0.385)">
       <use xlink:href="#DejaVuSans-48"/>
       <use x="63.623047" xlink:href="#DejaVuSans-46"/>
       <use x="95.410156" xlink:href="#DejaVuSans-53"/>
       <use x="159.033203" xlink:href="#DejaVuSans-48"/>
      </g>
     </g>
    </g>
    <g id="xtick_3">
     <g id="text_3">
      <!-- 0.75 -->
      <defs>
       <path d="M 8.203125 72.90625 
L 55.078125 72.90625 
L 55.078125 68.703125 
L 28.609375 0 
L 18.3125 0 
L 43.21875 64.59375 
L 8.203125 64.59375 
z
" id="DejaVuSans-55"/>
      </defs>
      <g style="fill:#262626;" transform="translate(583.181702 486.833984)scale(0.385 -0.385)">
       <use xlink:href="#DejaVuSans-48"/>
       <use x="63.623047" xlink:href="#DejaVuSans-46"/>
       <use x="95.410156" xlink:href="#DejaVuSans-55"/>
       <use x="159.033203" xlink:href="#DejaVuSans-53"/>
      </g>
     </g>
    </g>
    <g id="xtick_4">
     <g id="text_4">
      <!-- 1.00 -->
      <defs>
       <path d="M 12.40625 8.296875 
L 28.515625 8.296875 
L 28.515625 63.921875 
L 10.984375 60.40625 
L 10.984375 69.390625 
L 28.421875 72.90625 
L 38.28125 72.90625 
L 38.28125 8.296875 
L 54.390625 8.296875 
L 54.390625 0 
L 12.40625 0 
z
" id="DejaVuSans-49"/>
      </defs>
      <g style="fill:#262626;" transform="translate(743.373089 486.833984)scale(0.385 -0.385)">
       <use xlink:href="#DejaVuSans-49"/>
       <use x="63.623047" xlink:href="#DejaVuSans-46"/>
       <use x="95.410156" xlink:href="#DejaVuSans-48"/>
       <use x="159.033203" xlink:href="#DejaVuSans-48"/>
      </g>
     </g>
    </g>
    <g id="text_5">
     <!-- $\sigma$ -->
     <defs>
      <path d="M 34.671875 47.5625 
Q 27.25 47.5625 22.21875 42.1875 
Q 16.890625 36.578125 15.140625 27.296875 
Q 13.1875 17.484375 16.3125 11.8125 
Q 19.390625 6.203125 26.65625 6.203125 
Q 33.84375 6.203125 39.109375 11.859375 
Q 44.4375 17.53125 46.34375 27.296875 
Q 48.046875 36.234375 45.015625 42.1875 
Q 42.1875 47.5625 34.671875 47.5625 
z
M 36.078125 54.734375 
L 65.921875 54.6875 
L 64.15625 45.703125 
L 54.109375 45.703125 
Q 57.90625 38.09375 55.859375 27.296875 
Q 53.21875 13.875 45.0625 6.25 
Q 36.859375 -1.421875 25.140625 -1.421875 
Q 13.375 -1.421875 8.203125 6.25 
Q 3.03125 13.875 5.671875 27.296875 
Q 8.25 40.765625 16.40625 48.390625 
Q 23.1875 54.734375 36.078125 54.734375 
z
" id="DejaVuSans-Oblique-963"/>
     </defs>
     <g style="fill:#262626;" transform="translate(468.430781 530.754219)scale(0.42 -0.42)">
      <use transform="translate(0 0.265625)" xlink:href="#DejaVuSans-Oblique-963"/>
     </g>
    </g>
   </g>
   <g id="matplotlib.axis_2">
    <g id="ytick_1">
     <g id="text_6">
      <!-- 0.00 -->
      <g style="fill:#262626;" transform="translate(51.848125 455.543993)scale(0.385 -0.385)">
       <use xlink:href="#DejaVuSans-48"/>
       <use x="63.623047" xlink:href="#DejaVuSans-46"/>
       <use x="95.410156" xlink:href="#DejaVuSans-48"/>
       <use x="159.033203" xlink:href="#DejaVuSans-48"/>
      </g>
     </g>
    </g>
    <g id="ytick_2">
     <g id="text_7">
      <!-- 0.25 -->
      <g style="fill:#262626;" transform="translate(51.848125 353.556561)scale(0.385 -0.385)">
       <use xlink:href="#DejaVuSans-48"/>
       <use x="63.623047" xlink:href="#DejaVuSans-46"/>
       <use x="95.410156" xlink:href="#DejaVuSans-50"/>
       <use x="159.033203" xlink:href="#DejaVuSans-53"/>
      </g>
     </g>
    </g>
    <g id="ytick_3">
     <g id="text_8">
      <!-- 0.50 -->
      <g style="fill:#262626;" transform="translate(51.848125 251.569129)scale(0.385 -0.385)">
       <use xlink:href="#DejaVuSans-48"/>
       <use x="63.623047" xlink:href="#DejaVuSans-46"/>
       <use x="95.410156" xlink:href="#DejaVuSans-53"/>
       <use x="159.033203" xlink:href="#DejaVuSans-48"/>
      </g>
     </g>
    </g>
    <g id="ytick_4">
     <g id="text_9">
      <!-- 0.75 -->
      <g style="fill:#262626;" transform="translate(51.848125 149.581697)scale(0.385 -0.385)">
       <use xlink:href="#DejaVuSans-48"/>
       <use x="63.623047" xlink:href="#DejaVuSans-46"/>
       <use x="95.410156" xlink:href="#DejaVuSans-55"/>
       <use x="159.033203" xlink:href="#DejaVuSans-53"/>
      </g>
     </g>
    </g>
    <g id="ytick_5">
     <g id="text_10">
      <!-- 1.00 -->
      <g style="fill:#262626;" transform="translate(51.848125 47.594265)scale(0.385 -0.385)">
       <use xlink:href="#DejaVuSans-49"/>
       <use x="63.623047" xlink:href="#DejaVuSans-46"/>
       <use x="95.410156" xlink:href="#DejaVuSans-48"/>
       <use x="159.033203" xlink:href="#DejaVuSans-48"/>
      </g>
     </g>
    </g>
    <g id="text_11">
     <!-- Success rate -->
     <defs>
      <path d="M 53.515625 70.515625 
L 53.515625 60.890625 
Q 47.90625 63.578125 42.921875 64.890625 
Q 37.9375 66.21875 33.296875 66.21875 
Q 25.25 66.21875 20.875 63.09375 
Q 16.5 59.96875 16.5 54.203125 
Q 16.5 49.359375 19.40625 46.890625 
Q 22.3125 44.4375 30.421875 42.921875 
L 36.375 41.703125 
Q 47.40625 39.59375 52.65625 34.296875 
Q 57.90625 29 57.90625 20.125 
Q 57.90625 9.515625 50.796875 4.046875 
Q 43.703125 -1.421875 29.984375 -1.421875 
Q 24.8125 -1.421875 18.96875 -0.25 
Q 13.140625 0.921875 6.890625 3.21875 
L 6.890625 13.375 
Q 12.890625 10.015625 18.65625 8.296875 
Q 24.421875 6.59375 29.984375 6.59375 
Q 38.421875 6.59375 43.015625 9.90625 
Q 47.609375 13.234375 47.609375 19.390625 
Q 47.609375 24.75 44.3125 27.78125 
Q 41.015625 30.8125 33.5 32.328125 
L 27.484375 33.5 
Q 16.453125 35.6875 11.515625 40.375 
Q 6.59375 45.0625 6.59375 53.421875 
Q 6.59375 63.09375 13.40625 68.65625 
Q 20.21875 74.21875 32.171875 74.21875 
Q 37.3125 74.21875 42.625 73.28125 
Q 47.953125 72.359375 53.515625 70.515625 
z
" id="DejaVuSans-83"/>
      <path d="M 8.5 21.578125 
L 8.5 54.6875 
L 17.484375 54.6875 
L 17.484375 21.921875 
Q 17.484375 14.15625 20.5 10.265625 
Q 23.53125 6.390625 29.59375 6.390625 
Q 36.859375 6.390625 41.078125 11.03125 
Q 45.3125 15.671875 45.3125 23.6875 
L 45.3125 54.6875 
L 54.296875 54.6875 
L 54.296875 0 
L 45.3125 0 
L 45.3125 8.40625 
Q 42.046875 3.421875 37.71875 1 
Q 33.40625 -1.421875 27.6875 -1.421875 
Q 18.265625 -1.421875 13.375 4.4375 
Q 8.5 10.296875 8.5 21.578125 
z
M 31.109375 56 
z
" id="DejaVuSans-117"/>
      <path d="M 48.78125 52.59375 
L 48.78125 44.1875 
Q 44.96875 46.296875 41.140625 47.34375 
Q 37.3125 48.390625 33.40625 48.390625 
Q 24.65625 48.390625 19.8125 42.84375 
Q 14.984375 37.3125 14.984375 27.296875 
Q 14.984375 17.28125 19.8125 11.734375 
Q 24.65625 6.203125 33.40625 6.203125 
Q 37.3125 6.203125 41.140625 7.25 
Q 44.96875 8.296875 48.78125 10.40625 
L 48.78125 2.09375 
Q 45.015625 0.34375 40.984375 -0.53125 
Q 36.96875 -1.421875 32.421875 -1.421875 
Q 20.0625 -1.421875 12.78125 6.34375 
Q 5.515625 14.109375 5.515625 27.296875 
Q 5.515625 40.671875 12.859375 48.328125 
Q 20.21875 56 33.015625 56 
Q 37.15625 56 41.109375 55.140625 
Q 45.0625 54.296875 48.78125 52.59375 
z
" id="DejaVuSans-99"/>
      <path d="M 56.203125 29.59375 
L 56.203125 25.203125 
L 14.890625 25.203125 
Q 15.484375 15.921875 20.484375 11.0625 
Q 25.484375 6.203125 34.421875 6.203125 
Q 39.59375 6.203125 44.453125 7.46875 
Q 49.3125 8.734375 54.109375 11.28125 
L 54.109375 2.78125 
Q 49.265625 0.734375 44.1875 -0.34375 
Q 39.109375 -1.421875 33.890625 -1.421875 
Q 20.796875 -1.421875 13.15625 6.1875 
Q 5.515625 13.8125 5.515625 26.8125 
Q 5.515625 40.234375 12.765625 48.109375 
Q 20.015625 56 32.328125 56 
Q 43.359375 56 49.78125 48.890625 
Q 56.203125 41.796875 56.203125 29.59375 
z
M 47.21875 32.234375 
Q 47.125 39.59375 43.09375 43.984375 
Q 39.0625 48.390625 32.421875 48.390625 
Q 24.90625 48.390625 20.390625 44.140625 
Q 15.875 39.890625 15.1875 32.171875 
z
" id="DejaVuSans-101"/>
      <path d="M 44.28125 53.078125 
L 44.28125 44.578125 
Q 40.484375 46.53125 36.375 47.5 
Q 32.28125 48.484375 27.875 48.484375 
Q 21.1875 48.484375 17.84375 46.4375 
Q 14.5 44.390625 14.5 40.28125 
Q 14.5 37.15625 16.890625 35.375 
Q 19.28125 33.59375 26.515625 31.984375 
L 29.59375 31.296875 
Q 39.15625 29.25 43.1875 25.515625 
Q 47.21875 21.78125 47.21875 15.09375 
Q 47.21875 7.46875 41.1875 3.015625 
Q 35.15625 -1.421875 24.609375 -1.421875 
Q 20.21875 -1.421875 15.453125 -0.5625 
Q 10.6875 0.296875 5.421875 2 
L 5.421875 11.28125 
Q 10.40625 8.6875 15.234375 7.390625 
Q 20.0625 6.109375 24.8125 6.109375 
Q 31.15625 6.109375 34.5625 8.28125 
Q 37.984375 10.453125 37.984375 14.40625 
Q 37.984375 18.0625 35.515625 20.015625 
Q 33.0625 21.96875 24.703125 23.78125 
L 21.578125 24.515625 
Q 13.234375 26.265625 9.515625 29.90625 
Q 5.8125 33.546875 5.8125 39.890625 
Q 5.8125 47.609375 11.28125 51.796875 
Q 16.75 56 26.8125 56 
Q 31.78125 56 36.171875 55.265625 
Q 40.578125 54.546875 44.28125 53.078125 
z
" id="DejaVuSans-115"/>
      <path id="DejaVuSans-32"/>
      <path d="M 41.109375 46.296875 
Q 39.59375 47.171875 37.8125 47.578125 
Q 36.03125 48 33.890625 48 
Q 26.265625 48 22.1875 43.046875 
Q 18.109375 38.09375 18.109375 28.8125 
L 18.109375 0 
L 9.078125 0 
L 9.078125 54.6875 
L 18.109375 54.6875 
L 18.109375 46.1875 
Q 20.953125 51.171875 25.484375 53.578125 
Q 30.03125 56 36.53125 56 
Q 37.453125 56 38.578125 55.875 
Q 39.703125 55.765625 41.0625 55.515625 
z
" id="DejaVuSans-114"/>
      <path d="M 34.28125 27.484375 
Q 23.390625 27.484375 19.1875 25 
Q 14.984375 22.515625 14.984375 16.5 
Q 14.984375 11.71875 18.140625 8.90625 
Q 21.296875 6.109375 26.703125 6.109375 
Q 34.1875 6.109375 38.703125 11.40625 
Q 43.21875 16.703125 43.21875 25.484375 
L 43.21875 27.484375 
z
M 52.203125 31.203125 
L 52.203125 0 
L 43.21875 0 
L 43.21875 8.296875 
Q 40.140625 3.328125 35.546875 0.953125 
Q 30.953125 -1.421875 24.3125 -1.421875 
Q 15.921875 -1.421875 10.953125 3.296875 
Q 6 8.015625 6 15.921875 
Q 6 25.140625 12.171875 29.828125 
Q 18.359375 34.515625 30.609375 34.515625 
L 43.21875 34.515625 
L 43.21875 35.40625 
Q 43.21875 41.609375 39.140625 45 
Q 35.0625 48.390625 27.6875 48.390625 
Q 23 48.390625 18.546875 47.265625 
Q 14.109375 46.140625 10.015625 43.890625 
L 10.015625 52.203125 
Q 14.9375 54.109375 19.578125 55.046875 
Q 24.21875 56 28.609375 56 
Q 40.484375 56 46.34375 49.84375 
Q 52.203125 43.703125 52.203125 31.203125 
z
" id="DejaVuSans-97"/>
      <path d="M 18.3125 70.21875 
L 18.3125 54.6875 
L 36.8125 54.6875 
L 36.8125 47.703125 
L 18.3125 47.703125 
L 18.3125 18.015625 
Q 18.3125 11.328125 20.140625 9.421875 
Q 21.96875 7.515625 27.59375 7.515625 
L 36.8125 7.515625 
L 36.8125 0 
L 27.59375 0 
Q 17.1875 0 13.234375 3.875 
Q 9.28125 7.765625 9.28125 18.015625 
L 9.28125 47.703125 
L 2.6875 47.703125 
L 2.6875 54.6875 
L 9.28125 54.6875 
L 9.28125 70.21875 
z
" id="DejaVuSans-116"/>
     </defs>
     <g style="fill:#262626;" transform="translate(39.113438 364.505156)rotate(-90)scale(0.42 -0.42)">
      <use xlink:href="#DejaVuSans-83"/>
      <use x="63.476562" xlink:href="#DejaVuSans-117"/>
      <use x="126.855469" xlink:href="#DejaVuSans-99"/>
      <use x="181.835938" xlink:href="#DejaVuSans-99"/>
      <use x="236.816406" xlink:href="#DejaVuSans-101"/>
      <use x="298.339844" xlink:href="#DejaVuSans-115"/>
      <use x="350.439453" xlink:href="#DejaVuSans-115"/>
      <use x="402.539062" xlink:href="#DejaVuSans-32"/>
      <use x="434.326172" xlink:href="#DejaVuSans-114"/>
      <use x="475.439453" xlink:href="#DejaVuSans-97"/>
      <use x="536.71875" xlink:href="#DejaVuSans-116"/>
      <use x="575.927734" xlink:href="#DejaVuSans-101"/>
     </g>
    </g>
   </g>
   <g id="PolyCollection_1">
    <defs>
     <path d="M 177.507145 -513.721634 
L 177.507145 -513.721634 
L 198.49774 -513.721634 
L 219.488336 -513.721634 
L 240.478932 -513.721634 
L 261.469527 -513.721634 
L 282.460123 -513.721634 
L 303.450719 -513.721634 
L 324.441314 -513.721634 
L 345.43191 -513.721634 
L 366.422505 -513.721634 
L 387.413101 -513.721634 
L 408.403697 -513.721634 
L 429.394292 -513.721634 
L 450.384888 -513.721634 
L 471.375483 -507.272587 
L 492.366079 -508.512476 
L 513.356675 -502.707735 
L 534.34727 -500.556559 
L 555.337866 -503.809148 
L 576.328462 -501.62451 
L 597.319057 -502.707735 
L 618.309653 -486.496255 
L 639.300248 -492.374135 
L 660.290844 -476.979194 
L 681.28144 -481.702418 
L 702.272035 -471.384831 
L 723.262631 -466.772953 
L 744.253226 -455.85116 
L 765.243822 -452.248775 
L 786.234418 -458.564569 
L 786.234418 -480.761557 
L 786.234418 -480.761557 
L 765.243822 -475.654759 
L 744.253226 -478.579569 
L 723.262631 -487.239363 
L 702.272035 -490.78648 
L 681.28144 -498.418681 
L 660.290844 -494.98291 
L 639.300248 -505.696751 
L 618.309653 -501.783838 
L 597.319057 -511.68114 
L 576.328462 -511.132566 
L 555.337866 -512.211526 
L 534.34727 -510.568719 
L 513.356675 -511.68114 
L 492.366079 -513.721634 
L 471.375483 -513.643484 
L 450.384888 -513.721634 
L 429.394292 -513.721634 
L 408.403697 -513.721634 
L 387.413101 -513.721634 
L 366.422505 -513.721634 
L 345.43191 -513.721634 
L 324.441314 -513.721634 
L 303.450719 -513.721634 
L 282.460123 -513.721634 
L 261.469527 -513.721634 
L 240.478932 -513.721634 
L 219.488336 -513.721634 
L 198.49774 -513.721634 
L 177.507145 -513.721634 
z
" id="mf169c63fb1" style="stroke:#4c72b0;stroke-opacity:0.3;"/>
    </defs>
    <g clip-path="url(#p0ff4ab47da)">
     <use style="fill:#4c72b0;fill-opacity:0.3;stroke:#4c72b0;stroke-opacity:0.3;" x="0" xlink:href="#mf169c63fb1" y="546.688906"/>
    </g>
   </g>
   <g id="PolyCollection_2">
    <defs>
     <path d="M 177.507145 -513.721634 
L 177.507145 -513.721634 
L 198.49774 -513.721634 
L 219.488336 -513.721634 
L 240.478932 -513.721634 
L 261.469527 -513.721634 
L 282.460123 -508.512476 
L 303.450719 -509.832846 
L 324.441314 -497.424631 
L 345.43191 -492.374135 
L 366.422505 -467.69208 
L 387.413101 -466.772953 
L 408.403697 -437.990674 
L 429.394292 -404.845188 
L 450.384888 -389.406951 
L 471.375483 -369.874418 
L 492.366079 -342.178164 
L 513.356675 -335.516976 
L 534.34727 -308.243206 
L 555.337866 -288.606604 
L 576.328462 -279.661632 
L 597.319057 -257.050686 
L 618.309653 -243.436493 
L 639.300248 -230.705724 
L 660.290844 -233.880672 
L 681.28144 -206.286997 
L 702.272035 -200.822411 
L 723.262631 -201.60187 
L 744.253226 -193.050623 
L 765.243822 -181.476156 
L 786.234418 -166.221838 
L 786.234418 -193.815674 
L 786.234418 -193.815674 
L 765.243822 -211.197334 
L 744.253226 -224.099851 
L 723.262631 -233.498392 
L 702.272035 -232.646052 
L 681.28144 -238.604058 
L 660.290844 -268.123345 
L 639.300248 -264.771097 
L 618.309653 -278.149111 
L 597.319057 -292.2755 
L 576.328462 -315.354923 
L 555.337866 -324.35974 
L 534.34727 -343.886311 
L 513.356675 -370.461905 
L 492.366079 -376.855109 
L 471.375483 -403.008218 
L 450.384888 -421.00706 
L 429.394292 -434.941204 
L 408.403697 -463.804077 
L 387.413101 -487.239363 
L 366.422505 -487.952035 
L 345.43191 -505.696751 
L 324.441314 -508.80525 
L 303.450719 -513.721634 
L 282.460123 -513.721634 
L 261.469527 -513.721634 
L 240.478932 -513.721634 
L 219.488336 -513.721634 
L 198.49774 -513.721634 
L 177.507145 -513.721634 
z
" id="m730f972980" style="stroke:#dd8452;stroke-opacity:0.3;"/>
    </defs>
    <g clip-path="url(#p0ff4ab47da)">
     <use style="fill:#dd8452;fill-opacity:0.3;stroke:#dd8452;stroke-opacity:0.3;" x="0" xlink:href="#m730f972980" y="546.688906"/>
    </g>
   </g>
   <g id="PolyCollection_3">
    <defs>
     <path d="M 177.507145 -513.721634 
L 177.507145 -513.721634 
L 198.49774 -513.721634 
L 219.488336 -509.832846 
L 240.478932 -503.809148 
L 261.469527 -490.396592 
L 282.460123 -462.199347 
L 303.450719 -437.990674 
L 324.441314 -381.739442 
L 345.43191 -352.207764 
L 366.422505 -298.404265 
L 387.413101 -291.867913 
L 408.403697 -273.987486 
L 429.394292 -232.292542 
L 450.384888 -201.60187 
L 471.375483 -192.275793 
L 492.366079 -175.348041 
L 513.356675 -180.708345 
L 534.34727 -157.934868 
L 555.337866 -162.444997 
L 576.328462 -147.517614 
L 597.319057 -144.572589 
L 618.309653 -143.83878 
L 639.300248 -148.995733 
L 660.290844 -135.119687 
L 681.28144 -138.731982 
L 702.272035 -131.541504 
L 723.262631 -120.395615 
L 744.253226 -120.395615 
L 765.243822 -130.120929 
L 786.234418 -121.074859 
L 786.234418 -137.791121 
L 786.234418 -137.791121 
L 765.243822 -149.958437 
L 744.253226 -136.838565 
L 723.262631 -136.838565 
L 702.272035 -151.801459 
L 681.28144 -160.92897 
L 660.290844 -156.382271 
L 639.300248 -173.510404 
L 618.309653 -167.244764 
L 597.319057 -168.142754 
L 576.328462 -171.724925 
L 555.337866 -189.43352 
L 534.34727 -184.152856 
L 513.356675 -210.333346 
L 492.366079 -204.271058 
L 471.375483 -223.242882 
L 450.384888 -233.498392 
L 429.394292 -266.447878 
L 408.403697 -309.606477 
L 387.413101 -327.625626 
L 366.422505 -334.143665 
L 345.43191 -386.407096 
L 324.441314 -413.98838 
L 303.450719 -463.804077 
L 282.460123 -483.653975 
L 261.469527 -504.410697 
L 240.478932 -512.211526 
L 219.488336 -513.721634 
L 198.49774 -513.721634 
L 177.507145 -513.721634 
z
" id="madd40f56da" style="stroke:#55a868;stroke-opacity:0.3;"/>
    </defs>
    <g clip-path="url(#p0ff4ab47da)">
     <use style="fill:#55a868;fill-opacity:0.3;stroke:#55a868;stroke-opacity:0.3;" x="0" xlink:href="#madd40f56da" y="546.688906"/>
    </g>
   </g>
   <g id="PolyCollection_4">
    <defs>
     <path d="M 177.507145 -513.721634 
L 177.507145 -513.721634 
L 198.49774 -513.721634 
L 219.488336 -513.721634 
L 240.478932 -511.3082 
L 261.469527 -513.721634 
L 282.460123 -507.272587 
L 303.450719 -502.707735 
L 324.441314 -499.501679 
L 345.43191 -476.979194 
L 366.422505 -474.173025 
L 387.413101 -482.654974 
L 408.403697 -450.453793 
L 429.394292 -437.106599 
L 450.384888 -438.875509 
L 471.375483 -416.959345 
L 492.366079 -388.553386 
L 513.356675 -389.406951 
L 534.34727 -385.143211 
L 555.337866 -348.859432 
L 576.328462 -343.012214 
L 597.319057 -323.906882 
L 618.309653 -314.825588 
L 639.300248 -317.298781 
L 660.290844 -308.243206 
L 681.28144 -298.404265 
L 702.272035 -291.867913 
L 723.262631 -273.17805 
L 744.253226 -278.850175 
L 765.243822 -250.633017 
L 786.234418 -249.031634 
L 786.234418 -283.976563 
L 786.234418 -283.976563 
L 765.243822 -285.638777 
L 744.253226 -314.534581 
L 723.262631 -308.784115 
L 702.272035 -327.625626 
L 681.28144 -334.143665 
L 660.290844 -343.886311 
L 639.300248 -352.780524 
L 618.309653 -350.358321 
L 597.319057 -359.226815 
L 576.328462 -377.652857 
L 555.337866 -383.228232 
L 534.34727 -417.111806 
L 513.356675 -421.00706 
L 492.366079 -420.228827 
L 471.375483 -445.672232 
L 450.384888 -464.551041 
L 429.394292 -463.056353 
L 408.403697 -474.186142 
L 387.413101 -499.097924 
L 366.422505 -492.893682 
L 345.43191 -494.98291 
L 324.441314 -509.9918 
L 303.450719 -511.68114 
L 282.460123 -513.643484 
L 261.469527 -513.721634 
L 240.478932 -513.721634 
L 219.488336 -513.721634 
L 198.49774 -513.721634 
L 177.507145 -513.721634 
z
" id="m0af7fb6083" style="stroke:#4c72b0;stroke-opacity:0.3;"/>
    </defs>
    <g clip-path="url(#p0ff4ab47da)">
     <use style="fill:#4c72b0;fill-opacity:0.3;stroke:#4c72b0;stroke-opacity:0.3;" x="0" xlink:href="#m0af7fb6083" y="546.688906"/>
    </g>
   </g>
   <g id="PolyCollection_5">
    <defs>
     <path d="M 177.507145 -513.721634 
L 177.507145 -513.721634 
L 198.49774 -509.832846 
L 219.488336 -485.530934 
L 240.478932 -473.241728 
L 261.469527 -445.091736 
L 282.460123 -411.755195 
L 303.450719 -358.079984 
L 324.441314 -336.348543 
L 345.43191 -323.079836 
L 366.422505 -286.977666 
L 387.413101 -277.228125 
L 408.403697 -251.434166 
L 429.394292 -223.581584 
L 450.384888 -224.3718 
L 471.375483 -207.851833 
L 492.366079 -191.501404 
L 513.356675 -192.275793 
L 534.34727 -173.058766 
L 555.337866 -176.876937 
L 576.328462 -160.186808 
L 597.319057 -165.465192 
L 618.309653 -163.19907 
L 639.300248 -150.477405 
L 660.290844 -154.942498 
L 681.28144 -146.043183 
L 702.272035 -139.458153 
L 723.262631 -144.572589 
L 744.253226 -130.120929 
L 765.243822 -143.83878 
L 786.234418 -130.120929 
L 786.234418 -149.958437 
L 786.234418 -149.958437 
L 765.243822 -167.244764 
L 744.253226 -149.958437 
L 723.262631 -168.142754 
L 702.272035 -161.834598 
L 681.28144 -169.935758 
L 660.290844 -180.61803 
L 639.300248 -175.29233 
L 618.309653 -190.311246 
L 597.319057 -192.940521 
L 576.328462 -186.796313 
L 555.337866 -206.00576 
L 534.34727 -201.664936 
L 513.356675 -223.242882 
L 492.366079 -222.385472 
L 471.375483 -240.30282 
L 450.384888 -258.050631 
L 429.394292 -257.209047 
L 408.403697 -286.469427 
L 387.413101 -312.893034 
L 366.422505 -322.72508 
L 345.43191 -358.422062 
L 324.441314 -371.262137 
L 303.450719 -391.957468 
L 282.460123 -441.085589 
L 261.469527 -469.757406 
L 240.478932 -492.193181 
L 219.488336 -501.11736 
L 198.49774 -513.721634 
L 177.507145 -513.721634 
z
" id="mcb0c60e584" style="stroke:#dd8452;stroke-opacity:0.3;"/>
    </defs>
    <g clip-path="url(#p0ff4ab47da)">
     <use style="fill:#dd8452;fill-opacity:0.3;stroke:#dd8452;stroke-opacity:0.3;" x="0" xlink:href="#mcb0c60e584" y="546.688906"/>
    </g>
   </g>
   <g id="PolyCollection_6">
    <defs>
     <path d="M 177.507145 -494.288626 
L 177.507145 -476.041679 
L 198.49774 -461.28875 
L 219.488336 -421.311285 
L 240.478932 -365.654281 
L 261.469527 -331.363724 
L 282.460123 -290.236686 
L 303.450719 -237.060832 
L 324.441314 -232.292542 
L 345.43191 -222.791713 
L 366.422505 -186.093321 
L 387.413101 -175.348041 
L 408.403697 -168.495481 
L 429.394292 -160.186808 
L 450.384888 -155.689462 
L 471.375483 -144.572589 
L 492.366079 -139.458153 
L 513.356675 -133.684052 
L 534.34727 -131.541504 
L 555.337866 -132.968373 
L 576.328462 -134.40117 
L 597.319057 -138.007007 
L 618.309653 -132.254176 
L 639.300248 -127.300358 
L 660.290844 -118.376179 
L 681.28144 -123.818588 
L 702.272035 -121.756903 
L 723.262631 -121.074859 
L 744.253226 -127.300358 
L 765.243822 -120.395615 
L 786.234418 -119.719315 
L 786.234418 -135.883067 
L 786.234418 -135.883067 
L 765.243822 -136.838565 
L 744.253226 -146.251811 
L 723.262631 -137.791121 
L 702.272035 -138.740876 
L 681.28144 -141.574588 
L 660.290844 -133.962605 
L 639.300248 -146.251811 
L 618.309653 -152.720586 
L 597.319057 -160.022146 
L 576.328462 -155.468989 
L 555.337866 -153.638188 
L 534.34727 -151.801459 
L 513.356675 -154.554307 
L 492.366079 -161.834598 
L 471.375483 -168.142754 
L 450.384888 -181.502865 
L 429.394292 -186.796313 
L 408.403697 -196.437428 
L 387.413101 -204.271058 
L 366.422505 -216.370963 
L 345.43191 -256.36712 
L 324.441314 -266.447878 
L 303.450719 -271.470381 
L 282.460123 -325.993255 
L 261.469527 -366.456163 
L 240.478932 -399.069361 
L 219.488336 -449.479286 
L 198.49774 -482.932773 
L 177.507145 -494.288626 
z
" id="m20fdfd0d40" style="stroke:#55a868;stroke-opacity:0.3;"/>
    </defs>
    <g clip-path="url(#p0ff4ab47da)">
     <use style="fill:#55a868;fill-opacity:0.3;stroke:#55a868;stroke-opacity:0.3;" x="0" xlink:href="#m20fdfd0d40" y="546.688906"/>
    </g>
   </g>
   <g id="line2d_1">
    <path clip-path="url(#p0ff4ab47da)" d="M 177.507145 32.967273 
L 198.49774 32.967273 
L 219.488336 32.967273 
L 240.478932 32.967273 
L 261.469527 32.967273 
L 282.460123 32.967273 
L 303.450719 32.967273 
L 324.441314 32.967273 
L 345.43191 32.967273 
L 366.422505 32.967273 
L 387.413101 32.967273 
L 408.403697 32.967273 
L 429.394292 32.967273 
L 450.384888 32.967273 
L 471.375483 36.230871 
L 492.366079 35.414971 
L 513.356675 39.494468 
L 534.34727 41.126267 
L 555.337866 38.678569 
L 576.328462 40.310368 
L 597.319057 39.494468 
L 618.309653 52.54886 
L 639.300248 47.653463 
L 660.290844 60.707854 
L 681.28144 56.628357 
L 702.272035 65.603251 
L 723.262631 69.682748 
L 744.253226 79.473542 
L 765.243822 82.73714 
L 786.234418 77.025843 
" style="fill:none;stroke:#4c72b0;stroke-dasharray:29.6,12.8;stroke-dashoffset:0;stroke-width:8;"/>
   </g>
   <g id="line2d_2">
    <path clip-path="url(#p0ff4ab47da)" d="M 177.507145 32.967273 
L 198.49774 32.967273 
L 219.488336 32.967273 
L 240.478932 32.967273 
L 261.469527 32.967273 
L 282.460123 35.414971 
L 303.450719 34.599072 
L 324.441314 43.573966 
L 345.43191 47.653463 
L 366.422505 68.866849 
L 387.413101 69.682748 
L 408.403697 95.791531 
L 429.394292 126.79571 
L 450.384888 141.4819 
L 471.375483 160.247588 
L 492.366079 187.17227 
L 513.356675 193.699466 
L 534.34727 220.624148 
L 555.337866 240.205735 
L 576.328462 249.180629 
L 597.319057 272.025813 
L 618.309653 285.896104 
L 639.300248 298.950495 
L 660.290844 295.686898 
L 681.28144 324.243379 
L 702.272035 329.954675 
L 723.262631 329.138775 
L 744.253226 338.113669 
L 765.243822 350.352161 
L 786.234418 366.67015 
" style="fill:none;stroke:#dd8452;stroke-dasharray:29.6,12.8;stroke-dashoffset:0;stroke-width:8;"/>
   </g>
   <g id="line2d_3">
    <path clip-path="url(#p0ff4ab47da)" d="M 177.507145 32.967273 
L 198.49774 32.967273 
L 219.488336 34.599072 
L 240.478932 38.678569 
L 261.469527 49.285262 
L 282.460123 73.762246 
L 303.450719 95.791531 
L 324.441314 148.824995 
L 345.43191 177.381476 
L 366.422505 230.414941 
L 387.413101 236.942137 
L 408.403697 254.891925 
L 429.394292 297.318696 
L 450.384888 329.138775 
L 471.375483 338.929569 
L 492.366079 356.879357 
L 513.356675 351.168061 
L 534.34727 375.645044 
L 555.337866 370.749648 
L 576.328462 387.067637 
L 597.319057 390.331234 
L 618.309653 391.147134 
L 639.300248 385.435838 
L 660.290844 400.937927 
L 681.28144 396.85843 
L 702.272035 405.017425 
L 723.262631 418.071816 
L 744.253226 418.071816 
L 765.243822 406.649224 
L 786.234418 417.255917 
" style="fill:none;stroke:#55a868;stroke-dasharray:29.6,12.8;stroke-dashoffset:0;stroke-width:8;"/>
   </g>
   <g id="line2d_4">
    <path clip-path="url(#p0ff4ab47da)" d="M 177.507145 32.967273 
L 198.49774 32.967273 
L 219.488336 32.967273 
L 240.478932 33.783172 
L 261.469527 32.967273 
L 282.460123 36.230871 
L 303.450719 39.494468 
L 324.441314 41.942167 
L 345.43191 60.707854 
L 366.422505 63.155553 
L 387.413101 55.812457 
L 408.403697 84.368938 
L 429.394292 96.60743 
L 450.384888 94.975631 
L 471.375483 115.373118 
L 492.366079 142.2978 
L 513.356675 141.4819 
L 534.34727 145.561398 
L 555.337866 180.645074 
L 576.328462 186.35637 
L 597.319057 205.122058 
L 618.309653 214.096952 
L 639.300248 211.649254 
L 660.290844 220.624148 
L 681.28144 230.414941 
L 702.272035 236.942137 
L 723.262631 255.707824 
L 744.253226 249.996528 
L 765.243822 278.553009 
L 786.234418 280.184808 
" style="fill:none;stroke:#4c72b0;stroke-linecap:round;stroke-width:8;"/>
   </g>
   <g id="line2d_5">
    <path clip-path="url(#p0ff4ab47da)" d="M 177.507145 32.967273 
L 198.49774 34.599072 
L 219.488336 53.364759 
L 240.478932 63.971452 
L 261.469527 89.264335 
L 282.460123 120.268515 
L 303.450719 171.67018 
L 324.441314 192.883566 
L 345.43191 205.937957 
L 366.422505 241.837533 
L 387.413101 251.628327 
L 408.403697 277.73711 
L 429.394292 306.293591 
L 450.384888 305.477691 
L 471.375483 322.61158 
L 492.366079 339.745468 
L 513.356675 338.929569 
L 534.34727 359.327055 
L 555.337866 355.247558 
L 576.328462 373.197346 
L 597.319057 367.48605 
L 618.309653 369.933748 
L 639.300248 383.804039 
L 660.290844 378.908642 
L 681.28144 388.699436 
L 702.272035 396.042531 
L 723.262631 390.331234 
L 744.253226 406.649224 
L 765.243822 391.147134 
L 786.234418 406.649224 
" style="fill:none;stroke:#dd8452;stroke-linecap:round;stroke-width:8;"/>
   </g>
   <g id="line2d_6">
    <path clip-path="url(#p0ff4ab47da)" d="M 177.507145 61.523754 
L 198.49774 74.578145 
L 219.488336 111.293621 
L 240.478932 164.327085 
L 261.469527 197.778963 
L 282.460123 238.573936 
L 303.450719 292.4233 
L 324.441314 297.318696 
L 345.43191 307.10949 
L 366.422505 345.456764 
L 387.413101 356.879357 
L 408.403697 364.222452 
L 429.394292 373.197346 
L 450.384888 378.092743 
L 471.375483 390.331234 
L 492.366079 396.042531 
L 513.356675 402.569726 
L 534.34727 405.017425 
L 555.337866 403.385626 
L 576.328462 401.753827 
L 597.319057 397.67433 
L 618.309653 404.201525 
L 639.300248 409.912821 
L 660.290844 420.519514 
L 681.28144 413.992319 
L 702.272035 416.440017 
L 723.262631 417.255917 
L 744.253226 409.912821 
L 765.243822 418.071816 
L 786.234418 418.887715 
" style="fill:none;stroke:#55a868;stroke-linecap:round;stroke-width:8;"/>
   </g>
   <g id="patch_3">
    <path d="M 147.070781 448.08 
L 147.070781 13.2 
" style="fill:none;stroke:#cccccc;stroke-linecap:square;stroke-linejoin:miter;stroke-width:1.25;"/>
   </g>
   <g id="patch_4">
    <path d="M 816.670781 448.08 
L 816.670781 13.2 
" style="fill:none;stroke:#cccccc;stroke-linecap:square;stroke-linejoin:miter;stroke-width:1.25;"/>
   </g>
   <g id="patch_5">
    <path d="M 147.070781 448.08 
L 816.670781 448.08 
" style="fill:none;stroke:#cccccc;stroke-linecap:square;stroke-linejoin:miter;stroke-width:1.25;"/>
   </g>
   <g id="patch_6">
    <path d="M 147.070781 13.2 
L 816.670781 13.2 
" style="fill:none;stroke:#cccccc;stroke-linecap:square;stroke-linejoin:miter;stroke-width:1.25;"/>
   </g>
   <g id="legend_1">
    <g id="line2d_7">
     <path d="M 181.720781 222.415859 
L 258.720781 222.415859 
" style="fill:none;stroke:#4c72b0;stroke-dasharray:29.6,12.8;stroke-dashoffset:0;stroke-width:8;"/>
    </g>
    <g id="line2d_8"/>
    <g id="text_12">
     <!-- One trace -->
     <defs>
      <path d="M 39.40625 66.21875 
Q 28.65625 66.21875 22.328125 58.203125 
Q 16.015625 50.203125 16.015625 36.375 
Q 16.015625 22.609375 22.328125 14.59375 
Q 28.65625 6.59375 39.40625 6.59375 
Q 50.140625 6.59375 56.421875 14.59375 
Q 62.703125 22.609375 62.703125 36.375 
Q 62.703125 50.203125 56.421875 58.203125 
Q 50.140625 66.21875 39.40625 66.21875 
z
M 39.40625 74.21875 
Q 54.734375 74.21875 63.90625 63.9375 
Q 73.09375 53.65625 73.09375 36.375 
Q 73.09375 19.140625 63.90625 8.859375 
Q 54.734375 -1.421875 39.40625 -1.421875 
Q 24.03125 -1.421875 14.8125 8.828125 
Q 5.609375 19.09375 5.609375 36.375 
Q 5.609375 53.65625 14.8125 63.9375 
Q 24.03125 74.21875 39.40625 74.21875 
z
" id="DejaVuSans-79"/>
      <path d="M 54.890625 33.015625 
L 54.890625 0 
L 45.90625 0 
L 45.90625 32.71875 
Q 45.90625 40.484375 42.875 44.328125 
Q 39.84375 48.1875 33.796875 48.1875 
Q 26.515625 48.1875 22.3125 43.546875 
Q 18.109375 38.921875 18.109375 30.90625 
L 18.109375 0 
L 9.078125 0 
L 9.078125 54.6875 
L 18.109375 54.6875 
L 18.109375 46.1875 
Q 21.34375 51.125 25.703125 53.5625 
Q 30.078125 56 35.796875 56 
Q 45.21875 56 50.046875 50.171875 
Q 54.890625 44.34375 54.890625 33.015625 
z
" id="DejaVuSans-110"/>
     </defs>
     <g style="fill:#262626;" transform="translate(289.520781 235.890859)scale(0.385 -0.385)">
      <use xlink:href="#DejaVuSans-79"/>
      <use x="78.710938" xlink:href="#DejaVuSans-110"/>
      <use x="142.089844" xlink:href="#DejaVuSans-101"/>
      <use x="203.613281" xlink:href="#DejaVuSans-32"/>
      <use x="235.400391" xlink:href="#DejaVuSans-116"/>
      <use x="274.609375" xlink:href="#DejaVuSans-114"/>
      <use x="315.722656" xlink:href="#DejaVuSans-97"/>
      <use x="377.001953" xlink:href="#DejaVuSans-99"/>
      <use x="431.982422" xlink:href="#DejaVuSans-101"/>
     </g>
    </g>
    <g id="line2d_9">
     <path d="M 181.720781 278.926641 
L 258.720781 278.926641 
" style="fill:none;stroke:#dd8452;stroke-dasharray:29.6,12.8;stroke-dashoffset:0;stroke-width:8;"/>
    </g>
    <g id="line2d_10"/>
    <g id="text_13">
     <!--   -->
     <g style="fill:#262626;" transform="translate(289.520781 292.401641)scale(0.385 -0.385)">
      <use xlink:href="#DejaVuSans-32"/>
     </g>
    </g>
    <g id="line2d_11">
     <path d="M 181.720781 335.437422 
L 258.720781 335.437422 
" style="fill:none;stroke:#55a868;stroke-dasharray:29.6,12.8;stroke-dashoffset:0;stroke-width:8;"/>
    </g>
    <g id="line2d_12"/>
    <g id="text_14">
     <!--   -->
     <g style="fill:#262626;" transform="translate(289.520781 348.912422)scale(0.385 -0.385)">
      <use xlink:href="#DejaVuSans-32"/>
     </g>
    </g>
    <g id="line2d_13">
     <path d="M 181.720781 391.948203 
L 258.720781 391.948203 
" style="fill:none;stroke:#4c72b0;stroke-linecap:round;stroke-width:8;"/>
    </g>
    <g id="line2d_14"/>
    <g id="text_15">
     <!-- Two Traces -->
     <defs>
      <path d="M -0.296875 72.90625 
L 61.375 72.90625 
L 61.375 64.59375 
L 35.5 64.59375 
L 35.5 0 
L 25.59375 0 
L 25.59375 64.59375 
L -0.296875 64.59375 
z
" id="DejaVuSans-84"/>
      <path d="M 4.203125 54.6875 
L 13.1875 54.6875 
L 24.421875 12.015625 
L 35.59375 54.6875 
L 46.1875 54.6875 
L 57.421875 12.015625 
L 68.609375 54.6875 
L 77.59375 54.6875 
L 63.28125 0 
L 52.6875 0 
L 40.921875 44.828125 
L 29.109375 0 
L 18.5 0 
z
" id="DejaVuSans-119"/>
      <path d="M 30.609375 48.390625 
Q 23.390625 48.390625 19.1875 42.75 
Q 14.984375 37.109375 14.984375 27.296875 
Q 14.984375 17.484375 19.15625 11.84375 
Q 23.34375 6.203125 30.609375 6.203125 
Q 37.796875 6.203125 41.984375 11.859375 
Q 46.1875 17.53125 46.1875 27.296875 
Q 46.1875 37.015625 41.984375 42.703125 
Q 37.796875 48.390625 30.609375 48.390625 
z
M 30.609375 56 
Q 42.328125 56 49.015625 48.375 
Q 55.71875 40.765625 55.71875 27.296875 
Q 55.71875 13.875 49.015625 6.21875 
Q 42.328125 -1.421875 30.609375 -1.421875 
Q 18.84375 -1.421875 12.171875 6.21875 
Q 5.515625 13.875 5.515625 27.296875 
Q 5.515625 40.765625 12.171875 48.375 
Q 18.84375 56 30.609375 56 
z
" id="DejaVuSans-111"/>
     </defs>
     <g style="fill:#262626;" transform="translate(289.520781 405.423203)scale(0.385 -0.385)">
      <use xlink:href="#DejaVuSans-84"/>
      <use x="60.833984" xlink:href="#DejaVuSans-119"/>
      <use x="142.621094" xlink:href="#DejaVuSans-111"/>
      <use x="203.802734" xlink:href="#DejaVuSans-32"/>
      <use x="235.589844" xlink:href="#DejaVuSans-84"/>
      <use x="296.455078" xlink:href="#DejaVuSans-114"/>
      <use x="337.568359" xlink:href="#DejaVuSans-97"/>
      <use x="398.847656" xlink:href="#DejaVuSans-99"/>
      <use x="453.828125" xlink:href="#DejaVuSans-101"/>
      <use x="515.351562" xlink:href="#DejaVuSans-115"/>
     </g>
    </g>
   </g>
  </g>
 </g>
 <defs>
  <clipPath id="p0ff4ab47da">
   <rect height="434.88" width="669.6" x="147.070781" y="13.2"/>
  </clipPath>
 </defs>
</svg>
