<?xml version="1.0" encoding="utf-8" standalone="no"?>
<!DOCTYPE svg PUBLIC "-//W3C//DTD SVG 1.1//EN"
  "http://www.w3.org/Graphics/SVG/1.1/DTD/svg11.dtd">
<!-- Created with matplotlib (http://matplotlib.org/) -->
<svg height="552.690156pt" version="1.1" viewBox="0 0 756.86165 552.690156" width="756.86165pt" xmlns="http://www.w3.org/2000/svg" xmlns:xlink="http://www.w3.org/1999/xlink">
 <defs>
  <style type="text/css">
*{stroke-linecap:butt;stroke-linejoin:round;}
  </style>
 </defs>
 <g id="figure_1">
  <g id="patch_1">
   <path d="M 0 552.690156 
L 756.86165 552.690156 
L 756.86165 -0 
L 0 -0 
z
" style="fill:none;"/>
  </g>
  <g id="axes_1">
   <g id="patch_2">
    <path d="M 67.23125 470.875312 
L 736.83125 470.875312 
L 736.83125 35.995312 
L 67.23125 35.995312 
z
" style="fill:none;"/>
   </g>
   <g id="matplotlib.axis_1">
    <g id="xtick_1">
     <g id="line2d_1">
      <path clip-path="url(#p69d3388ec5)" d="M 219.413068 470.875312 
L 219.413068 35.995312 
" style="fill:none;stroke:#cccccc;stroke-linecap:round;"/>
     </g>
     <g id="text_1">
      <!-- 40 -->
      <defs>
       <path d="M 37.796875 64.3125 
L 12.890625 25.390625 
L 37.796875 25.390625 
z
M 35.203125 72.90625 
L 47.609375 72.90625 
L 47.609375 25.390625 
L 58.015625 25.390625 
L 58.015625 17.1875 
L 47.609375 17.1875 
L 47.609375 0 
L 37.796875 0 
L 37.796875 17.1875 
L 4.890625 17.1875 
L 4.890625 26.703125 
z
" id="DejaVuSans-34"/>
       <path d="M 31.78125 66.40625 
Q 24.171875 66.40625 20.328125 58.90625 
Q 16.5 51.421875 16.5 36.375 
Q 16.5 21.390625 20.328125 13.890625 
Q 24.171875 6.390625 31.78125 6.390625 
Q 39.453125 6.390625 43.28125 13.890625 
Q 47.125 21.390625 47.125 36.375 
Q 47.125 51.421875 43.28125 58.90625 
Q 39.453125 66.40625 31.78125 66.40625 
z
M 31.78125 74.21875 
Q 44.046875 74.21875 50.515625 64.515625 
Q 56.984375 54.828125 56.984375 36.375 
Q 56.984375 17.96875 50.515625 8.265625 
Q 44.046875 -1.421875 31.78125 -1.421875 
Q 19.53125 -1.421875 13.0625 8.265625 
Q 6.59375 17.96875 6.59375 36.375 
Q 6.59375 54.828125 13.0625 64.515625 
Q 19.53125 74.21875 31.78125 74.21875 
z
" id="DejaVuSans-30"/>
      </defs>
      <g style="fill:#262626;" transform="translate(201.916193 501.271016)scale(0.275 -0.275)">
       <use xlink:href="#DejaVuSans-34"/>
       <use x="63.623047" xlink:href="#DejaVuSans-30"/>
      </g>
     </g>
    </g>
    <g id="xtick_2">
     <g id="line2d_2">
      <path clip-path="url(#p69d3388ec5)" d="M 381.740341 470.875312 
L 381.740341 35.995312 
" style="fill:none;stroke:#cccccc;stroke-linecap:round;"/>
     </g>
     <g id="text_2">
      <!-- 60 -->
      <defs>
       <path d="M 33.015625 40.375 
Q 26.375 40.375 22.484375 35.828125 
Q 18.609375 31.296875 18.609375 23.390625 
Q 18.609375 15.53125 22.484375 10.953125 
Q 26.375 6.390625 33.015625 6.390625 
Q 39.65625 6.390625 43.53125 10.953125 
Q 47.40625 15.53125 47.40625 23.390625 
Q 47.40625 31.296875 43.53125 35.828125 
Q 39.65625 40.375 33.015625 40.375 
z
M 52.59375 71.296875 
L 52.59375 62.3125 
Q 48.875 64.0625 45.09375 64.984375 
Q 41.3125 65.921875 37.59375 65.921875 
Q 27.828125 65.921875 22.671875 59.328125 
Q 17.53125 52.734375 16.796875 39.40625 
Q 19.671875 43.65625 24.015625 45.921875 
Q 28.375 48.1875 33.59375 48.1875 
Q 44.578125 48.1875 50.953125 41.515625 
Q 57.328125 34.859375 57.328125 23.390625 
Q 57.328125 12.15625 50.6875 5.359375 
Q 44.046875 -1.421875 33.015625 -1.421875 
Q 20.359375 -1.421875 13.671875 8.265625 
Q 6.984375 17.96875 6.984375 36.375 
Q 6.984375 53.65625 15.1875 63.9375 
Q 23.390625 74.21875 37.203125 74.21875 
Q 40.921875 74.21875 44.703125 73.484375 
Q 48.484375 72.75 52.59375 71.296875 
z
" id="DejaVuSans-36"/>
      </defs>
      <g style="fill:#262626;" transform="translate(364.243466 501.271016)scale(0.275 -0.275)">
       <use xlink:href="#DejaVuSans-36"/>
       <use x="63.623047" xlink:href="#DejaVuSans-30"/>
      </g>
     </g>
    </g>
    <g id="xtick_3">
     <g id="line2d_3">
      <path clip-path="url(#p69d3388ec5)" d="M 544.067614 470.875312 
L 544.067614 35.995312 
" style="fill:none;stroke:#cccccc;stroke-linecap:round;"/>
     </g>
     <g id="text_3">
      <!-- 80 -->
      <defs>
       <path d="M 31.78125 34.625 
Q 24.75 34.625 20.71875 30.859375 
Q 16.703125 27.09375 16.703125 20.515625 
Q 16.703125 13.921875 20.71875 10.15625 
Q 24.75 6.390625 31.78125 6.390625 
Q 38.8125 6.390625 42.859375 10.171875 
Q 46.921875 13.96875 46.921875 20.515625 
Q 46.921875 27.09375 42.890625 30.859375 
Q 38.875 34.625 31.78125 34.625 
z
M 21.921875 38.8125 
Q 15.578125 40.375 12.03125 44.71875 
Q 8.5 49.078125 8.5 55.328125 
Q 8.5 64.0625 14.71875 69.140625 
Q 20.953125 74.21875 31.78125 74.21875 
Q 42.671875 74.21875 48.875 69.140625 
Q 55.078125 64.0625 55.078125 55.328125 
Q 55.078125 49.078125 51.53125 44.71875 
Q 48 40.375 41.703125 38.8125 
Q 48.828125 37.15625 52.796875 32.3125 
Q 56.78125 27.484375 56.78125 20.515625 
Q 56.78125 9.90625 50.3125 4.234375 
Q 43.84375 -1.421875 31.78125 -1.421875 
Q 19.734375 -1.421875 13.25 4.234375 
Q 6.78125 9.90625 6.78125 20.515625 
Q 6.78125 27.484375 10.78125 32.3125 
Q 14.796875 37.15625 21.921875 38.8125 
z
M 18.3125 54.390625 
Q 18.3125 48.734375 21.84375 45.5625 
Q 25.390625 42.390625 31.78125 42.390625 
Q 38.140625 42.390625 41.71875 45.5625 
Q 45.3125 48.734375 45.3125 54.390625 
Q 45.3125 60.0625 41.71875 63.234375 
Q 38.140625 66.40625 31.78125 66.40625 
Q 25.390625 66.40625 21.84375 63.234375 
Q 18.3125 60.0625 18.3125 54.390625 
z
" id="DejaVuSans-38"/>
      </defs>
      <g style="fill:#262626;" transform="translate(526.570739 501.271016)scale(0.275 -0.275)">
       <use xlink:href="#DejaVuSans-38"/>
       <use x="63.623047" xlink:href="#DejaVuSans-30"/>
      </g>
     </g>
    </g>
    <g id="xtick_4">
     <g id="line2d_4">
      <path clip-path="url(#p69d3388ec5)" d="M 706.394886 470.875312 
L 706.394886 35.995312 
" style="fill:none;stroke:#cccccc;stroke-linecap:round;"/>
     </g>
     <g id="text_4">
      <!-- 100 -->
      <defs>
       <path d="M 12.40625 8.296875 
L 28.515625 8.296875 
L 28.515625 63.921875 
L 10.984375 60.40625 
L 10.984375 69.390625 
L 28.421875 72.90625 
L 38.28125 72.90625 
L 38.28125 8.296875 
L 54.390625 8.296875 
L 54.390625 0 
L 12.40625 0 
z
" id="DejaVuSans-31"/>
      </defs>
      <g style="fill:#262626;" transform="translate(680.149574 501.271016)scale(0.275 -0.275)">
       <use xlink:href="#DejaVuSans-31"/>
       <use x="63.623047" xlink:href="#DejaVuSans-30"/>
       <use x="127.246094" xlink:href="#DejaVuSans-30"/>
      </g>
     </g>
    </g>
    <g id="text_5">
     <!-- $\tau_{z_{pre}}$ (ms) -->
     <defs>
      <path d="M 32.859375 9.96875 
Q 34.1875 7.625 39.453125 7.625 
L 43.75 7.625 
L 42.28125 0 
L 36.921875 0 
Q 28.125 0 25 4.6875 
Q 21.921875 9.46875 23.96875 19.828125 
L 29 45.703125 
L 8.453125 45.703125 
L 10.203125 54.6875 
L 60.640625 54.6875 
L 58.890625 45.703125 
L 38.1875 45.703125 
L 33.015625 19.28125 
Q 31.640625 12.203125 32.859375 9.96875 
z
" id="DejaVuSans-Oblique-3c4"/>
      <path d="M 11.625 54.6875 
L 54.296875 54.6875 
L 52.6875 46.484375 
L 11.53125 7.171875 
L 45.515625 7.171875 
L 44.09375 0 
L -0.296875 0 
L 1.3125 8.203125 
L 42.484375 47.515625 
L 10.203125 47.515625 
z
" id="DejaVuSans-Oblique-7a"/>
      <path d="M 49.609375 33.6875 
Q 49.609375 40.875 46.484375 44.671875 
Q 43.359375 48.484375 37.5 48.484375 
Q 33.5 48.484375 29.859375 46.4375 
Q 26.21875 44.390625 23.390625 40.484375 
Q 20.609375 36.625 18.9375 31.15625 
Q 17.28125 25.6875 17.28125 20.3125 
Q 17.28125 13.484375 20.40625 9.796875 
Q 23.53125 6.109375 29.296875 6.109375 
Q 33.546875 6.109375 37.1875 8.109375 
Q 40.828125 10.109375 43.40625 13.921875 
Q 46.1875 17.921875 47.890625 23.34375 
Q 49.609375 28.765625 49.609375 33.6875 
z
M 21.78125 46.390625 
Q 25.390625 51.125 30.296875 53.5625 
Q 35.203125 56 41.21875 56 
Q 49.609375 56 54.25 50.5 
Q 58.890625 45.015625 58.890625 35.109375 
Q 58.890625 27 56 19.65625 
Q 53.125 12.3125 47.703125 6.5 
Q 44.09375 2.640625 39.546875 0.609375 
Q 35.015625 -1.421875 29.984375 -1.421875 
Q 24.171875 -1.421875 20.21875 1 
Q 16.265625 3.421875 14.3125 8.203125 
L 8.6875 -20.796875 
L -0.296875 -20.796875 
L 14.40625 54.6875 
L 23.390625 54.6875 
z
" id="DejaVuSans-Oblique-70"/>
      <path d="M 44.578125 46.390625 
Q 43.21875 47.125 41.453125 47.515625 
Q 39.703125 47.90625 37.703125 47.90625 
Q 30.515625 47.90625 25.140625 42.453125 
Q 19.78125 37.015625 18.015625 27.875 
L 12.5 0 
L 3.515625 0 
L 14.203125 54.6875 
L 23.1875 54.6875 
L 21.484375 46.1875 
Q 25.046875 50.921875 30 53.453125 
Q 34.96875 56 40.578125 56 
Q 42.046875 56 43.453125 55.828125 
Q 44.875 55.671875 46.296875 55.28125 
z
" id="DejaVuSans-Oblique-72"/>
      <path d="M 48.09375 32.234375 
Q 48.25 33.015625 48.3125 33.84375 
Q 48.390625 34.671875 48.390625 35.5 
Q 48.390625 41.453125 44.890625 44.921875 
Q 41.40625 48.390625 35.40625 48.390625 
Q 28.71875 48.390625 23.578125 44.15625 
Q 18.453125 39.9375 15.828125 32.171875 
z
M 55.90625 25.203125 
L 14.109375 25.203125 
Q 13.8125 23.34375 13.71875 22.265625 
Q 13.625 21.1875 13.625 20.40625 
Q 13.625 13.625 17.796875 9.90625 
Q 21.96875 6.203125 29.59375 6.203125 
Q 35.453125 6.203125 40.671875 7.515625 
Q 45.90625 8.84375 50.390625 11.375 
L 48.6875 2.484375 
Q 43.84375 0.53125 38.6875 -0.4375 
Q 33.546875 -1.421875 28.21875 -1.421875 
Q 16.84375 -1.421875 10.71875 4.015625 
Q 4.59375 9.46875 4.59375 19.484375 
Q 4.59375 28.03125 7.640625 35.375 
Q 10.6875 42.71875 16.609375 48.484375 
Q 20.40625 52.09375 25.65625 54.046875 
Q 30.90625 56 36.8125 56 
Q 46.09375 56 51.578125 50.4375 
Q 57.078125 44.875 57.078125 35.5 
Q 57.078125 33.25 56.78125 30.6875 
Q 56.5 28.125 55.90625 25.203125 
z
" id="DejaVuSans-Oblique-65"/>
      <path id="DejaVuSans-20"/>
      <path d="M 31 75.875 
Q 24.46875 64.65625 21.28125 53.65625 
Q 18.109375 42.671875 18.109375 31.390625 
Q 18.109375 20.125 21.3125 9.0625 
Q 24.515625 -2 31 -13.1875 
L 23.1875 -13.1875 
Q 15.875 -1.703125 12.234375 9.375 
Q 8.59375 20.453125 8.59375 31.390625 
Q 8.59375 42.28125 12.203125 53.3125 
Q 15.828125 64.359375 23.1875 75.875 
z
" id="DejaVuSans-28"/>
      <path d="M 52 44.1875 
Q 55.375 50.25 60.0625 53.125 
Q 64.75 56 71.09375 56 
Q 79.640625 56 84.28125 50.015625 
Q 88.921875 44.046875 88.921875 33.015625 
L 88.921875 0 
L 79.890625 0 
L 79.890625 32.71875 
Q 79.890625 40.578125 77.09375 44.375 
Q 74.3125 48.1875 68.609375 48.1875 
Q 61.625 48.1875 57.5625 43.546875 
Q 53.515625 38.921875 53.515625 30.90625 
L 53.515625 0 
L 44.484375 0 
L 44.484375 32.71875 
Q 44.484375 40.625 41.703125 44.40625 
Q 38.921875 48.1875 33.109375 48.1875 
Q 26.21875 48.1875 22.15625 43.53125 
Q 18.109375 38.875 18.109375 30.90625 
L 18.109375 0 
L 9.078125 0 
L 9.078125 54.6875 
L 18.109375 54.6875 
L 18.109375 46.1875 
Q 21.1875 51.21875 25.484375 53.609375 
Q 29.78125 56 35.6875 56 
Q 41.65625 56 45.828125 52.96875 
Q 50 49.953125 52 44.1875 
z
" id="DejaVuSans-6d"/>
      <path d="M 44.28125 53.078125 
L 44.28125 44.578125 
Q 40.484375 46.53125 36.375 47.5 
Q 32.28125 48.484375 27.875 48.484375 
Q 21.1875 48.484375 17.84375 46.4375 
Q 14.5 44.390625 14.5 40.28125 
Q 14.5 37.15625 16.890625 35.375 
Q 19.28125 33.59375 26.515625 31.984375 
L 29.59375 31.296875 
Q 39.15625 29.25 43.1875 25.515625 
Q 47.21875 21.78125 47.21875 15.09375 
Q 47.21875 7.46875 41.1875 3.015625 
Q 35.15625 -1.421875 24.609375 -1.421875 
Q 20.21875 -1.421875 15.453125 -0.5625 
Q 10.6875 0.296875 5.421875 2 
L 5.421875 11.28125 
Q 10.40625 8.6875 15.234375 7.390625 
Q 20.0625 6.109375 24.8125 6.109375 
Q 31.15625 6.109375 34.5625 8.28125 
Q 37.984375 10.453125 37.984375 14.40625 
Q 37.984375 18.0625 35.515625 20.015625 
Q 33.0625 21.96875 24.703125 23.78125 
L 21.578125 24.515625 
Q 13.234375 26.265625 9.515625 29.90625 
Q 5.8125 33.546875 5.8125 39.890625 
Q 5.8125 47.609375 11.28125 51.796875 
Q 16.75 56 26.8125 56 
Q 31.78125 56 36.171875 55.265625 
Q 40.578125 54.546875 44.28125 53.078125 
z
" id="DejaVuSans-73"/>
      <path d="M 8.015625 75.875 
L 15.828125 75.875 
Q 23.140625 64.359375 26.78125 53.3125 
Q 30.421875 42.28125 30.421875 31.390625 
Q 30.421875 20.453125 26.78125 9.375 
Q 23.140625 -1.703125 15.828125 -13.1875 
L 8.015625 -13.1875 
Q 14.5 -2 17.703125 9.0625 
Q 20.90625 20.125 20.90625 31.390625 
Q 20.90625 42.671875 17.703125 53.65625 
Q 14.5 64.65625 8.015625 75.875 
z
" id="DejaVuSans-29"/>
     </defs>
     <g style="fill:#262626;" transform="translate(335.58125 533.790156)scale(0.3 -0.3)">
      <use transform="translate(0 0.125)" xlink:href="#DejaVuSans-Oblique-3c4"/>
      <use transform="translate(60.205078 -16.28125)scale(0.7)" xlink:href="#DejaVuSans-Oblique-7a"/>
      <use transform="translate(96.948242 -27.765625)scale(0.49)" xlink:href="#DejaVuSans-Oblique-70"/>
      <use transform="translate(128.051758 -27.765625)scale(0.49)" xlink:href="#DejaVuSans-Oblique-72"/>
      <use transform="translate(148.197266 -27.765625)scale(0.49)" xlink:href="#DejaVuSans-Oblique-65"/>
      <use transform="translate(182.992188 0.125)" xlink:href="#DejaVuSans-20"/>
      <use transform="translate(214.779297 0.125)" xlink:href="#DejaVuSans-28"/>
      <use transform="translate(253.792969 0.125)" xlink:href="#DejaVuSans-6d"/>
      <use transform="translate(351.205078 0.125)" xlink:href="#DejaVuSans-73"/>
      <use transform="translate(403.304688 0.125)" xlink:href="#DejaVuSans-29"/>
     </g>
    </g>
   </g>
   <g id="matplotlib.axis_2">
    <g id="ytick_1">
     <g id="line2d_5">
      <path clip-path="url(#p69d3388ec5)" d="M 67.23125 453.480112 
L 736.83125 453.480112 
" style="fill:none;stroke:#cccccc;stroke-linecap:round;"/>
     </g>
     <g id="text_6">
      <!-- 0 -->
      <g style="fill:#262626;" transform="translate(40.234375 463.927964)scale(0.275 -0.275)">
       <use xlink:href="#DejaVuSans-30"/>
      </g>
     </g>
    </g>
    <g id="ytick_2">
     <g id="line2d_6">
      <path clip-path="url(#p69d3388ec5)" d="M 67.23125 383.899312 
L 736.83125 383.899312 
" style="fill:none;stroke:#cccccc;stroke-linecap:round;"/>
     </g>
     <g id="text_7">
      <!-- 1 -->
      <g style="fill:#262626;" transform="translate(40.234375 394.347164)scale(0.275 -0.275)">
       <use xlink:href="#DejaVuSans-31"/>
      </g>
     </g>
    </g>
    <g id="ytick_3">
     <g id="line2d_7">
      <path clip-path="url(#p69d3388ec5)" d="M 67.23125 314.318512 
L 736.83125 314.318512 
" style="fill:none;stroke:#cccccc;stroke-linecap:round;"/>
     </g>
     <g id="text_8">
      <!-- 2 -->
      <defs>
       <path d="M 19.1875 8.296875 
L 53.609375 8.296875 
L 53.609375 0 
L 7.328125 0 
L 7.328125 8.296875 
Q 12.9375 14.109375 22.625 23.890625 
Q 32.328125 33.6875 34.8125 36.53125 
Q 39.546875 41.84375 41.421875 45.53125 
Q 43.3125 49.21875 43.3125 52.78125 
Q 43.3125 58.59375 39.234375 62.25 
Q 35.15625 65.921875 28.609375 65.921875 
Q 23.96875 65.921875 18.8125 64.3125 
Q 13.671875 62.703125 7.8125 59.421875 
L 7.8125 69.390625 
Q 13.765625 71.78125 18.9375 73 
Q 24.125 74.21875 28.421875 74.21875 
Q 39.75 74.21875 46.484375 68.546875 
Q 53.21875 62.890625 53.21875 53.421875 
Q 53.21875 48.921875 51.53125 44.890625 
Q 49.859375 40.875 45.40625 35.40625 
Q 44.1875 33.984375 37.640625 27.21875 
Q 31.109375 20.453125 19.1875 8.296875 
z
" id="DejaVuSans-32"/>
      </defs>
      <g style="fill:#262626;" transform="translate(40.234375 324.766364)scale(0.275 -0.275)">
       <use xlink:href="#DejaVuSans-32"/>
      </g>
     </g>
    </g>
    <g id="ytick_4">
     <g id="line2d_8">
      <path clip-path="url(#p69d3388ec5)" d="M 67.23125 244.737712 
L 736.83125 244.737712 
" style="fill:none;stroke:#cccccc;stroke-linecap:round;"/>
     </g>
     <g id="text_9">
      <!-- 3 -->
      <defs>
       <path d="M 40.578125 39.3125 
Q 47.65625 37.796875 51.625 33 
Q 55.609375 28.21875 55.609375 21.1875 
Q 55.609375 10.40625 48.1875 4.484375 
Q 40.765625 -1.421875 27.09375 -1.421875 
Q 22.515625 -1.421875 17.65625 -0.515625 
Q 12.796875 0.390625 7.625 2.203125 
L 7.625 11.71875 
Q 11.71875 9.328125 16.59375 8.109375 
Q 21.484375 6.890625 26.8125 6.890625 
Q 36.078125 6.890625 40.9375 10.546875 
Q 45.796875 14.203125 45.796875 21.1875 
Q 45.796875 27.640625 41.28125 31.265625 
Q 36.765625 34.90625 28.71875 34.90625 
L 20.21875 34.90625 
L 20.21875 43.015625 
L 29.109375 43.015625 
Q 36.375 43.015625 40.234375 45.921875 
Q 44.09375 48.828125 44.09375 54.296875 
Q 44.09375 59.90625 40.109375 62.90625 
Q 36.140625 65.921875 28.71875 65.921875 
Q 24.65625 65.921875 20.015625 65.03125 
Q 15.375 64.15625 9.8125 62.3125 
L 9.8125 71.09375 
Q 15.4375 72.65625 20.34375 73.4375 
Q 25.25 74.21875 29.59375 74.21875 
Q 40.828125 74.21875 47.359375 69.109375 
Q 53.90625 64.015625 53.90625 55.328125 
Q 53.90625 49.265625 50.4375 45.09375 
Q 46.96875 40.921875 40.578125 39.3125 
z
" id="DejaVuSans-33"/>
      </defs>
      <g style="fill:#262626;" transform="translate(40.234375 255.185564)scale(0.275 -0.275)">
       <use xlink:href="#DejaVuSans-33"/>
      </g>
     </g>
    </g>
    <g id="ytick_5">
     <g id="line2d_9">
      <path clip-path="url(#p69d3388ec5)" d="M 67.23125 175.156912 
L 736.83125 175.156912 
" style="fill:none;stroke:#cccccc;stroke-linecap:round;"/>
     </g>
     <g id="text_10">
      <!-- 4 -->
      <g style="fill:#262626;" transform="translate(40.234375 185.604764)scale(0.275 -0.275)">
       <use xlink:href="#DejaVuSans-34"/>
      </g>
     </g>
    </g>
    <g id="ytick_6">
     <g id="line2d_10">
      <path clip-path="url(#p69d3388ec5)" d="M 67.23125 105.576112 
L 736.83125 105.576112 
" style="fill:none;stroke:#cccccc;stroke-linecap:round;"/>
     </g>
     <g id="text_11">
      <!-- 5 -->
      <defs>
       <path d="M 10.796875 72.90625 
L 49.515625 72.90625 
L 49.515625 64.59375 
L 19.828125 64.59375 
L 19.828125 46.734375 
Q 21.96875 47.46875 24.109375 47.828125 
Q 26.265625 48.1875 28.421875 48.1875 
Q 40.625 48.1875 47.75 41.5 
Q 54.890625 34.8125 54.890625 23.390625 
Q 54.890625 11.625 47.5625 5.09375 
Q 40.234375 -1.421875 26.90625 -1.421875 
Q 22.3125 -1.421875 17.546875 -0.640625 
Q 12.796875 0.140625 7.71875 1.703125 
L 7.71875 11.625 
Q 12.109375 9.234375 16.796875 8.0625 
Q 21.484375 6.890625 26.703125 6.890625 
Q 35.15625 6.890625 40.078125 11.328125 
Q 45.015625 15.765625 45.015625 23.390625 
Q 45.015625 31 40.078125 35.4375 
Q 35.15625 39.890625 26.703125 39.890625 
Q 22.75 39.890625 18.8125 39.015625 
Q 14.890625 38.140625 10.796875 36.28125 
z
" id="DejaVuSans-35"/>
      </defs>
      <g style="fill:#262626;" transform="translate(40.234375 116.023964)scale(0.275 -0.275)">
       <use xlink:href="#DejaVuSans-35"/>
      </g>
     </g>
    </g>
    <g id="ytick_7">
     <g id="line2d_11">
      <path clip-path="url(#p69d3388ec5)" d="M 67.23125 35.995313 
L 736.83125 35.995313 
" style="fill:none;stroke:#cccccc;stroke-linecap:round;"/>
     </g>
     <g id="text_12">
      <!-- 6 -->
      <g style="fill:#262626;" transform="translate(40.234375 46.443164)scale(0.275 -0.275)">
       <use xlink:href="#DejaVuSans-36"/>
      </g>
     </g>
    </g>
    <g id="text_13">
     <!-- max dis. window -->
     <defs>
      <path d="M 34.28125 27.484375 
Q 23.390625 27.484375 19.1875 25 
Q 14.984375 22.515625 14.984375 16.5 
Q 14.984375 11.71875 18.140625 8.90625 
Q 21.296875 6.109375 26.703125 6.109375 
Q 34.1875 6.109375 38.703125 11.40625 
Q 43.21875 16.703125 43.21875 25.484375 
L 43.21875 27.484375 
z
M 52.203125 31.203125 
L 52.203125 0 
L 43.21875 0 
L 43.21875 8.296875 
Q 40.140625 3.328125 35.546875 0.953125 
Q 30.953125 -1.421875 24.3125 -1.421875 
Q 15.921875 -1.421875 10.953125 3.296875 
Q 6 8.015625 6 15.921875 
Q 6 25.140625 12.171875 29.828125 
Q 18.359375 34.515625 30.609375 34.515625 
L 43.21875 34.515625 
L 43.21875 35.40625 
Q 43.21875 41.609375 39.140625 45 
Q 35.0625 48.390625 27.6875 48.390625 
Q 23 48.390625 18.546875 47.265625 
Q 14.109375 46.140625 10.015625 43.890625 
L 10.015625 52.203125 
Q 14.9375 54.109375 19.578125 55.046875 
Q 24.21875 56 28.609375 56 
Q 40.484375 56 46.34375 49.84375 
Q 52.203125 43.703125 52.203125 31.203125 
z
" id="DejaVuSans-61"/>
      <path d="M 54.890625 54.6875 
L 35.109375 28.078125 
L 55.90625 0 
L 45.3125 0 
L 29.390625 21.484375 
L 13.484375 0 
L 2.875 0 
L 24.125 28.609375 
L 4.6875 54.6875 
L 15.28125 54.6875 
L 29.78125 35.203125 
L 44.28125 54.6875 
z
" id="DejaVuSans-78"/>
      <path d="M 45.40625 46.390625 
L 45.40625 75.984375 
L 54.390625 75.984375 
L 54.390625 0 
L 45.40625 0 
L 45.40625 8.203125 
Q 42.578125 3.328125 38.25 0.953125 
Q 33.9375 -1.421875 27.875 -1.421875 
Q 17.96875 -1.421875 11.734375 6.484375 
Q 5.515625 14.40625 5.515625 27.296875 
Q 5.515625 40.1875 11.734375 48.09375 
Q 17.96875 56 27.875 56 
Q 33.9375 56 38.25 53.625 
Q 42.578125 51.265625 45.40625 46.390625 
z
M 14.796875 27.296875 
Q 14.796875 17.390625 18.875 11.75 
Q 22.953125 6.109375 30.078125 6.109375 
Q 37.203125 6.109375 41.296875 11.75 
Q 45.40625 17.390625 45.40625 27.296875 
Q 45.40625 37.203125 41.296875 42.84375 
Q 37.203125 48.484375 30.078125 48.484375 
Q 22.953125 48.484375 18.875 42.84375 
Q 14.796875 37.203125 14.796875 27.296875 
z
" id="DejaVuSans-64"/>
      <path d="M 9.421875 54.6875 
L 18.40625 54.6875 
L 18.40625 0 
L 9.421875 0 
z
M 9.421875 75.984375 
L 18.40625 75.984375 
L 18.40625 64.59375 
L 9.421875 64.59375 
z
" id="DejaVuSans-69"/>
      <path d="M 10.6875 12.40625 
L 21 12.40625 
L 21 0 
L 10.6875 0 
z
" id="DejaVuSans-2e"/>
      <path d="M 4.203125 54.6875 
L 13.1875 54.6875 
L 24.421875 12.015625 
L 35.59375 54.6875 
L 46.1875 54.6875 
L 57.421875 12.015625 
L 68.609375 54.6875 
L 77.59375 54.6875 
L 63.28125 0 
L 52.6875 0 
L 40.921875 44.828125 
L 29.109375 0 
L 18.5 0 
z
" id="DejaVuSans-77"/>
      <path d="M 54.890625 33.015625 
L 54.890625 0 
L 45.90625 0 
L 45.90625 32.71875 
Q 45.90625 40.484375 42.875 44.328125 
Q 39.84375 48.1875 33.796875 48.1875 
Q 26.515625 48.1875 22.3125 43.546875 
Q 18.109375 38.921875 18.109375 30.90625 
L 18.109375 0 
L 9.078125 0 
L 9.078125 54.6875 
L 18.109375 54.6875 
L 18.109375 46.1875 
Q 21.34375 51.125 25.703125 53.5625 
Q 30.078125 56 35.796875 56 
Q 45.21875 56 50.046875 50.171875 
Q 54.890625 44.34375 54.890625 33.015625 
z
" id="DejaVuSans-6e"/>
      <path d="M 30.609375 48.390625 
Q 23.390625 48.390625 19.1875 42.75 
Q 14.984375 37.109375 14.984375 27.296875 
Q 14.984375 17.484375 19.15625 11.84375 
Q 23.34375 6.203125 30.609375 6.203125 
Q 37.796875 6.203125 41.984375 11.859375 
Q 46.1875 17.53125 46.1875 27.296875 
Q 46.1875 37.015625 41.984375 42.703125 
Q 37.796875 48.390625 30.609375 48.390625 
z
M 30.609375 56 
Q 42.328125 56 49.015625 48.375 
Q 55.71875 40.765625 55.71875 27.296875 
Q 55.71875 13.875 49.015625 6.21875 
Q 42.328125 -1.421875 30.609375 -1.421875 
Q 18.84375 -1.421875 12.171875 6.21875 
Q 5.515625 13.875 5.515625 27.296875 
Q 5.515625 40.765625 12.171875 48.375 
Q 18.84375 56 30.609375 56 
z
" id="DejaVuSans-6f"/>
     </defs>
     <g style="fill:#262626;" transform="translate(29.995313 378.830625)rotate(-90)scale(0.3 -0.3)">
      <use xlink:href="#DejaVuSans-6d"/>
      <use x="97.412109" xlink:href="#DejaVuSans-61"/>
      <use x="158.691406" xlink:href="#DejaVuSans-78"/>
      <use x="217.871094" xlink:href="#DejaVuSans-20"/>
      <use x="249.658203" xlink:href="#DejaVuSans-64"/>
      <use x="313.134766" xlink:href="#DejaVuSans-69"/>
      <use x="340.917969" xlink:href="#DejaVuSans-73"/>
      <use x="393.017578" xlink:href="#DejaVuSans-2e"/>
      <use x="424.804688" xlink:href="#DejaVuSans-20"/>
      <use x="456.591797" xlink:href="#DejaVuSans-77"/>
      <use x="538.378906" xlink:href="#DejaVuSans-69"/>
      <use x="566.162109" xlink:href="#DejaVuSans-6e"/>
      <use x="629.541016" xlink:href="#DejaVuSans-64"/>
      <use x="693.017578" xlink:href="#DejaVuSans-6f"/>
      <use x="754.199219" xlink:href="#DejaVuSans-77"/>
     </g>
    </g>
   </g>
   <g id="line2d_12">
    <path clip-path="url(#p69d3388ec5)" d="M 97.667614 314.318512 
L 123.03125 314.318512 
L 148.394886 244.737712 
L 173.758523 244.737712 
L 199.122159 244.737712 
L 224.485795 244.737712 
L 249.849432 244.737712 
L 275.213068 175.156912 
L 300.576705 175.156912 
L 325.940341 175.156912 
L 351.303977 175.156912 
L 376.667614 175.156912 
L 402.03125 175.156912 
L 427.394886 175.156912 
L 452.758523 105.576112 
L 478.122159 175.156912 
L 503.485795 175.156912 
L 528.849432 175.156912 
L 554.213068 175.156912 
L 579.576705 175.156912 
L 604.940341 175.156912 
L 630.303977 244.737712 
L 655.667614 244.737712 
L 681.03125 244.737712 
L 706.394886 453.480112 
" style="fill:none;stroke:#4c72b0;stroke-linecap:round;stroke-width:10;"/>
    <defs>
     <path d="M 0 11 
C 2.917234 11 5.715379 9.840971 7.778175 7.778175 
C 9.840971 5.715379 11 2.917234 11 0 
C 11 -2.917234 9.840971 -5.715379 7.778175 -7.778175 
C 5.715379 -9.840971 2.917234 -11 0 -11 
C -2.917234 -11 -5.715379 -9.840971 -7.778175 -7.778175 
C -9.840971 -5.715379 -11 -2.917234 -11 0 
C -11 2.917234 -9.840971 5.715379 -7.778175 7.778175 
C -5.715379 9.840971 -2.917234 11 0 11 
z
" id="mac621e9215" style="stroke:#4c72b0;"/>
    </defs>
    <g clip-path="url(#p69d3388ec5)">
     <use style="fill:#4c72b0;stroke:#4c72b0;" x="97.667614" xlink:href="#mac621e9215" y="314.318512"/>
     <use style="fill:#4c72b0;stroke:#4c72b0;" x="123.03125" xlink:href="#mac621e9215" y="314.318512"/>
     <use style="fill:#4c72b0;stroke:#4c72b0;" x="148.394886" xlink:href="#mac621e9215" y="244.737712"/>
     <use style="fill:#4c72b0;stroke:#4c72b0;" x="173.758523" xlink:href="#mac621e9215" y="244.737712"/>
     <use style="fill:#4c72b0;stroke:#4c72b0;" x="199.122159" xlink:href="#mac621e9215" y="244.737712"/>
     <use style="fill:#4c72b0;stroke:#4c72b0;" x="224.485795" xlink:href="#mac621e9215" y="244.737712"/>
     <use style="fill:#4c72b0;stroke:#4c72b0;" x="249.849432" xlink:href="#mac621e9215" y="244.737712"/>
     <use style="fill:#4c72b0;stroke:#4c72b0;" x="275.213068" xlink:href="#mac621e9215" y="175.156912"/>
     <use style="fill:#4c72b0;stroke:#4c72b0;" x="300.576705" xlink:href="#mac621e9215" y="175.156912"/>
     <use style="fill:#4c72b0;stroke:#4c72b0;" x="325.940341" xlink:href="#mac621e9215" y="175.156912"/>
     <use style="fill:#4c72b0;stroke:#4c72b0;" x="351.303977" xlink:href="#mac621e9215" y="175.156912"/>
     <use style="fill:#4c72b0;stroke:#4c72b0;" x="376.667614" xlink:href="#mac621e9215" y="175.156912"/>
     <use style="fill:#4c72b0;stroke:#4c72b0;" x="402.03125" xlink:href="#mac621e9215" y="175.156912"/>
     <use style="fill:#4c72b0;stroke:#4c72b0;" x="427.394886" xlink:href="#mac621e9215" y="175.156912"/>
     <use style="fill:#4c72b0;stroke:#4c72b0;" x="452.758523" xlink:href="#mac621e9215" y="105.576112"/>
     <use style="fill:#4c72b0;stroke:#4c72b0;" x="478.122159" xlink:href="#mac621e9215" y="175.156912"/>
     <use style="fill:#4c72b0;stroke:#4c72b0;" x="503.485795" xlink:href="#mac621e9215" y="175.156912"/>
     <use style="fill:#4c72b0;stroke:#4c72b0;" x="528.849432" xlink:href="#mac621e9215" y="175.156912"/>
     <use style="fill:#4c72b0;stroke:#4c72b0;" x="554.213068" xlink:href="#mac621e9215" y="175.156912"/>
     <use style="fill:#4c72b0;stroke:#4c72b0;" x="579.576705" xlink:href="#mac621e9215" y="175.156912"/>
     <use style="fill:#4c72b0;stroke:#4c72b0;" x="604.940341" xlink:href="#mac621e9215" y="175.156912"/>
     <use style="fill:#4c72b0;stroke:#4c72b0;" x="630.303977" xlink:href="#mac621e9215" y="244.737712"/>
     <use style="fill:#4c72b0;stroke:#4c72b0;" x="655.667614" xlink:href="#mac621e9215" y="244.737712"/>
     <use style="fill:#4c72b0;stroke:#4c72b0;" x="681.03125" xlink:href="#mac621e9215" y="244.737712"/>
     <use style="fill:#4c72b0;stroke:#4c72b0;" x="706.394886" xlink:href="#mac621e9215" y="453.480112"/>
    </g>
   </g>
   <g id="line2d_13">
    <path clip-path="url(#p69d3388ec5)" d="M 97.667614 314.318512 
L 123.03125 314.318512 
L 148.394886 314.318512 
L 173.758523 314.318512 
L 199.122159 244.737712 
L 224.485795 244.737712 
L 249.849432 244.737712 
L 275.213068 244.737712 
L 300.576705 244.737712 
L 325.940341 244.737712 
L 351.303977 175.156912 
L 376.667614 175.156912 
L 402.03125 175.156912 
L 427.394886 175.156912 
L 452.758523 244.737712 
L 478.122159 244.737712 
L 503.485795 244.737712 
L 528.849432 244.737712 
L 554.213068 244.737712 
L 579.576705 314.318512 
L 604.940341 453.480112 
L 630.303977 453.480112 
L 655.667614 453.480112 
L 681.03125 453.480112 
L 706.394886 453.480112 
" style="fill:none;stroke:#dd8452;stroke-linecap:round;stroke-width:10;"/>
    <defs>
     <path d="M 0 11 
C 2.917234 11 5.715379 9.840971 7.778175 7.778175 
C 9.840971 5.715379 11 2.917234 11 0 
C 11 -2.917234 9.840971 -5.715379 7.778175 -7.778175 
C 5.715379 -9.840971 2.917234 -11 0 -11 
C -2.917234 -11 -5.715379 -9.840971 -7.778175 -7.778175 
C -9.840971 -5.715379 -11 -2.917234 -11 0 
C -11 2.917234 -9.840971 5.715379 -7.778175 7.778175 
C -5.715379 9.840971 -2.917234 11 0 11 
z
" id="m32f131d2dd" style="stroke:#dd8452;"/>
    </defs>
    <g clip-path="url(#p69d3388ec5)">
     <use style="fill:#dd8452;stroke:#dd8452;" x="97.667614" xlink:href="#m32f131d2dd" y="314.318512"/>
     <use style="fill:#dd8452;stroke:#dd8452;" x="123.03125" xlink:href="#m32f131d2dd" y="314.318512"/>
     <use style="fill:#dd8452;stroke:#dd8452;" x="148.394886" xlink:href="#m32f131d2dd" y="314.318512"/>
     <use style="fill:#dd8452;stroke:#dd8452;" x="173.758523" xlink:href="#m32f131d2dd" y="314.318512"/>
     <use style="fill:#dd8452;stroke:#dd8452;" x="199.122159" xlink:href="#m32f131d2dd" y="244.737712"/>
     <use style="fill:#dd8452;stroke:#dd8452;" x="224.485795" xlink:href="#m32f131d2dd" y="244.737712"/>
     <use style="fill:#dd8452;stroke:#dd8452;" x="249.849432" xlink:href="#m32f131d2dd" y="244.737712"/>
     <use style="fill:#dd8452;stroke:#dd8452;" x="275.213068" xlink:href="#m32f131d2dd" y="244.737712"/>
     <use style="fill:#dd8452;stroke:#dd8452;" x="300.576705" xlink:href="#m32f131d2dd" y="244.737712"/>
     <use style="fill:#dd8452;stroke:#dd8452;" x="325.940341" xlink:href="#m32f131d2dd" y="244.737712"/>
     <use style="fill:#dd8452;stroke:#dd8452;" x="351.303977" xlink:href="#m32f131d2dd" y="175.156912"/>
     <use style="fill:#dd8452;stroke:#dd8452;" x="376.667614" xlink:href="#m32f131d2dd" y="175.156912"/>
     <use style="fill:#dd8452;stroke:#dd8452;" x="402.03125" xlink:href="#m32f131d2dd" y="175.156912"/>
     <use style="fill:#dd8452;stroke:#dd8452;" x="427.394886" xlink:href="#m32f131d2dd" y="175.156912"/>
     <use style="fill:#dd8452;stroke:#dd8452;" x="452.758523" xlink:href="#m32f131d2dd" y="244.737712"/>
     <use style="fill:#dd8452;stroke:#dd8452;" x="478.122159" xlink:href="#m32f131d2dd" y="244.737712"/>
     <use style="fill:#dd8452;stroke:#dd8452;" x="503.485795" xlink:href="#m32f131d2dd" y="244.737712"/>
     <use style="fill:#dd8452;stroke:#dd8452;" x="528.849432" xlink:href="#m32f131d2dd" y="244.737712"/>
     <use style="fill:#dd8452;stroke:#dd8452;" x="554.213068" xlink:href="#m32f131d2dd" y="244.737712"/>
     <use style="fill:#dd8452;stroke:#dd8452;" x="579.576705" xlink:href="#m32f131d2dd" y="314.318512"/>
     <use style="fill:#dd8452;stroke:#dd8452;" x="604.940341" xlink:href="#m32f131d2dd" y="453.480112"/>
     <use style="fill:#dd8452;stroke:#dd8452;" x="630.303977" xlink:href="#m32f131d2dd" y="453.480112"/>
     <use style="fill:#dd8452;stroke:#dd8452;" x="655.667614" xlink:href="#m32f131d2dd" y="453.480112"/>
     <use style="fill:#dd8452;stroke:#dd8452;" x="681.03125" xlink:href="#m32f131d2dd" y="453.480112"/>
     <use style="fill:#dd8452;stroke:#dd8452;" x="706.394886" xlink:href="#m32f131d2dd" y="453.480112"/>
    </g>
   </g>
   <g id="line2d_14">
    <path clip-path="url(#p69d3388ec5)" d="M 97.667614 314.318512 
L 123.03125 314.318512 
L 148.394886 314.318512 
L 173.758523 314.318512 
L 199.122159 314.318512 
L 224.485795 244.737712 
L 249.849432 244.737712 
L 275.213068 244.737712 
L 300.576705 244.737712 
L 325.940341 244.737712 
L 351.303977 244.737712 
L 376.667614 244.737712 
L 402.03125 453.480112 
L 427.394886 453.480112 
L 452.758523 453.480112 
L 478.122159 453.480112 
L 503.485795 453.480112 
L 528.849432 453.480112 
L 554.213068 453.480112 
L 579.576705 453.480112 
L 604.940341 453.480112 
L 630.303977 453.480112 
L 655.667614 453.480112 
L 681.03125 453.480112 
L 706.394886 453.480112 
" style="fill:none;stroke:#55a868;stroke-linecap:round;stroke-width:10;"/>
    <defs>
     <path d="M 0 11 
C 2.917234 11 5.715379 9.840971 7.778175 7.778175 
C 9.840971 5.715379 11 2.917234 11 0 
C 11 -2.917234 9.840971 -5.715379 7.778175 -7.778175 
C 5.715379 -9.840971 2.917234 -11 0 -11 
C -2.917234 -11 -5.715379 -9.840971 -7.778175 -7.778175 
C -9.840971 -5.715379 -11 -2.917234 -11 0 
C -11 2.917234 -9.840971 5.715379 -7.778175 7.778175 
C -5.715379 9.840971 -2.917234 11 0 11 
z
" id="ma5c3a54cc2" style="stroke:#55a868;"/>
    </defs>
    <g clip-path="url(#p69d3388ec5)">
     <use style="fill:#55a868;stroke:#55a868;" x="97.667614" xlink:href="#ma5c3a54cc2" y="314.318512"/>
     <use style="fill:#55a868;stroke:#55a868;" x="123.03125" xlink:href="#ma5c3a54cc2" y="314.318512"/>
     <use style="fill:#55a868;stroke:#55a868;" x="148.394886" xlink:href="#ma5c3a54cc2" y="314.318512"/>
     <use style="fill:#55a868;stroke:#55a868;" x="173.758523" xlink:href="#ma5c3a54cc2" y="314.318512"/>
     <use style="fill:#55a868;stroke:#55a868;" x="199.122159" xlink:href="#ma5c3a54cc2" y="314.318512"/>
     <use style="fill:#55a868;stroke:#55a868;" x="224.485795" xlink:href="#ma5c3a54cc2" y="244.737712"/>
     <use style="fill:#55a868;stroke:#55a868;" x="249.849432" xlink:href="#ma5c3a54cc2" y="244.737712"/>
     <use style="fill:#55a868;stroke:#55a868;" x="275.213068" xlink:href="#ma5c3a54cc2" y="244.737712"/>
     <use style="fill:#55a868;stroke:#55a868;" x="300.576705" xlink:href="#ma5c3a54cc2" y="244.737712"/>
     <use style="fill:#55a868;stroke:#55a868;" x="325.940341" xlink:href="#ma5c3a54cc2" y="244.737712"/>
     <use style="fill:#55a868;stroke:#55a868;" x="351.303977" xlink:href="#ma5c3a54cc2" y="244.737712"/>
     <use style="fill:#55a868;stroke:#55a868;" x="376.667614" xlink:href="#ma5c3a54cc2" y="244.737712"/>
     <use style="fill:#55a868;stroke:#55a868;" x="402.03125" xlink:href="#ma5c3a54cc2" y="453.480112"/>
     <use style="fill:#55a868;stroke:#55a868;" x="427.394886" xlink:href="#ma5c3a54cc2" y="453.480112"/>
     <use style="fill:#55a868;stroke:#55a868;" x="452.758523" xlink:href="#ma5c3a54cc2" y="453.480112"/>
     <use style="fill:#55a868;stroke:#55a868;" x="478.122159" xlink:href="#ma5c3a54cc2" y="453.480112"/>
     <use style="fill:#55a868;stroke:#55a868;" x="503.485795" xlink:href="#ma5c3a54cc2" y="453.480112"/>
     <use style="fill:#55a868;stroke:#55a868;" x="528.849432" xlink:href="#ma5c3a54cc2" y="453.480112"/>
     <use style="fill:#55a868;stroke:#55a868;" x="554.213068" xlink:href="#ma5c3a54cc2" y="453.480112"/>
     <use style="fill:#55a868;stroke:#55a868;" x="579.576705" xlink:href="#ma5c3a54cc2" y="453.480112"/>
     <use style="fill:#55a868;stroke:#55a868;" x="604.940341" xlink:href="#ma5c3a54cc2" y="453.480112"/>
     <use style="fill:#55a868;stroke:#55a868;" x="630.303977" xlink:href="#ma5c3a54cc2" y="453.480112"/>
     <use style="fill:#55a868;stroke:#55a868;" x="655.667614" xlink:href="#ma5c3a54cc2" y="453.480112"/>
     <use style="fill:#55a868;stroke:#55a868;" x="681.03125" xlink:href="#ma5c3a54cc2" y="453.480112"/>
     <use style="fill:#55a868;stroke:#55a868;" x="706.394886" xlink:href="#ma5c3a54cc2" y="453.480112"/>
    </g>
   </g>
   <g id="patch_3">
    <path d="M 67.23125 470.875312 
L 67.23125 35.995313 
" style="fill:none;stroke:#cccccc;stroke-linecap:square;stroke-linejoin:miter;stroke-width:1.25;"/>
   </g>
   <g id="patch_4">
    <path d="M 736.83125 470.875312 
L 736.83125 35.995313 
" style="fill:none;stroke:#cccccc;stroke-linecap:square;stroke-linejoin:miter;stroke-width:1.25;"/>
   </g>
   <g id="patch_5">
    <path d="M 67.23125 470.875312 
L 736.83125 470.875312 
" style="fill:none;stroke:#cccccc;stroke-linecap:square;stroke-linejoin:miter;stroke-width:1.25;"/>
   </g>
   <g id="patch_6">
    <path d="M 67.23125 35.995312 
L 736.83125 35.995312 
" style="fill:none;stroke:#cccccc;stroke-linecap:square;stroke-linejoin:miter;stroke-width:1.25;"/>
   </g>
   <g id="text_14">
    <!-- success rate &gt; 80 % -->
    <defs>
     <path d="M 8.5 21.578125 
L 8.5 54.6875 
L 17.484375 54.6875 
L 17.484375 21.921875 
Q 17.484375 14.15625 20.5 10.265625 
Q 23.53125 6.390625 29.59375 6.390625 
Q 36.859375 6.390625 41.078125 11.03125 
Q 45.3125 15.671875 45.3125 23.6875 
L 45.3125 54.6875 
L 54.296875 54.6875 
L 54.296875 0 
L 45.3125 0 
L 45.3125 8.40625 
Q 42.046875 3.421875 37.71875 1 
Q 33.40625 -1.421875 27.6875 -1.421875 
Q 18.265625 -1.421875 13.375 4.4375 
Q 8.5 10.296875 8.5 21.578125 
z
M 31.109375 56 
z
" id="DejaVuSans-75"/>
     <path d="M 48.78125 52.59375 
L 48.78125 44.1875 
Q 44.96875 46.296875 41.140625 47.34375 
Q 37.3125 48.390625 33.40625 48.390625 
Q 24.65625 48.390625 19.8125 42.84375 
Q 14.984375 37.3125 14.984375 27.296875 
Q 14.984375 17.28125 19.8125 11.734375 
Q 24.65625 6.203125 33.40625 6.203125 
Q 37.3125 6.203125 41.140625 7.25 
Q 44.96875 8.296875 48.78125 10.40625 
L 48.78125 2.09375 
Q 45.015625 0.34375 40.984375 -0.53125 
Q 36.96875 -1.421875 32.421875 -1.421875 
Q 20.0625 -1.421875 12.78125 6.34375 
Q 5.515625 14.109375 5.515625 27.296875 
Q 5.515625 40.671875 12.859375 48.328125 
Q 20.21875 56 33.015625 56 
Q 37.15625 56 41.109375 55.140625 
Q 45.0625 54.296875 48.78125 52.59375 
z
" id="DejaVuSans-63"/>
     <path d="M 56.203125 29.59375 
L 56.203125 25.203125 
L 14.890625 25.203125 
Q 15.484375 15.921875 20.484375 11.0625 
Q 25.484375 6.203125 34.421875 6.203125 
Q 39.59375 6.203125 44.453125 7.46875 
Q 49.3125 8.734375 54.109375 11.28125 
L 54.109375 2.78125 
Q 49.265625 0.734375 44.1875 -0.34375 
Q 39.109375 -1.421875 33.890625 -1.421875 
Q 20.796875 -1.421875 13.15625 6.1875 
Q 5.515625 13.8125 5.515625 26.8125 
Q 5.515625 40.234375 12.765625 48.109375 
Q 20.015625 56 32.328125 56 
Q 43.359375 56 49.78125 48.890625 
Q 56.203125 41.796875 56.203125 29.59375 
z
M 47.21875 32.234375 
Q 47.125 39.59375 43.09375 43.984375 
Q 39.0625 48.390625 32.421875 48.390625 
Q 24.90625 48.390625 20.390625 44.140625 
Q 15.875 39.890625 15.1875 32.171875 
z
" id="DejaVuSans-65"/>
     <path d="M 41.109375 46.296875 
Q 39.59375 47.171875 37.8125 47.578125 
Q 36.03125 48 33.890625 48 
Q 26.265625 48 22.1875 43.046875 
Q 18.109375 38.09375 18.109375 28.8125 
L 18.109375 0 
L 9.078125 0 
L 9.078125 54.6875 
L 18.109375 54.6875 
L 18.109375 46.1875 
Q 20.953125 51.171875 25.484375 53.578125 
Q 30.03125 56 36.53125 56 
Q 37.453125 56 38.578125 55.875 
Q 39.703125 55.765625 41.0625 55.515625 
z
" id="DejaVuSans-72"/>
     <path d="M 18.3125 70.21875 
L 18.3125 54.6875 
L 36.8125 54.6875 
L 36.8125 47.703125 
L 18.3125 47.703125 
L 18.3125 18.015625 
Q 18.3125 11.328125 20.140625 9.421875 
Q 21.96875 7.515625 27.59375 7.515625 
L 36.8125 7.515625 
L 36.8125 0 
L 27.59375 0 
Q 17.1875 0 13.234375 3.875 
Q 9.28125 7.765625 9.28125 18.015625 
L 9.28125 47.703125 
L 2.6875 47.703125 
L 2.6875 54.6875 
L 9.28125 54.6875 
L 9.28125 70.21875 
z
" id="DejaVuSans-74"/>
     <path d="M 10.59375 49.21875 
L 10.59375 58.109375 
L 73.1875 35.40625 
L 73.1875 27.296875 
L 10.59375 4.59375 
L 10.59375 13.484375 
L 60.890625 31.296875 
z
" id="DejaVuSans-3e"/>
     <path d="M 72.703125 32.078125 
Q 68.453125 32.078125 66.03125 28.46875 
Q 63.625 24.859375 63.625 18.40625 
Q 63.625 12.0625 66.03125 8.421875 
Q 68.453125 4.78125 72.703125 4.78125 
Q 76.859375 4.78125 79.265625 8.421875 
Q 81.6875 12.0625 81.6875 18.40625 
Q 81.6875 24.8125 79.265625 28.4375 
Q 76.859375 32.078125 72.703125 32.078125 
z
M 72.703125 38.28125 
Q 80.421875 38.28125 84.953125 32.90625 
Q 89.5 27.546875 89.5 18.40625 
Q 89.5 9.28125 84.9375 3.921875 
Q 80.375 -1.421875 72.703125 -1.421875 
Q 64.890625 -1.421875 60.34375 3.921875 
Q 55.8125 9.28125 55.8125 18.40625 
Q 55.8125 27.59375 60.375 32.9375 
Q 64.9375 38.28125 72.703125 38.28125 
z
M 22.3125 68.015625 
Q 18.109375 68.015625 15.6875 64.375 
Q 13.28125 60.75 13.28125 54.390625 
Q 13.28125 47.953125 15.671875 44.328125 
Q 18.0625 40.71875 22.3125 40.71875 
Q 26.5625 40.71875 28.96875 44.328125 
Q 31.390625 47.953125 31.390625 54.390625 
Q 31.390625 60.6875 28.953125 64.34375 
Q 26.515625 68.015625 22.3125 68.015625 
z
M 66.40625 74.21875 
L 74.21875 74.21875 
L 28.609375 -1.421875 
L 20.796875 -1.421875 
z
M 22.3125 74.21875 
Q 30.03125 74.21875 34.609375 68.875 
Q 39.203125 63.53125 39.203125 54.390625 
Q 39.203125 45.171875 34.640625 39.84375 
Q 30.078125 34.515625 22.3125 34.515625 
Q 14.546875 34.515625 10.03125 39.859375 
Q 5.515625 45.21875 5.515625 54.390625 
Q 5.515625 63.484375 10.046875 68.84375 
Q 14.59375 74.21875 22.3125 74.21875 
z
" id="DejaVuSans-25"/>
    </defs>
    <g style="fill:#262626;" transform="translate(247.910938 29.995312)scale(0.3 -0.3)">
     <use xlink:href="#DejaVuSans-73"/>
     <use x="52.099609" xlink:href="#DejaVuSans-75"/>
     <use x="115.478516" xlink:href="#DejaVuSans-63"/>
     <use x="170.458984" xlink:href="#DejaVuSans-63"/>
     <use x="225.439453" xlink:href="#DejaVuSans-65"/>
     <use x="286.962891" xlink:href="#DejaVuSans-73"/>
     <use x="339.0625" xlink:href="#DejaVuSans-73"/>
     <use x="391.162109" xlink:href="#DejaVuSans-20"/>
     <use x="422.949219" xlink:href="#DejaVuSans-72"/>
     <use x="464.0625" xlink:href="#DejaVuSans-61"/>
     <use x="525.341797" xlink:href="#DejaVuSans-74"/>
     <use x="564.550781" xlink:href="#DejaVuSans-65"/>
     <use x="626.074219" xlink:href="#DejaVuSans-20"/>
     <use x="657.861328" xlink:href="#DejaVuSans-3e"/>
     <use x="741.650391" xlink:href="#DejaVuSans-20"/>
     <use x="773.4375" xlink:href="#DejaVuSans-38"/>
     <use x="837.060547" xlink:href="#DejaVuSans-30"/>
     <use x="900.683594" xlink:href="#DejaVuSans-20"/>
     <use x="932.470703" xlink:href="#DejaVuSans-25"/>
    </g>
   </g>
   <g id="legend_1">
    <g id="line2d_15">
     <path d="M 77.56165 64.011172 
L 132.56165 64.011172 
" style="fill:none;stroke:#4c72b0;stroke-linecap:round;stroke-width:10;"/>
    </g>
    <g id="line2d_16">
     <g>
      <use style="fill:#4c72b0;stroke:#4c72b0;" x="105.06165" xlink:href="#mac621e9215" y="64.011172"/>
     </g>
    </g>
    <g id="text_15">
     <!-- $\sigma = $0.05 -->
     <defs>
      <path d="M 34.671875 47.5625 
Q 27.25 47.5625 22.21875 42.1875 
Q 16.890625 36.578125 15.140625 27.296875 
Q 13.1875 17.484375 16.3125 11.8125 
Q 19.390625 6.203125 26.65625 6.203125 
Q 33.84375 6.203125 39.109375 11.859375 
Q 44.4375 17.53125 46.34375 27.296875 
Q 48.046875 36.234375 45.015625 42.1875 
Q 42.1875 47.5625 34.671875 47.5625 
z
M 36.078125 54.734375 
L 65.921875 54.6875 
L 64.15625 45.703125 
L 54.109375 45.703125 
Q 57.90625 38.09375 55.859375 27.296875 
Q 53.21875 13.875 45.0625 6.25 
Q 36.859375 -1.421875 25.140625 -1.421875 
Q 13.375 -1.421875 8.203125 6.25 
Q 3.03125 13.875 5.671875 27.296875 
Q 8.25 40.765625 16.40625 48.390625 
Q 23.1875 54.734375 36.078125 54.734375 
z
" id="DejaVuSans-Oblique-3c3"/>
      <path d="M 10.59375 45.40625 
L 73.1875 45.40625 
L 73.1875 37.203125 
L 10.59375 37.203125 
z
M 10.59375 25.484375 
L 73.1875 25.484375 
L 73.1875 17.1875 
L 10.59375 17.1875 
z
" id="DejaVuSans-3d"/>
     </defs>
     <g style="fill:#262626;" transform="translate(154.56165 73.636172)scale(0.275 -0.275)">
      <use transform="translate(0 0.78125)" xlink:href="#DejaVuSans-Oblique-3c3"/>
      <use transform="translate(82.861328 0.78125)" xlink:href="#DejaVuSans-3d"/>
      <use transform="translate(186.132812 0.78125)" xlink:href="#DejaVuSans-30"/>
      <use transform="translate(249.755859 0.78125)" xlink:href="#DejaVuSans-2e"/>
      <use transform="translate(281.542969 0.78125)" xlink:href="#DejaVuSans-30"/>
      <use transform="translate(345.166016 0.78125)" xlink:href="#DejaVuSans-35"/>
     </g>
    </g>
    <g id="line2d_17">
     <path d="M 322.03665 64.011172 
L 377.03665 64.011172 
" style="fill:none;stroke:#dd8452;stroke-linecap:round;stroke-width:10;"/>
    </g>
    <g id="line2d_18">
     <g>
      <use style="fill:#dd8452;stroke:#dd8452;" x="349.53665" xlink:href="#m32f131d2dd" y="64.011172"/>
     </g>
    </g>
    <g id="text_16">
     <!-- $\sigma = $0.1 -->
     <g style="fill:#262626;" transform="translate(399.03665 73.636172)scale(0.275 -0.275)">
      <use transform="translate(0 0.78125)" xlink:href="#DejaVuSans-Oblique-3c3"/>
      <use transform="translate(82.861328 0.78125)" xlink:href="#DejaVuSans-3d"/>
      <use transform="translate(186.132812 0.78125)" xlink:href="#DejaVuSans-30"/>
      <use transform="translate(249.755859 0.78125)" xlink:href="#DejaVuSans-2e"/>
      <use transform="translate(281.542969 0.78125)" xlink:href="#DejaVuSans-31"/>
     </g>
    </g>
    <g id="line2d_19">
     <path d="M 549.18665 64.011172 
L 604.18665 64.011172 
" style="fill:none;stroke:#55a868;stroke-linecap:round;stroke-width:10;"/>
    </g>
    <g id="line2d_20">
     <g>
      <use style="fill:#55a868;stroke:#55a868;" x="576.68665" xlink:href="#ma5c3a54cc2" y="64.011172"/>
     </g>
    </g>
    <g id="text_17">
     <!-- $\sigma = $0.15 -->
     <g style="fill:#262626;" transform="translate(626.18665 73.636172)scale(0.275 -0.275)">
      <use transform="translate(0 0.78125)" xlink:href="#DejaVuSans-Oblique-3c3"/>
      <use transform="translate(82.861328 0.78125)" xlink:href="#DejaVuSans-3d"/>
      <use transform="translate(186.132812 0.78125)" xlink:href="#DejaVuSans-30"/>
      <use transform="translate(249.755859 0.78125)" xlink:href="#DejaVuSans-2e"/>
      <use transform="translate(281.542969 0.78125)" xlink:href="#DejaVuSans-31"/>
      <use transform="translate(345.166016 0.78125)" xlink:href="#DejaVuSans-35"/>
     </g>
    </g>
   </g>
  </g>
 </g>
 <defs>
  <clipPath id="p69d3388ec5">
   <rect height="434.88" width="669.6" x="67.23125" y="35.995312"/>
  </clipPath>
 </defs>
</svg>
