<?xml version="1.0" encoding="utf-8" standalone="no"?>
<!DOCTYPE svg PUBLIC "-//W3C//DTD SVG 1.1//EN"
  "http://www.w3.org/Graphics/SVG/1.1/DTD/svg11.dtd">
<!-- Created with matplotlib (https://matplotlib.org/) -->
<svg height="546.688906pt" version="1.1" viewBox="0 0 836.295746 546.688906" width="836.295746pt" xmlns="http://www.w3.org/2000/svg" xmlns:xlink="http://www.w3.org/1999/xlink">
 <defs>
  <style type="text/css">
*{stroke-linecap:butt;stroke-linejoin:round;}
  </style>
 </defs>
 <g id="figure_1">
  <g id="patch_1">
   <path d="M 0 546.688906 
L 836.295746 546.688906 
L 836.295746 0 
L 0 0 
z
" style="fill:none;"/>
  </g>
  <g id="axes_1">
   <g id="patch_2">
    <path d="M 147.070781 448.08 
L 816.670781 448.08 
L 816.670781 13.2 
L 147.070781 13.2 
z
" style="fill:none;"/>
   </g>
   <g id="matplotlib.axis_1">
    <g id="xtick_1">
     <g id="text_1">
      <!-- 0.00 -->
      <defs>
       <path d="M 31.78125 66.40625 
Q 24.171875 66.40625 20.328125 58.90625 
Q 16.5 51.421875 16.5 36.375 
Q 16.5 21.390625 20.328125 13.890625 
Q 24.171875 6.390625 31.78125 6.390625 
Q 39.453125 6.390625 43.28125 13.890625 
Q 47.125 21.390625 47.125 36.375 
Q 47.125 51.421875 43.28125 58.90625 
Q 39.453125 66.40625 31.78125 66.40625 
z
M 31.78125 74.21875 
Q 44.046875 74.21875 50.515625 64.515625 
Q 56.984375 54.828125 56.984375 36.375 
Q 56.984375 17.96875 50.515625 8.265625 
Q 44.046875 -1.421875 31.78125 -1.421875 
Q 19.53125 -1.421875 13.0625 8.265625 
Q 6.59375 17.96875 6.59375 36.375 
Q 6.59375 54.828125 13.0625 64.515625 
Q 19.53125 74.21875 31.78125 74.21875 
z
" id="DejaVuSans-48"/>
       <path d="M 10.6875 12.40625 
L 21 12.40625 
L 21 0 
L 10.6875 0 
z
" id="DejaVuSans-46"/>
      </defs>
      <g style="fill:#262626;" transform="translate(134.645817 486.833984)scale(0.385 -0.385)">
       <use xlink:href="#DejaVuSans-48"/>
       <use x="63.623047" xlink:href="#DejaVuSans-46"/>
       <use x="95.410156" xlink:href="#DejaVuSans-48"/>
       <use x="159.033203" xlink:href="#DejaVuSans-48"/>
      </g>
     </g>
    </g>
    <g id="xtick_2">
     <g id="text_2">
      <!-- 0.25 -->
      <defs>
       <path d="M 19.1875 8.296875 
L 53.609375 8.296875 
L 53.609375 0 
L 7.328125 0 
L 7.328125 8.296875 
Q 12.9375 14.109375 22.625 23.890625 
Q 32.328125 33.6875 34.8125 36.53125 
Q 39.546875 41.84375 41.421875 45.53125 
Q 43.3125 49.21875 43.3125 52.78125 
Q 43.3125 58.59375 39.234375 62.25 
Q 35.15625 65.921875 28.609375 65.921875 
Q 23.96875 65.921875 18.8125 64.3125 
Q 13.671875 62.703125 7.8125 59.421875 
L 7.8125 69.390625 
Q 13.765625 71.78125 18.9375 73 
Q 24.125 74.21875 28.421875 74.21875 
Q 39.75 74.21875 46.484375 68.546875 
Q 53.21875 62.890625 53.21875 53.421875 
Q 53.21875 48.921875 51.53125 44.890625 
Q 49.859375 40.875 45.40625 35.40625 
Q 44.1875 33.984375 37.640625 27.21875 
Q 31.109375 20.453125 19.1875 8.296875 
z
" id="DejaVuSans-50"/>
       <path d="M 10.796875 72.90625 
L 49.515625 72.90625 
L 49.515625 64.59375 
L 19.828125 64.59375 
L 19.828125 46.734375 
Q 21.96875 47.46875 24.109375 47.828125 
Q 26.265625 48.1875 28.421875 48.1875 
Q 40.625 48.1875 47.75 41.5 
Q 54.890625 34.8125 54.890625 23.390625 
Q 54.890625 11.625 47.5625 5.09375 
Q 40.234375 -1.421875 26.90625 -1.421875 
Q 22.3125 -1.421875 17.546875 -0.640625 
Q 12.796875 0.140625 7.71875 1.703125 
L 7.71875 11.625 
Q 12.109375 9.234375 16.796875 8.0625 
Q 21.484375 6.890625 26.703125 6.890625 
Q 35.15625 6.890625 40.078125 11.328125 
Q 45.015625 15.765625 45.015625 23.390625 
Q 45.015625 31 40.078125 35.4375 
Q 35.15625 39.890625 26.703125 39.890625 
Q 22.75 39.890625 18.8125 39.015625 
Q 14.890625 38.140625 10.796875 36.28125 
z
" id="DejaVuSans-53"/>
      </defs>
      <g style="fill:#262626;" transform="translate(286.827635 486.833984)scale(0.385 -0.385)">
       <use xlink:href="#DejaVuSans-48"/>
       <use x="63.623047" xlink:href="#DejaVuSans-46"/>
       <use x="95.410156" xlink:href="#DejaVuSans-50"/>
       <use x="159.033203" xlink:href="#DejaVuSans-53"/>
      </g>
     </g>
    </g>
    <g id="xtick_3">
     <g id="text_3">
      <!-- 0.50 -->
      <g style="fill:#262626;" transform="translate(439.009453 486.833984)scale(0.385 -0.385)">
       <use xlink:href="#DejaVuSans-48"/>
       <use x="63.623047" xlink:href="#DejaVuSans-46"/>
       <use x="95.410156" xlink:href="#DejaVuSans-53"/>
       <use x="159.033203" xlink:href="#DejaVuSans-48"/>
      </g>
     </g>
    </g>
    <g id="xtick_4">
     <g id="text_4">
      <!-- 0.75 -->
      <defs>
       <path d="M 8.203125 72.90625 
L 55.078125 72.90625 
L 55.078125 68.703125 
L 28.609375 0 
L 18.3125 0 
L 43.21875 64.59375 
L 8.203125 64.59375 
z
" id="DejaVuSans-55"/>
      </defs>
      <g style="fill:#262626;" transform="translate(591.191271 486.833984)scale(0.385 -0.385)">
       <use xlink:href="#DejaVuSans-48"/>
       <use x="63.623047" xlink:href="#DejaVuSans-46"/>
       <use x="95.410156" xlink:href="#DejaVuSans-55"/>
       <use x="159.033203" xlink:href="#DejaVuSans-53"/>
      </g>
     </g>
    </g>
    <g id="xtick_5">
     <g id="text_5">
      <!-- 1.00 -->
      <defs>
       <path d="M 12.40625 8.296875 
L 28.515625 8.296875 
L 28.515625 63.921875 
L 10.984375 60.40625 
L 10.984375 69.390625 
L 28.421875 72.90625 
L 38.28125 72.90625 
L 38.28125 8.296875 
L 54.390625 8.296875 
L 54.390625 0 
L 12.40625 0 
z
" id="DejaVuSans-49"/>
      </defs>
      <g style="fill:#262626;" transform="translate(743.373089 486.833984)scale(0.385 -0.385)">
       <use xlink:href="#DejaVuSans-49"/>
       <use x="63.623047" xlink:href="#DejaVuSans-46"/>
       <use x="95.410156" xlink:href="#DejaVuSans-48"/>
       <use x="159.033203" xlink:href="#DejaVuSans-48"/>
      </g>
     </g>
    </g>
    <g id="text_6">
     <!-- $\sigma$ -->
     <defs>
      <path d="M 34.671875 47.5625 
Q 27.25 47.5625 22.21875 42.1875 
Q 16.890625 36.578125 15.140625 27.296875 
Q 13.1875 17.484375 16.3125 11.8125 
Q 19.390625 6.203125 26.65625 6.203125 
Q 33.84375 6.203125 39.109375 11.859375 
Q 44.4375 17.53125 46.34375 27.296875 
Q 48.046875 36.234375 45.015625 42.1875 
Q 42.1875 47.5625 34.671875 47.5625 
z
M 36.078125 54.734375 
L 65.921875 54.6875 
L 64.15625 45.703125 
L 54.109375 45.703125 
Q 57.90625 38.09375 55.859375 27.296875 
Q 53.21875 13.875 45.0625 6.25 
Q 36.859375 -1.421875 25.140625 -1.421875 
Q 13.375 -1.421875 8.203125 6.25 
Q 3.03125 13.875 5.671875 27.296875 
Q 8.25 40.765625 16.40625 48.390625 
Q 23.1875 54.734375 36.078125 54.734375 
z
" id="DejaVuSans-Oblique-963"/>
     </defs>
     <g style="fill:#262626;" transform="translate(468.430781 530.754219)scale(0.42 -0.42)">
      <use transform="translate(0 0.265625)" xlink:href="#DejaVuSans-Oblique-963"/>
     </g>
    </g>
   </g>
   <g id="matplotlib.axis_2">
    <g id="ytick_1">
     <g id="text_7">
      <!-- 0.00 -->
      <g style="fill:#262626;" transform="translate(51.848125 442.939719)scale(0.385 -0.385)">
       <use xlink:href="#DejaVuSans-48"/>
       <use x="63.623047" xlink:href="#DejaVuSans-46"/>
       <use x="95.410156" xlink:href="#DejaVuSans-48"/>
       <use x="159.033203" xlink:href="#DejaVuSans-48"/>
      </g>
     </g>
    </g>
    <g id="ytick_2">
     <g id="text_8">
      <!-- 0.25 -->
      <g style="fill:#262626;" transform="translate(51.848125 344.103356)scale(0.385 -0.385)">
       <use xlink:href="#DejaVuSans-48"/>
       <use x="63.623047" xlink:href="#DejaVuSans-46"/>
       <use x="95.410156" xlink:href="#DejaVuSans-50"/>
       <use x="159.033203" xlink:href="#DejaVuSans-53"/>
      </g>
     </g>
    </g>
    <g id="ytick_3">
     <g id="text_9">
      <!-- 0.50 -->
      <g style="fill:#262626;" transform="translate(51.848125 245.266992)scale(0.385 -0.385)">
       <use xlink:href="#DejaVuSans-48"/>
       <use x="63.623047" xlink:href="#DejaVuSans-46"/>
       <use x="95.410156" xlink:href="#DejaVuSans-53"/>
       <use x="159.033203" xlink:href="#DejaVuSans-48"/>
      </g>
     </g>
    </g>
    <g id="ytick_4">
     <g id="text_10">
      <!-- 0.75 -->
      <g style="fill:#262626;" transform="translate(51.848125 146.430629)scale(0.385 -0.385)">
       <use xlink:href="#DejaVuSans-48"/>
       <use x="63.623047" xlink:href="#DejaVuSans-46"/>
       <use x="95.410156" xlink:href="#DejaVuSans-55"/>
       <use x="159.033203" xlink:href="#DejaVuSans-53"/>
      </g>
     </g>
    </g>
    <g id="ytick_5">
     <g id="text_11">
      <!-- 1.00 -->
      <g style="fill:#262626;" transform="translate(51.848125 47.594265)scale(0.385 -0.385)">
       <use xlink:href="#DejaVuSans-49"/>
       <use x="63.623047" xlink:href="#DejaVuSans-46"/>
       <use x="95.410156" xlink:href="#DejaVuSans-48"/>
       <use x="159.033203" xlink:href="#DejaVuSans-48"/>
      </g>
     </g>
    </g>
    <g id="text_12">
     <!-- Success rate -->
     <defs>
      <path d="M 53.515625 70.515625 
L 53.515625 60.890625 
Q 47.90625 63.578125 42.921875 64.890625 
Q 37.9375 66.21875 33.296875 66.21875 
Q 25.25 66.21875 20.875 63.09375 
Q 16.5 59.96875 16.5 54.203125 
Q 16.5 49.359375 19.40625 46.890625 
Q 22.3125 44.4375 30.421875 42.921875 
L 36.375 41.703125 
Q 47.40625 39.59375 52.65625 34.296875 
Q 57.90625 29 57.90625 20.125 
Q 57.90625 9.515625 50.796875 4.046875 
Q 43.703125 -1.421875 29.984375 -1.421875 
Q 24.8125 -1.421875 18.96875 -0.25 
Q 13.140625 0.921875 6.890625 3.21875 
L 6.890625 13.375 
Q 12.890625 10.015625 18.65625 8.296875 
Q 24.421875 6.59375 29.984375 6.59375 
Q 38.421875 6.59375 43.015625 9.90625 
Q 47.609375 13.234375 47.609375 19.390625 
Q 47.609375 24.75 44.3125 27.78125 
Q 41.015625 30.8125 33.5 32.328125 
L 27.484375 33.5 
Q 16.453125 35.6875 11.515625 40.375 
Q 6.59375 45.0625 6.59375 53.421875 
Q 6.59375 63.09375 13.40625 68.65625 
Q 20.21875 74.21875 32.171875 74.21875 
Q 37.3125 74.21875 42.625 73.28125 
Q 47.953125 72.359375 53.515625 70.515625 
z
" id="DejaVuSans-83"/>
      <path d="M 8.5 21.578125 
L 8.5 54.6875 
L 17.484375 54.6875 
L 17.484375 21.921875 
Q 17.484375 14.15625 20.5 10.265625 
Q 23.53125 6.390625 29.59375 6.390625 
Q 36.859375 6.390625 41.078125 11.03125 
Q 45.3125 15.671875 45.3125 23.6875 
L 45.3125 54.6875 
L 54.296875 54.6875 
L 54.296875 0 
L 45.3125 0 
L 45.3125 8.40625 
Q 42.046875 3.421875 37.71875 1 
Q 33.40625 -1.421875 27.6875 -1.421875 
Q 18.265625 -1.421875 13.375 4.4375 
Q 8.5 10.296875 8.5 21.578125 
z
M 31.109375 56 
z
" id="DejaVuSans-117"/>
      <path d="M 48.78125 52.59375 
L 48.78125 44.1875 
Q 44.96875 46.296875 41.140625 47.34375 
Q 37.3125 48.390625 33.40625 48.390625 
Q 24.65625 48.390625 19.8125 42.84375 
Q 14.984375 37.3125 14.984375 27.296875 
Q 14.984375 17.28125 19.8125 11.734375 
Q 24.65625 6.203125 33.40625 6.203125 
Q 37.3125 6.203125 41.140625 7.25 
Q 44.96875 8.296875 48.78125 10.40625 
L 48.78125 2.09375 
Q 45.015625 0.34375 40.984375 -0.53125 
Q 36.96875 -1.421875 32.421875 -1.421875 
Q 20.0625 -1.421875 12.78125 6.34375 
Q 5.515625 14.109375 5.515625 27.296875 
Q 5.515625 40.671875 12.859375 48.328125 
Q 20.21875 56 33.015625 56 
Q 37.15625 56 41.109375 55.140625 
Q 45.0625 54.296875 48.78125 52.59375 
z
" id="DejaVuSans-99"/>
      <path d="M 56.203125 29.59375 
L 56.203125 25.203125 
L 14.890625 25.203125 
Q 15.484375 15.921875 20.484375 11.0625 
Q 25.484375 6.203125 34.421875 6.203125 
Q 39.59375 6.203125 44.453125 7.46875 
Q 49.3125 8.734375 54.109375 11.28125 
L 54.109375 2.78125 
Q 49.265625 0.734375 44.1875 -0.34375 
Q 39.109375 -1.421875 33.890625 -1.421875 
Q 20.796875 -1.421875 13.15625 6.1875 
Q 5.515625 13.8125 5.515625 26.8125 
Q 5.515625 40.234375 12.765625 48.109375 
Q 20.015625 56 32.328125 56 
Q 43.359375 56 49.78125 48.890625 
Q 56.203125 41.796875 56.203125 29.59375 
z
M 47.21875 32.234375 
Q 47.125 39.59375 43.09375 43.984375 
Q 39.0625 48.390625 32.421875 48.390625 
Q 24.90625 48.390625 20.390625 44.140625 
Q 15.875 39.890625 15.1875 32.171875 
z
" id="DejaVuSans-101"/>
      <path d="M 44.28125 53.078125 
L 44.28125 44.578125 
Q 40.484375 46.53125 36.375 47.5 
Q 32.28125 48.484375 27.875 48.484375 
Q 21.1875 48.484375 17.84375 46.4375 
Q 14.5 44.390625 14.5 40.28125 
Q 14.5 37.15625 16.890625 35.375 
Q 19.28125 33.59375 26.515625 31.984375 
L 29.59375 31.296875 
Q 39.15625 29.25 43.1875 25.515625 
Q 47.21875 21.78125 47.21875 15.09375 
Q 47.21875 7.46875 41.1875 3.015625 
Q 35.15625 -1.421875 24.609375 -1.421875 
Q 20.21875 -1.421875 15.453125 -0.5625 
Q 10.6875 0.296875 5.421875 2 
L 5.421875 11.28125 
Q 10.40625 8.6875 15.234375 7.390625 
Q 20.0625 6.109375 24.8125 6.109375 
Q 31.15625 6.109375 34.5625 8.28125 
Q 37.984375 10.453125 37.984375 14.40625 
Q 37.984375 18.0625 35.515625 20.015625 
Q 33.0625 21.96875 24.703125 23.78125 
L 21.578125 24.515625 
Q 13.234375 26.265625 9.515625 29.90625 
Q 5.8125 33.546875 5.8125 39.890625 
Q 5.8125 47.609375 11.28125 51.796875 
Q 16.75 56 26.8125 56 
Q 31.78125 56 36.171875 55.265625 
Q 40.578125 54.546875 44.28125 53.078125 
z
" id="DejaVuSans-115"/>
      <path id="DejaVuSans-32"/>
      <path d="M 41.109375 46.296875 
Q 39.59375 47.171875 37.8125 47.578125 
Q 36.03125 48 33.890625 48 
Q 26.265625 48 22.1875 43.046875 
Q 18.109375 38.09375 18.109375 28.8125 
L 18.109375 0 
L 9.078125 0 
L 9.078125 54.6875 
L 18.109375 54.6875 
L 18.109375 46.1875 
Q 20.953125 51.171875 25.484375 53.578125 
Q 30.03125 56 36.53125 56 
Q 37.453125 56 38.578125 55.875 
Q 39.703125 55.765625 41.0625 55.515625 
z
" id="DejaVuSans-114"/>
      <path d="M 34.28125 27.484375 
Q 23.390625 27.484375 19.1875 25 
Q 14.984375 22.515625 14.984375 16.5 
Q 14.984375 11.71875 18.140625 8.90625 
Q 21.296875 6.109375 26.703125 6.109375 
Q 34.1875 6.109375 38.703125 11.40625 
Q 43.21875 16.703125 43.21875 25.484375 
L 43.21875 27.484375 
z
M 52.203125 31.203125 
L 52.203125 0 
L 43.21875 0 
L 43.21875 8.296875 
Q 40.140625 3.328125 35.546875 0.953125 
Q 30.953125 -1.421875 24.3125 -1.421875 
Q 15.921875 -1.421875 10.953125 3.296875 
Q 6 8.015625 6 15.921875 
Q 6 25.140625 12.171875 29.828125 
Q 18.359375 34.515625 30.609375 34.515625 
L 43.21875 34.515625 
L 43.21875 35.40625 
Q 43.21875 41.609375 39.140625 45 
Q 35.0625 48.390625 27.6875 48.390625 
Q 23 48.390625 18.546875 47.265625 
Q 14.109375 46.140625 10.015625 43.890625 
L 10.015625 52.203125 
Q 14.9375 54.109375 19.578125 55.046875 
Q 24.21875 56 28.609375 56 
Q 40.484375 56 46.34375 49.84375 
Q 52.203125 43.703125 52.203125 31.203125 
z
" id="DejaVuSans-97"/>
      <path d="M 18.3125 70.21875 
L 18.3125 54.6875 
L 36.8125 54.6875 
L 36.8125 47.703125 
L 18.3125 47.703125 
L 18.3125 18.015625 
Q 18.3125 11.328125 20.140625 9.421875 
Q 21.96875 7.515625 27.59375 7.515625 
L 36.8125 7.515625 
L 36.8125 0 
L 27.59375 0 
Q 17.1875 0 13.234375 3.875 
Q 9.28125 7.765625 9.28125 18.015625 
L 9.28125 47.703125 
L 2.6875 47.703125 
L 2.6875 54.6875 
L 9.28125 54.6875 
L 9.28125 70.21875 
z
" id="DejaVuSans-116"/>
     </defs>
     <g style="fill:#262626;" transform="translate(39.113438 364.505156)rotate(-90)scale(0.42 -0.42)">
      <use xlink:href="#DejaVuSans-83"/>
      <use x="63.476562" xlink:href="#DejaVuSans-117"/>
      <use x="126.855469" xlink:href="#DejaVuSans-99"/>
      <use x="181.835938" xlink:href="#DejaVuSans-99"/>
      <use x="236.816406" xlink:href="#DejaVuSans-101"/>
      <use x="298.339844" xlink:href="#DejaVuSans-115"/>
      <use x="350.439453" xlink:href="#DejaVuSans-115"/>
      <use x="402.539062" xlink:href="#DejaVuSans-32"/>
      <use x="434.326172" xlink:href="#DejaVuSans-114"/>
      <use x="475.439453" xlink:href="#DejaVuSans-97"/>
      <use x="536.71875" xlink:href="#DejaVuSans-116"/>
      <use x="575.927734" xlink:href="#DejaVuSans-101"/>
     </g>
    </g>
   </g>
   <g id="PolyCollection_1">
    <defs>
     <path d="M 177.507145 -513.721634 
L 177.507145 -513.721634 
L 198.49774 -513.721634 
L 219.488336 -513.721634 
L 240.478932 -513.721634 
L 261.469527 -513.721634 
L 282.460123 -513.721634 
L 303.450719 -513.721634 
L 324.441314 -498.372803 
L 345.43191 -488.6431 
L 366.422505 -455.965381 
L 387.413101 -458.507763 
L 408.403697 -385.745639 
L 429.394292 -385.745639 
L 450.384888 -344.708118 
L 471.375483 -307.395013 
L 492.366079 -257.732693 
L 513.356675 -242.35748 
L 534.34727 -208.74122 
L 555.337866 -178.428267 
L 576.328462 -181.909956 
L 597.319057 -143.712184 
L 618.309653 -150.009859 
L 639.300248 -153.22451 
L 660.290844 -131.782108 
L 681.28144 -134.664839 
L 702.272035 -127.617871 
L 723.262631 -131.782108 
L 744.253226 -124.97126 
L 765.243822 -120.103498 
L 786.234418 -122.454835 
L 786.234418 -157.785523 
L 786.234418 -157.785523 
L 765.243822 -152.229951 
L 744.253226 -163.176007 
L 723.262631 -176.132431 
L 702.272035 -168.436305 
L 681.28144 -181.15661 
L 660.290844 -176.132431 
L 639.300248 -210.038393 
L 618.309653 -205.346135 
L 597.319057 -195.829992 
L 576.328462 -248.561675 
L 555.337866 -244.136454 
L 534.34727 -281.032229 
L 513.356675 -318.578151 
L 492.366079 -334.830574 
L 471.375483 -384.004618 
L 450.384888 -417.853694 
L 429.394292 -451.93181 
L 408.403697 -451.93181 
L 387.413101 -501.726776 
L 366.422505 -500.315704 
L 345.43191 -513.721634 
L 324.441314 -513.721634 
L 303.450719 -513.721634 
L 282.460123 -513.721634 
L 261.469527 -513.721634 
L 240.478932 -513.721634 
L 219.488336 -513.721634 
L 198.49774 -513.721634 
L 177.507145 -513.721634 
z
" id="m46e40e74ac" style="stroke:#4c72b0;stroke-opacity:0.3;"/>
    </defs>
    <g clip-path="url(#pbecae1638c)">
     <use style="fill:#4c72b0;fill-opacity:0.3;stroke:#4c72b0;stroke-opacity:0.3;" x="0" xlink:href="#m46e40e74ac" y="546.688906"/>
    </g>
   </g>
   <g id="PolyCollection_2">
    <defs>
     <path d="M 177.507145 -513.721634 
L 177.507145 -513.721634 
L 198.49774 -513.721634 
L 219.488336 -513.721634 
L 240.478932 -494.966644 
L 261.469527 -455.965381 
L 282.460123 -445.988969 
L 303.450719 -372.577592 
L 324.441314 -344.708118 
L 345.43191 -299.284873 
L 366.422505 -269.429861 
L 387.413101 -208.74122 
L 408.403697 -192.497446 
L 429.394292 -180.166003 
L 450.384888 -153.22451 
L 471.375483 -142.168181 
L 492.366079 -128.982313 
L 513.356675 -130.371036 
L 534.34727 -126.279966 
L 555.337866 -133.213861 
L 576.328462 -122.454835 
L 597.319057 -118.376179 
L 618.309653 -118.376179 
L 639.300248 -118.376179 
L 660.290844 -118.376179 
L 681.28144 -118.376179 
L 702.272035 -118.376179 
L 723.262631 -118.376179 
L 744.253226 -118.376179 
L 765.243822 -118.376179 
L 786.234418 -118.376179 
L 786.234418 -133.725009 
L 786.234418 -133.725009 
L 765.243822 -133.725009 
L 744.253226 -125.818299 
L 723.262631 -130.039422 
L 702.272035 -137.131168 
L 681.28144 -140.357358 
L 660.290844 -133.725009 
L 639.300248 -130.039422 
L 618.309653 -140.357358 
L 597.319057 -143.454713 
L 576.328462 -157.785523 
L 555.337866 -178.654133 
L 534.34727 -165.820755 
L 513.356675 -173.590049 
L 492.366079 -171.025318 
L 471.375483 -193.420541 
L 450.384888 -210.038393 
L 429.394292 -246.352173 
L 408.403697 -261.694912 
L 387.413101 -281.032229 
L 366.422505 -346.854133 
L 345.43191 -376.300939 
L 324.441314 -417.853694 
L 303.450719 -441.37913 
L 282.460123 -494.478298 
L 261.469527 -500.315704 
L 240.478932 -513.721634 
L 219.488336 -513.721634 
L 198.49774 -513.721634 
L 177.507145 -513.721634 
z
" id="m8ec0772bd4" style="stroke:#dd8452;stroke-opacity:0.3;"/>
    </defs>
    <g clip-path="url(#pbecae1638c)">
     <use style="fill:#dd8452;fill-opacity:0.3;stroke:#dd8452;stroke-opacity:0.3;" x="0" xlink:href="#m8ec0772bd4" y="546.688906"/>
    </g>
   </g>
   <g id="PolyCollection_3">
    <defs>
     <path d="M 177.507145 -513.721634 
L 177.507145 -513.721634 
L 198.49774 -289.235928 
L 219.488336 -257.732693 
L 240.478932 -279.284428 
L 261.469527 -265.515201 
L 282.460123 -229.117838 
L 303.450719 -221.645596 
L 324.441314 -180.166003 
L 345.43191 -143.712184 
L 366.422505 -137.619514 
L 387.413101 -133.213861 
L 408.403697 -119.005848 
L 429.394292 -121.255707 
L 450.384888 -118.376179 
L 471.375483 -118.376179 
L 492.366079 -118.376179 
L 513.356675 -118.376179 
L 534.34727 -118.376179 
L 555.337866 -118.376179 
L 576.328462 -118.376179 
L 597.319057 -118.376179 
L 618.309653 -118.376179 
L 639.300248 -118.376179 
L 660.290844 -118.376179 
L 681.28144 -118.376179 
L 702.272035 -118.376179 
L 723.262631 -118.376179 
L 744.253226 -118.376179 
L 765.243822 -118.376179 
L 786.234418 -118.376179 
L 786.234418 -118.376179 
L 786.234418 -118.376179 
L 765.243822 -118.376179 
L 744.253226 -118.376179 
L 723.262631 -118.376179 
L 702.272035 -118.376179 
L 681.28144 -118.376179 
L 660.290844 -118.376179 
L 639.300248 -125.818299 
L 618.309653 -118.376179 
L 597.319057 -118.376179 
L 576.328462 -118.376179 
L 555.337866 -118.376179 
L 534.34727 -118.376179 
L 513.356675 -133.725009 
L 492.366079 -133.725009 
L 471.375483 -125.818299 
L 450.384888 -140.357358 
L 429.394292 -155.031196 
L 408.403697 -149.374146 
L 387.413101 -178.654133 
L 366.422505 -186.108844 
L 345.43191 -195.829992 
L 324.441314 -246.352173 
L 303.450719 -295.802035 
L 282.460123 -304.143611 
L 261.469527 -342.861885 
L 240.478932 -356.766839 
L 219.488336 -334.830574 
L 198.49774 -366.582612 
L 177.507145 -513.721634 
z
" id="mefc05b7f32" style="stroke:#55a868;stroke-opacity:0.3;"/>
    </defs>
    <g clip-path="url(#pbecae1638c)">
     <use style="fill:#55a868;fill-opacity:0.3;stroke:#55a868;stroke-opacity:0.3;" x="0" xlink:href="#mefc05b7f32" y="546.688906"/>
    </g>
   </g>
   <g id="line2d_1">
    <path clip-path="url(#pbecae1638c)" d="M 177.507145 32.967273 
L 198.49774 32.967273 
L 219.488336 32.967273 
L 240.478932 32.967273 
L 261.469527 32.967273 
L 282.460123 32.967273 
L 303.450719 32.967273 
L 324.441314 38.897455 
L 345.43191 44.827636 
L 366.422505 68.548364 
L 387.413101 66.571636 
L 408.403697 127.850182 
L 429.394292 127.850182 
L 450.384888 165.408 
L 471.375483 200.989091 
L 492.366079 250.407273 
L 513.356675 266.221091 
L 534.34727 301.802182 
L 555.337866 335.406545 
L 576.328462 331.453091 
L 597.319057 376.917818 
L 618.309653 369.010909 
L 639.300248 365.057455 
L 660.290844 392.731636 
L 681.28144 388.778182 
L 702.272035 398.661818 
L 723.262631 392.731636 
L 744.253226 402.615273 
L 765.243822 410.522182 
L 786.234418 406.568727 
" style="fill:none;stroke:#4c72b0;stroke-linecap:round;stroke-width:10;"/>
    <defs>
     <path d="M 0 11 
C 2.917234 11 5.715379 9.840971 7.778175 7.778175 
C 9.840971 5.715379 11 2.917234 11 0 
C 11 -2.917234 9.840971 -5.715379 7.778175 -7.778175 
C 5.715379 -9.840971 2.917234 -11 0 -11 
C -2.917234 -11 -5.715379 -9.840971 -7.778175 -7.778175 
C -9.840971 -5.715379 -11 -2.917234 -11 0 
C -11 2.917234 -9.840971 5.715379 -7.778175 7.778175 
C -5.715379 9.840971 -2.917234 11 0 11 
z
" id="me4e716985c" style="stroke:#4c72b0;"/>
    </defs>
    <g clip-path="url(#pbecae1638c)">
     <use style="fill:#4c72b0;stroke:#4c72b0;" x="177.507145" xlink:href="#me4e716985c" y="32.967273"/>
     <use style="fill:#4c72b0;stroke:#4c72b0;" x="198.49774" xlink:href="#me4e716985c" y="32.967273"/>
     <use style="fill:#4c72b0;stroke:#4c72b0;" x="219.488336" xlink:href="#me4e716985c" y="32.967273"/>
     <use style="fill:#4c72b0;stroke:#4c72b0;" x="240.478932" xlink:href="#me4e716985c" y="32.967273"/>
     <use style="fill:#4c72b0;stroke:#4c72b0;" x="261.469527" xlink:href="#me4e716985c" y="32.967273"/>
     <use style="fill:#4c72b0;stroke:#4c72b0;" x="282.460123" xlink:href="#me4e716985c" y="32.967273"/>
     <use style="fill:#4c72b0;stroke:#4c72b0;" x="303.450719" xlink:href="#me4e716985c" y="32.967273"/>
     <use style="fill:#4c72b0;stroke:#4c72b0;" x="324.441314" xlink:href="#me4e716985c" y="38.897455"/>
     <use style="fill:#4c72b0;stroke:#4c72b0;" x="345.43191" xlink:href="#me4e716985c" y="44.827636"/>
     <use style="fill:#4c72b0;stroke:#4c72b0;" x="366.422505" xlink:href="#me4e716985c" y="68.548364"/>
     <use style="fill:#4c72b0;stroke:#4c72b0;" x="387.413101" xlink:href="#me4e716985c" y="66.571636"/>
     <use style="fill:#4c72b0;stroke:#4c72b0;" x="408.403697" xlink:href="#me4e716985c" y="127.850182"/>
     <use style="fill:#4c72b0;stroke:#4c72b0;" x="429.394292" xlink:href="#me4e716985c" y="127.850182"/>
     <use style="fill:#4c72b0;stroke:#4c72b0;" x="450.384888" xlink:href="#me4e716985c" y="165.408"/>
     <use style="fill:#4c72b0;stroke:#4c72b0;" x="471.375483" xlink:href="#me4e716985c" y="200.989091"/>
     <use style="fill:#4c72b0;stroke:#4c72b0;" x="492.366079" xlink:href="#me4e716985c" y="250.407273"/>
     <use style="fill:#4c72b0;stroke:#4c72b0;" x="513.356675" xlink:href="#me4e716985c" y="266.221091"/>
     <use style="fill:#4c72b0;stroke:#4c72b0;" x="534.34727" xlink:href="#me4e716985c" y="301.802182"/>
     <use style="fill:#4c72b0;stroke:#4c72b0;" x="555.337866" xlink:href="#me4e716985c" y="335.406545"/>
     <use style="fill:#4c72b0;stroke:#4c72b0;" x="576.328462" xlink:href="#me4e716985c" y="331.453091"/>
     <use style="fill:#4c72b0;stroke:#4c72b0;" x="597.319057" xlink:href="#me4e716985c" y="376.917818"/>
     <use style="fill:#4c72b0;stroke:#4c72b0;" x="618.309653" xlink:href="#me4e716985c" y="369.010909"/>
     <use style="fill:#4c72b0;stroke:#4c72b0;" x="639.300248" xlink:href="#me4e716985c" y="365.057455"/>
     <use style="fill:#4c72b0;stroke:#4c72b0;" x="660.290844" xlink:href="#me4e716985c" y="392.731636"/>
     <use style="fill:#4c72b0;stroke:#4c72b0;" x="681.28144" xlink:href="#me4e716985c" y="388.778182"/>
     <use style="fill:#4c72b0;stroke:#4c72b0;" x="702.272035" xlink:href="#me4e716985c" y="398.661818"/>
     <use style="fill:#4c72b0;stroke:#4c72b0;" x="723.262631" xlink:href="#me4e716985c" y="392.731636"/>
     <use style="fill:#4c72b0;stroke:#4c72b0;" x="744.253226" xlink:href="#me4e716985c" y="402.615273"/>
     <use style="fill:#4c72b0;stroke:#4c72b0;" x="765.243822" xlink:href="#me4e716985c" y="410.522182"/>
     <use style="fill:#4c72b0;stroke:#4c72b0;" x="786.234418" xlink:href="#me4e716985c" y="406.568727"/>
    </g>
   </g>
   <g id="line2d_2">
    <path clip-path="url(#pbecae1638c)" d="M 177.507145 32.967273 
L 198.49774 32.967273 
L 219.488336 32.967273 
L 240.478932 40.874182 
L 261.469527 68.548364 
L 282.460123 76.455273 
L 303.450719 139.710545 
L 324.441314 165.408 
L 345.43191 208.896 
L 366.422505 238.546909 
L 387.413101 301.802182 
L 408.403697 319.592727 
L 429.394292 333.429818 
L 450.384888 365.057455 
L 471.375483 378.894545 
L 492.366079 396.685091 
L 513.356675 394.708364 
L 534.34727 400.638545 
L 555.337866 390.754909 
L 576.328462 406.568727 
L 597.319057 416.452364 
L 618.309653 418.429091 
L 639.300248 424.359273 
L 660.290844 422.382545 
L 681.28144 418.429091 
L 702.272035 420.405818 
L 723.262631 424.359273 
L 744.253226 426.336 
L 765.243822 422.382545 
L 786.234418 422.382545 
" style="fill:none;stroke:#dd8452;stroke-linecap:round;stroke-width:10;"/>
    <defs>
     <path d="M 0 11 
C 2.917234 11 5.715379 9.840971 7.778175 7.778175 
C 9.840971 5.715379 11 2.917234 11 0 
C 11 -2.917234 9.840971 -5.715379 7.778175 -7.778175 
C 5.715379 -9.840971 2.917234 -11 0 -11 
C -2.917234 -11 -5.715379 -9.840971 -7.778175 -7.778175 
C -9.840971 -5.715379 -11 -2.917234 -11 0 
C -11 2.917234 -9.840971 5.715379 -7.778175 7.778175 
C -5.715379 9.840971 -2.917234 11 0 11 
z
" id="mad3af0ac93" style="stroke:#dd8452;"/>
    </defs>
    <g clip-path="url(#pbecae1638c)">
     <use style="fill:#dd8452;stroke:#dd8452;" x="177.507145" xlink:href="#mad3af0ac93" y="32.967273"/>
     <use style="fill:#dd8452;stroke:#dd8452;" x="198.49774" xlink:href="#mad3af0ac93" y="32.967273"/>
     <use style="fill:#dd8452;stroke:#dd8452;" x="219.488336" xlink:href="#mad3af0ac93" y="32.967273"/>
     <use style="fill:#dd8452;stroke:#dd8452;" x="240.478932" xlink:href="#mad3af0ac93" y="40.874182"/>
     <use style="fill:#dd8452;stroke:#dd8452;" x="261.469527" xlink:href="#mad3af0ac93" y="68.548364"/>
     <use style="fill:#dd8452;stroke:#dd8452;" x="282.460123" xlink:href="#mad3af0ac93" y="76.455273"/>
     <use style="fill:#dd8452;stroke:#dd8452;" x="303.450719" xlink:href="#mad3af0ac93" y="139.710545"/>
     <use style="fill:#dd8452;stroke:#dd8452;" x="324.441314" xlink:href="#mad3af0ac93" y="165.408"/>
     <use style="fill:#dd8452;stroke:#dd8452;" x="345.43191" xlink:href="#mad3af0ac93" y="208.896"/>
     <use style="fill:#dd8452;stroke:#dd8452;" x="366.422505" xlink:href="#mad3af0ac93" y="238.546909"/>
     <use style="fill:#dd8452;stroke:#dd8452;" x="387.413101" xlink:href="#mad3af0ac93" y="301.802182"/>
     <use style="fill:#dd8452;stroke:#dd8452;" x="408.403697" xlink:href="#mad3af0ac93" y="319.592727"/>
     <use style="fill:#dd8452;stroke:#dd8452;" x="429.394292" xlink:href="#mad3af0ac93" y="333.429818"/>
     <use style="fill:#dd8452;stroke:#dd8452;" x="450.384888" xlink:href="#mad3af0ac93" y="365.057455"/>
     <use style="fill:#dd8452;stroke:#dd8452;" x="471.375483" xlink:href="#mad3af0ac93" y="378.894545"/>
     <use style="fill:#dd8452;stroke:#dd8452;" x="492.366079" xlink:href="#mad3af0ac93" y="396.685091"/>
     <use style="fill:#dd8452;stroke:#dd8452;" x="513.356675" xlink:href="#mad3af0ac93" y="394.708364"/>
     <use style="fill:#dd8452;stroke:#dd8452;" x="534.34727" xlink:href="#mad3af0ac93" y="400.638545"/>
     <use style="fill:#dd8452;stroke:#dd8452;" x="555.337866" xlink:href="#mad3af0ac93" y="390.754909"/>
     <use style="fill:#dd8452;stroke:#dd8452;" x="576.328462" xlink:href="#mad3af0ac93" y="406.568727"/>
     <use style="fill:#dd8452;stroke:#dd8452;" x="597.319057" xlink:href="#mad3af0ac93" y="416.452364"/>
     <use style="fill:#dd8452;stroke:#dd8452;" x="618.309653" xlink:href="#mad3af0ac93" y="418.429091"/>
     <use style="fill:#dd8452;stroke:#dd8452;" x="639.300248" xlink:href="#mad3af0ac93" y="424.359273"/>
     <use style="fill:#dd8452;stroke:#dd8452;" x="660.290844" xlink:href="#mad3af0ac93" y="422.382545"/>
     <use style="fill:#dd8452;stroke:#dd8452;" x="681.28144" xlink:href="#mad3af0ac93" y="418.429091"/>
     <use style="fill:#dd8452;stroke:#dd8452;" x="702.272035" xlink:href="#mad3af0ac93" y="420.405818"/>
     <use style="fill:#dd8452;stroke:#dd8452;" x="723.262631" xlink:href="#mad3af0ac93" y="424.359273"/>
     <use style="fill:#dd8452;stroke:#dd8452;" x="744.253226" xlink:href="#mad3af0ac93" y="426.336"/>
     <use style="fill:#dd8452;stroke:#dd8452;" x="765.243822" xlink:href="#mad3af0ac93" y="422.382545"/>
     <use style="fill:#dd8452;stroke:#dd8452;" x="786.234418" xlink:href="#mad3af0ac93" y="422.382545"/>
    </g>
   </g>
   <g id="line2d_3">
    <path clip-path="url(#pbecae1638c)" d="M 177.507145 32.967273 
L 198.49774 218.779636 
L 219.488336 250.407273 
L 240.478932 228.663273 
L 261.469527 242.500364 
L 282.460123 280.058182 
L 303.450719 287.965091 
L 324.441314 333.429818 
L 345.43191 376.917818 
L 366.422505 384.824727 
L 387.413101 390.754909 
L 408.403697 412.498909 
L 429.394292 408.545455 
L 450.384888 418.429091 
L 471.375483 426.336 
L 492.366079 422.382545 
L 513.356675 422.382545 
L 534.34727 428.312727 
L 555.337866 428.312727 
L 576.328462 428.312727 
L 597.319057 428.312727 
L 618.309653 428.312727 
L 639.300248 426.336 
L 660.290844 428.312727 
L 681.28144 428.312727 
L 702.272035 428.312727 
L 723.262631 428.312727 
L 744.253226 428.312727 
L 765.243822 428.312727 
L 786.234418 428.312727 
" style="fill:none;stroke:#55a868;stroke-linecap:round;stroke-width:10;"/>
    <defs>
     <path d="M 0 11 
C 2.917234 11 5.715379 9.840971 7.778175 7.778175 
C 9.840971 5.715379 11 2.917234 11 0 
C 11 -2.917234 9.840971 -5.715379 7.778175 -7.778175 
C 5.715379 -9.840971 2.917234 -11 0 -11 
C -2.917234 -11 -5.715379 -9.840971 -7.778175 -7.778175 
C -9.840971 -5.715379 -11 -2.917234 -11 0 
C -11 2.917234 -9.840971 5.715379 -7.778175 7.778175 
C -5.715379 9.840971 -2.917234 11 0 11 
z
" id="mff17766f94" style="stroke:#55a868;"/>
    </defs>
    <g clip-path="url(#pbecae1638c)">
     <use style="fill:#55a868;stroke:#55a868;" x="177.507145" xlink:href="#mff17766f94" y="32.967273"/>
     <use style="fill:#55a868;stroke:#55a868;" x="198.49774" xlink:href="#mff17766f94" y="218.779636"/>
     <use style="fill:#55a868;stroke:#55a868;" x="219.488336" xlink:href="#mff17766f94" y="250.407273"/>
     <use style="fill:#55a868;stroke:#55a868;" x="240.478932" xlink:href="#mff17766f94" y="228.663273"/>
     <use style="fill:#55a868;stroke:#55a868;" x="261.469527" xlink:href="#mff17766f94" y="242.500364"/>
     <use style="fill:#55a868;stroke:#55a868;" x="282.460123" xlink:href="#mff17766f94" y="280.058182"/>
     <use style="fill:#55a868;stroke:#55a868;" x="303.450719" xlink:href="#mff17766f94" y="287.965091"/>
     <use style="fill:#55a868;stroke:#55a868;" x="324.441314" xlink:href="#mff17766f94" y="333.429818"/>
     <use style="fill:#55a868;stroke:#55a868;" x="345.43191" xlink:href="#mff17766f94" y="376.917818"/>
     <use style="fill:#55a868;stroke:#55a868;" x="366.422505" xlink:href="#mff17766f94" y="384.824727"/>
     <use style="fill:#55a868;stroke:#55a868;" x="387.413101" xlink:href="#mff17766f94" y="390.754909"/>
     <use style="fill:#55a868;stroke:#55a868;" x="408.403697" xlink:href="#mff17766f94" y="412.498909"/>
     <use style="fill:#55a868;stroke:#55a868;" x="429.394292" xlink:href="#mff17766f94" y="408.545455"/>
     <use style="fill:#55a868;stroke:#55a868;" x="450.384888" xlink:href="#mff17766f94" y="418.429091"/>
     <use style="fill:#55a868;stroke:#55a868;" x="471.375483" xlink:href="#mff17766f94" y="426.336"/>
     <use style="fill:#55a868;stroke:#55a868;" x="492.366079" xlink:href="#mff17766f94" y="422.382545"/>
     <use style="fill:#55a868;stroke:#55a868;" x="513.356675" xlink:href="#mff17766f94" y="422.382545"/>
     <use style="fill:#55a868;stroke:#55a868;" x="534.34727" xlink:href="#mff17766f94" y="428.312727"/>
     <use style="fill:#55a868;stroke:#55a868;" x="555.337866" xlink:href="#mff17766f94" y="428.312727"/>
     <use style="fill:#55a868;stroke:#55a868;" x="576.328462" xlink:href="#mff17766f94" y="428.312727"/>
     <use style="fill:#55a868;stroke:#55a868;" x="597.319057" xlink:href="#mff17766f94" y="428.312727"/>
     <use style="fill:#55a868;stroke:#55a868;" x="618.309653" xlink:href="#mff17766f94" y="428.312727"/>
     <use style="fill:#55a868;stroke:#55a868;" x="639.300248" xlink:href="#mff17766f94" y="426.336"/>
     <use style="fill:#55a868;stroke:#55a868;" x="660.290844" xlink:href="#mff17766f94" y="428.312727"/>
     <use style="fill:#55a868;stroke:#55a868;" x="681.28144" xlink:href="#mff17766f94" y="428.312727"/>
     <use style="fill:#55a868;stroke:#55a868;" x="702.272035" xlink:href="#mff17766f94" y="428.312727"/>
     <use style="fill:#55a868;stroke:#55a868;" x="723.262631" xlink:href="#mff17766f94" y="428.312727"/>
     <use style="fill:#55a868;stroke:#55a868;" x="744.253226" xlink:href="#mff17766f94" y="428.312727"/>
     <use style="fill:#55a868;stroke:#55a868;" x="765.243822" xlink:href="#mff17766f94" y="428.312727"/>
     <use style="fill:#55a868;stroke:#55a868;" x="786.234418" xlink:href="#mff17766f94" y="428.312727"/>
    </g>
   </g>
   <g id="line2d_4">
    <path clip-path="url(#pbecae1638c)" d="M 147.070781 230.64 
L 816.670781 230.64 
" style="fill:none;stroke:#808080;stroke-dasharray:5.55,2.4;stroke-dashoffset:0;stroke-width:1.5;"/>
   </g>
   <g id="patch_3">
    <path d="M 147.070781 448.08 
L 147.070781 13.2 
" style="fill:none;stroke:#cccccc;stroke-linecap:square;stroke-linejoin:miter;stroke-width:1.25;"/>
   </g>
   <g id="patch_4">
    <path d="M 816.670781 448.08 
L 816.670781 13.2 
" style="fill:none;stroke:#cccccc;stroke-linecap:square;stroke-linejoin:miter;stroke-width:1.25;"/>
   </g>
   <g id="patch_5">
    <path d="M 147.070781 448.08 
L 816.670781 448.08 
" style="fill:none;stroke:#cccccc;stroke-linecap:square;stroke-linejoin:miter;stroke-width:1.25;"/>
   </g>
   <g id="patch_6">
    <path d="M 147.070781 13.2 
L 816.670781 13.2 
" style="fill:none;stroke:#cccccc;stroke-linecap:square;stroke-linejoin:miter;stroke-width:1.25;"/>
   </g>
   <g id="legend_1">
    <g id="line2d_5">
     <path d="M 464.095 63.628984 
L 541.095 63.628984 
" style="fill:none;stroke:#4c72b0;stroke-linecap:round;stroke-width:10;"/>
    </g>
    <g id="line2d_6">
     <g>
      <use style="fill:#4c72b0;stroke:#4c72b0;" x="502.595" xlink:href="#me4e716985c" y="63.628984"/>
     </g>
    </g>
    <g id="text_13">
     <!-- Two traces -->
     <defs>
      <path d="M -0.296875 72.90625 
L 61.375 72.90625 
L 61.375 64.59375 
L 35.5 64.59375 
L 35.5 0 
L 25.59375 0 
L 25.59375 64.59375 
L -0.296875 64.59375 
z
" id="DejaVuSans-84"/>
      <path d="M 4.203125 54.6875 
L 13.1875 54.6875 
L 24.421875 12.015625 
L 35.59375 54.6875 
L 46.1875 54.6875 
L 57.421875 12.015625 
L 68.609375 54.6875 
L 77.59375 54.6875 
L 63.28125 0 
L 52.6875 0 
L 40.921875 44.828125 
L 29.109375 0 
L 18.5 0 
z
" id="DejaVuSans-119"/>
      <path d="M 30.609375 48.390625 
Q 23.390625 48.390625 19.1875 42.75 
Q 14.984375 37.109375 14.984375 27.296875 
Q 14.984375 17.484375 19.15625 11.84375 
Q 23.34375 6.203125 30.609375 6.203125 
Q 37.796875 6.203125 41.984375 11.859375 
Q 46.1875 17.53125 46.1875 27.296875 
Q 46.1875 37.015625 41.984375 42.703125 
Q 37.796875 48.390625 30.609375 48.390625 
z
M 30.609375 56 
Q 42.328125 56 49.015625 48.375 
Q 55.71875 40.765625 55.71875 27.296875 
Q 55.71875 13.875 49.015625 6.21875 
Q 42.328125 -1.421875 30.609375 -1.421875 
Q 18.84375 -1.421875 12.171875 6.21875 
Q 5.515625 13.875 5.515625 27.296875 
Q 5.515625 40.765625 12.171875 48.375 
Q 18.84375 56 30.609375 56 
z
" id="DejaVuSans-111"/>
     </defs>
     <g style="fill:#262626;" transform="translate(571.895 77.103984)scale(0.385 -0.385)">
      <use xlink:href="#DejaVuSans-84"/>
      <use x="60.833984" xlink:href="#DejaVuSans-119"/>
      <use x="142.621094" xlink:href="#DejaVuSans-111"/>
      <use x="203.802734" xlink:href="#DejaVuSans-32"/>
      <use x="235.589844" xlink:href="#DejaVuSans-116"/>
      <use x="274.798828" xlink:href="#DejaVuSans-114"/>
      <use x="315.912109" xlink:href="#DejaVuSans-97"/>
      <use x="377.191406" xlink:href="#DejaVuSans-99"/>
      <use x="432.171875" xlink:href="#DejaVuSans-101"/>
      <use x="493.695312" xlink:href="#DejaVuSans-115"/>
     </g>
    </g>
    <g id="line2d_7">
     <path d="M 464.095 120.139766 
L 541.095 120.139766 
" style="fill:none;stroke:#dd8452;stroke-linecap:round;stroke-width:10;"/>
    </g>
    <g id="line2d_8">
     <g>
      <use style="fill:#dd8452;stroke:#dd8452;" x="502.595" xlink:href="#mad3af0ac93" y="120.139766"/>
     </g>
    </g>
    <g id="text_14">
     <!-- One trace -->
     <defs>
      <path d="M 39.40625 66.21875 
Q 28.65625 66.21875 22.328125 58.203125 
Q 16.015625 50.203125 16.015625 36.375 
Q 16.015625 22.609375 22.328125 14.59375 
Q 28.65625 6.59375 39.40625 6.59375 
Q 50.140625 6.59375 56.421875 14.59375 
Q 62.703125 22.609375 62.703125 36.375 
Q 62.703125 50.203125 56.421875 58.203125 
Q 50.140625 66.21875 39.40625 66.21875 
z
M 39.40625 74.21875 
Q 54.734375 74.21875 63.90625 63.9375 
Q 73.09375 53.65625 73.09375 36.375 
Q 73.09375 19.140625 63.90625 8.859375 
Q 54.734375 -1.421875 39.40625 -1.421875 
Q 24.03125 -1.421875 14.8125 8.828125 
Q 5.609375 19.09375 5.609375 36.375 
Q 5.609375 53.65625 14.8125 63.9375 
Q 24.03125 74.21875 39.40625 74.21875 
z
" id="DejaVuSans-79"/>
      <path d="M 54.890625 33.015625 
L 54.890625 0 
L 45.90625 0 
L 45.90625 32.71875 
Q 45.90625 40.484375 42.875 44.328125 
Q 39.84375 48.1875 33.796875 48.1875 
Q 26.515625 48.1875 22.3125 43.546875 
Q 18.109375 38.921875 18.109375 30.90625 
L 18.109375 0 
L 9.078125 0 
L 9.078125 54.6875 
L 18.109375 54.6875 
L 18.109375 46.1875 
Q 21.34375 51.125 25.703125 53.5625 
Q 30.078125 56 35.796875 56 
Q 45.21875 56 50.046875 50.171875 
Q 54.890625 44.34375 54.890625 33.015625 
z
" id="DejaVuSans-110"/>
     </defs>
     <g style="fill:#262626;" transform="translate(571.895 133.614766)scale(0.385 -0.385)">
      <use xlink:href="#DejaVuSans-79"/>
      <use x="78.710938" xlink:href="#DejaVuSans-110"/>
      <use x="142.089844" xlink:href="#DejaVuSans-101"/>
      <use x="203.613281" xlink:href="#DejaVuSans-32"/>
      <use x="235.400391" xlink:href="#DejaVuSans-116"/>
      <use x="274.609375" xlink:href="#DejaVuSans-114"/>
      <use x="315.722656" xlink:href="#DejaVuSans-97"/>
      <use x="377.001953" xlink:href="#DejaVuSans-99"/>
      <use x="431.982422" xlink:href="#DejaVuSans-101"/>
     </g>
    </g>
    <g id="line2d_9">
     <path d="M 464.095 176.650547 
L 541.095 176.650547 
" style="fill:none;stroke:#55a868;stroke-linecap:round;stroke-width:10;"/>
    </g>
    <g id="line2d_10">
     <g>
      <use style="fill:#55a868;stroke:#55a868;" x="502.595" xlink:href="#mff17766f94" y="176.650547"/>
     </g>
    </g>
    <g id="text_15">
     <!-- No traces -->
     <defs>
      <path d="M 9.8125 72.90625 
L 23.09375 72.90625 
L 55.421875 11.921875 
L 55.421875 72.90625 
L 64.984375 72.90625 
L 64.984375 0 
L 51.703125 0 
L 19.390625 60.984375 
L 19.390625 0 
L 9.8125 0 
z
" id="DejaVuSans-78"/>
     </defs>
     <g style="fill:#262626;" transform="translate(571.895 190.125547)scale(0.385 -0.385)">
      <use xlink:href="#DejaVuSans-78"/>
      <use x="74.804688" xlink:href="#DejaVuSans-111"/>
      <use x="135.986328" xlink:href="#DejaVuSans-32"/>
      <use x="167.773438" xlink:href="#DejaVuSans-116"/>
      <use x="206.982422" xlink:href="#DejaVuSans-114"/>
      <use x="248.095703" xlink:href="#DejaVuSans-97"/>
      <use x="309.375" xlink:href="#DejaVuSans-99"/>
      <use x="364.355469" xlink:href="#DejaVuSans-101"/>
      <use x="425.878906" xlink:href="#DejaVuSans-115"/>
     </g>
    </g>
   </g>
  </g>
 </g>
 <defs>
  <clipPath id="pbecae1638c">
   <rect height="434.88" width="669.6" x="147.070781" y="13.2"/>
  </clipPath>
 </defs>
</svg>
