<?xml version="1.0" encoding="utf-8" standalone="no"?>
<!DOCTYPE svg PUBLIC "-//W3C//DTD SVG 1.1//EN"
  "http://www.w3.org/Graphics/SVG/1.1/DTD/svg11.dtd">
<!-- Created with matplotlib (https://matplotlib.org/) -->
<svg height="524.249219pt" version="1.1" viewBox="0 0 787.25625 524.249219" width="787.25625pt" xmlns="http://www.w3.org/2000/svg" xmlns:xlink="http://www.w3.org/1999/xlink">
 <defs>
  <style type="text/css">
*{stroke-linecap:butt;stroke-linejoin:round;}
  </style>
 </defs>
 <g id="figure_1">
  <g id="patch_1">
   <path d="M 0 524.249219 
L 787.25625 524.249219 
L 787.25625 0 
L 0 0 
z
" style="fill:#ffffff;"/>
  </g>
  <g id="axes_1">
   <g id="patch_2">
    <path d="M 67.23125 176.903636 
L 774.05625 176.903636 
L 774.05625 13.2 
L 67.23125 13.2 
z
" style="fill:#ffffff;"/>
   </g>
   <g id="matplotlib.axis_1">
    <g id="xtick_1">
     <g id="text_1">
      <!-- 0.0 -->
      <defs>
       <path d="M 31.78125 66.40625 
Q 24.171875 66.40625 20.328125 58.90625 
Q 16.5 51.421875 16.5 36.375 
Q 16.5 21.390625 20.328125 13.890625 
Q 24.171875 6.390625 31.78125 6.390625 
Q 39.453125 6.390625 43.28125 13.890625 
Q 47.125 21.390625 47.125 36.375 
Q 47.125 51.421875 43.28125 58.90625 
Q 39.453125 66.40625 31.78125 66.40625 
z
M 31.78125 74.21875 
Q 44.046875 74.21875 50.515625 64.515625 
Q 56.984375 54.828125 56.984375 36.375 
Q 56.984375 17.96875 50.515625 8.265625 
Q 44.046875 -1.421875 31.78125 -1.421875 
Q 19.53125 -1.421875 13.0625 8.265625 
Q 6.59375 17.96875 6.59375 36.375 
Q 6.59375 54.828125 13.0625 64.515625 
Q 19.53125 74.21875 31.78125 74.21875 
z
" id="DejaVuSans-48"/>
       <path d="M 10.6875 12.40625 
L 21 12.40625 
L 21 0 
L 10.6875 0 
z
" id="DejaVuSans-46"/>
      </defs>
      <g style="fill:#262626;" transform="translate(77.492862 207.299339)scale(0.275 -0.275)">
       <use xlink:href="#DejaVuSans-48"/>
       <use x="63.623047" xlink:href="#DejaVuSans-46"/>
       <use x="95.410156" xlink:href="#DejaVuSans-48"/>
      </g>
     </g>
    </g>
    <g id="xtick_2">
     <g id="text_2">
      <!-- 0.1 -->
      <defs>
       <path d="M 12.40625 8.296875 
L 28.515625 8.296875 
L 28.515625 63.921875 
L 10.984375 60.40625 
L 10.984375 69.390625 
L 28.421875 72.90625 
L 38.28125 72.90625 
L 38.28125 8.296875 
L 54.390625 8.296875 
L 54.390625 0 
L 12.40625 0 
z
" id="DejaVuSans-49"/>
      </defs>
      <g style="fill:#262626;" transform="translate(206.006499 207.299339)scale(0.275 -0.275)">
       <use xlink:href="#DejaVuSans-48"/>
       <use x="63.623047" xlink:href="#DejaVuSans-46"/>
       <use x="95.410156" xlink:href="#DejaVuSans-49"/>
      </g>
     </g>
    </g>
    <g id="xtick_3">
     <g id="text_3">
      <!-- 0.2 -->
      <defs>
       <path d="M 19.1875 8.296875 
L 53.609375 8.296875 
L 53.609375 0 
L 7.328125 0 
L 7.328125 8.296875 
Q 12.9375 14.109375 22.625 23.890625 
Q 32.328125 33.6875 34.8125 36.53125 
Q 39.546875 41.84375 41.421875 45.53125 
Q 43.3125 49.21875 43.3125 52.78125 
Q 43.3125 58.59375 39.234375 62.25 
Q 35.15625 65.921875 28.609375 65.921875 
Q 23.96875 65.921875 18.8125 64.3125 
Q 13.671875 62.703125 7.8125 59.421875 
L 7.8125 69.390625 
Q 13.765625 71.78125 18.9375 73 
Q 24.125 74.21875 28.421875 74.21875 
Q 39.75 74.21875 46.484375 68.546875 
Q 53.21875 62.890625 53.21875 53.421875 
Q 53.21875 48.921875 51.53125 44.890625 
Q 49.859375 40.875 45.40625 35.40625 
Q 44.1875 33.984375 37.640625 27.21875 
Q 31.109375 20.453125 19.1875 8.296875 
z
" id="DejaVuSans-50"/>
      </defs>
      <g style="fill:#262626;" transform="translate(334.520135 207.299339)scale(0.275 -0.275)">
       <use xlink:href="#DejaVuSans-48"/>
       <use x="63.623047" xlink:href="#DejaVuSans-46"/>
       <use x="95.410156" xlink:href="#DejaVuSans-50"/>
      </g>
     </g>
    </g>
    <g id="xtick_4">
     <g id="text_4">
      <!-- 0.3 -->
      <defs>
       <path d="M 40.578125 39.3125 
Q 47.65625 37.796875 51.625 33 
Q 55.609375 28.21875 55.609375 21.1875 
Q 55.609375 10.40625 48.1875 4.484375 
Q 40.765625 -1.421875 27.09375 -1.421875 
Q 22.515625 -1.421875 17.65625 -0.515625 
Q 12.796875 0.390625 7.625 2.203125 
L 7.625 11.71875 
Q 11.71875 9.328125 16.59375 8.109375 
Q 21.484375 6.890625 26.8125 6.890625 
Q 36.078125 6.890625 40.9375 10.546875 
Q 45.796875 14.203125 45.796875 21.1875 
Q 45.796875 27.640625 41.28125 31.265625 
Q 36.765625 34.90625 28.71875 34.90625 
L 20.21875 34.90625 
L 20.21875 43.015625 
L 29.109375 43.015625 
Q 36.375 43.015625 40.234375 45.921875 
Q 44.09375 48.828125 44.09375 54.296875 
Q 44.09375 59.90625 40.109375 62.90625 
Q 36.140625 65.921875 28.71875 65.921875 
Q 24.65625 65.921875 20.015625 65.03125 
Q 15.375 64.15625 9.8125 62.3125 
L 9.8125 71.09375 
Q 15.4375 72.65625 20.34375 73.4375 
Q 25.25 74.21875 29.59375 74.21875 
Q 40.828125 74.21875 47.359375 69.109375 
Q 53.90625 64.015625 53.90625 55.328125 
Q 53.90625 49.265625 50.4375 45.09375 
Q 46.96875 40.921875 40.578125 39.3125 
z
" id="DejaVuSans-51"/>
      </defs>
      <g style="fill:#262626;" transform="translate(463.033771 207.299339)scale(0.275 -0.275)">
       <use xlink:href="#DejaVuSans-48"/>
       <use x="63.623047" xlink:href="#DejaVuSans-46"/>
       <use x="95.410156" xlink:href="#DejaVuSans-51"/>
      </g>
     </g>
    </g>
    <g id="xtick_5">
     <g id="text_5">
      <!-- 0.4 -->
      <defs>
       <path d="M 37.796875 64.3125 
L 12.890625 25.390625 
L 37.796875 25.390625 
z
M 35.203125 72.90625 
L 47.609375 72.90625 
L 47.609375 25.390625 
L 58.015625 25.390625 
L 58.015625 17.1875 
L 47.609375 17.1875 
L 47.609375 0 
L 37.796875 0 
L 37.796875 17.1875 
L 4.890625 17.1875 
L 4.890625 26.703125 
z
" id="DejaVuSans-52"/>
      </defs>
      <g style="fill:#262626;" transform="translate(591.547408 207.299339)scale(0.275 -0.275)">
       <use xlink:href="#DejaVuSans-48"/>
       <use x="63.623047" xlink:href="#DejaVuSans-46"/>
       <use x="95.410156" xlink:href="#DejaVuSans-52"/>
      </g>
     </g>
    </g>
    <g id="xtick_6">
     <g id="text_6">
      <!-- 0.5 -->
      <defs>
       <path d="M 10.796875 72.90625 
L 49.515625 72.90625 
L 49.515625 64.59375 
L 19.828125 64.59375 
L 19.828125 46.734375 
Q 21.96875 47.46875 24.109375 47.828125 
Q 26.265625 48.1875 28.421875 48.1875 
Q 40.625 48.1875 47.75 41.5 
Q 54.890625 34.8125 54.890625 23.390625 
Q 54.890625 11.625 47.5625 5.09375 
Q 40.234375 -1.421875 26.90625 -1.421875 
Q 22.3125 -1.421875 17.546875 -0.640625 
Q 12.796875 0.140625 7.71875 1.703125 
L 7.71875 11.625 
Q 12.109375 9.234375 16.796875 8.0625 
Q 21.484375 6.890625 26.703125 6.890625 
Q 35.15625 6.890625 40.078125 11.328125 
Q 45.015625 15.765625 45.015625 23.390625 
Q 45.015625 31 40.078125 35.4375 
Q 35.15625 39.890625 26.703125 39.890625 
Q 22.75 39.890625 18.8125 39.015625 
Q 14.890625 38.140625 10.796875 36.28125 
z
" id="DejaVuSans-53"/>
      </defs>
      <g style="fill:#262626;" transform="translate(720.061044 207.299339)scale(0.275 -0.275)">
       <use xlink:href="#DejaVuSans-48"/>
       <use x="63.623047" xlink:href="#DejaVuSans-46"/>
       <use x="95.410156" xlink:href="#DejaVuSans-53"/>
      </g>
     </g>
    </g>
   </g>
   <g id="matplotlib.axis_2">
    <g id="ytick_1">
     <g id="text_7">
      <!-- 0 -->
      <g style="fill:#262626;" transform="translate(40.234375 179.910414)scale(0.275 -0.275)">
       <use xlink:href="#DejaVuSans-48"/>
      </g>
     </g>
    </g>
    <g id="ytick_2">
     <g id="text_8">
      <!-- 1 -->
      <g style="fill:#262626;" transform="translate(40.234375 31.088926)scale(0.275 -0.275)">
       <use xlink:href="#DejaVuSans-49"/>
      </g>
     </g>
    </g>
    <g id="text_9">
     <!-- o -->
     <defs>
      <path d="M 30.609375 48.390625 
Q 23.390625 48.390625 19.1875 42.75 
Q 14.984375 37.109375 14.984375 27.296875 
Q 14.984375 17.484375 19.15625 11.84375 
Q 23.34375 6.203125 30.609375 6.203125 
Q 37.796875 6.203125 41.984375 11.859375 
Q 46.1875 17.53125 46.1875 27.296875 
Q 46.1875 37.015625 41.984375 42.703125 
Q 37.796875 48.390625 30.609375 48.390625 
z
M 30.609375 56 
Q 42.328125 56 49.015625 48.375 
Q 55.71875 40.765625 55.71875 27.296875 
Q 55.71875 13.875 49.015625 6.21875 
Q 42.328125 -1.421875 30.609375 -1.421875 
Q 18.84375 -1.421875 12.171875 6.21875 
Q 5.515625 13.875 5.515625 27.296875 
Q 5.515625 40.765625 12.171875 48.375 
Q 18.84375 56 30.609375 56 
z
" id="DejaVuSans-111"/>
     </defs>
     <g style="fill:#262626;" transform="translate(29.995312 104.229943)rotate(-90)scale(0.3 -0.3)">
      <use xlink:href="#DejaVuSans-111"/>
     </g>
    </g>
   </g>
   <g id="line2d_1">
    <path clip-path="url(#p3613571136)" d="M 99.359659 169.462562 
L 248.435477 169.462562 
L 249.720614 20.641074 
L 376.949114 20.641074 
L 378.23425 169.462562 
L 741.927841 169.462562 
L 741.927841 169.462562 
" style="fill:none;stroke:#dd8452;stroke-linecap:round;stroke-width:10;"/>
   </g>
   <g id="line2d_2">
    <path clip-path="url(#p3613571136)" d="M 99.359659 169.462562 
L 376.949114 169.462562 
L 378.23425 20.641074 
L 505.46275 20.641074 
L 506.747886 169.462562 
L 741.927841 169.462562 
L 741.927841 169.462562 
" style="fill:none;stroke:#55a868;stroke-linecap:round;stroke-width:10;"/>
   </g>
   <g id="line2d_3">
    <path clip-path="url(#p3613571136)" d="M 99.359659 169.462562 
L 100.644795 20.641074 
L 248.435477 20.641074 
L 249.720614 169.462562 
L 741.927841 169.462562 
L 741.927841 169.462562 
" style="fill:none;stroke:#000000;stroke-linecap:round;"/>
   </g>
   <g id="line2d_4">
    <path clip-path="url(#p3613571136)" d="M 99.359659 169.462562 
L 248.435477 169.462562 
L 249.720614 20.641074 
L 376.949114 20.641074 
L 378.23425 169.462562 
L 741.927841 169.462562 
L 741.927841 169.462562 
" style="fill:none;stroke:#000000;stroke-linecap:round;"/>
   </g>
   <g id="line2d_5">
    <path clip-path="url(#p3613571136)" d="M 99.359659 169.462562 
L 376.949114 169.462562 
L 378.23425 20.641074 
L 505.46275 20.641074 
L 506.747886 169.462562 
L 741.927841 169.462562 
L 741.927841 169.462562 
" style="fill:none;stroke:#000000;stroke-linecap:round;"/>
   </g>
   <g id="line2d_6">
    <path clip-path="url(#p3613571136)" d="M 99.359659 169.462562 
L 505.46275 169.462562 
L 506.747886 20.641074 
L 741.927841 20.641074 
L 741.927841 20.641074 
" style="fill:none;stroke:#000000;stroke-linecap:round;"/>
   </g>
   <g id="patch_3">
    <path d="M 67.23125 176.903636 
L 67.23125 13.2 
" style="fill:none;stroke:#cccccc;stroke-linecap:square;stroke-linejoin:miter;stroke-width:1.25;"/>
   </g>
   <g id="patch_4">
    <path d="M 774.05625 176.903636 
L 774.05625 13.2 
" style="fill:none;stroke:#cccccc;stroke-linecap:square;stroke-linejoin:miter;stroke-width:1.25;"/>
   </g>
   <g id="patch_5">
    <path d="M 67.23125 176.903636 
L 774.05625 176.903636 
" style="fill:none;stroke:#cccccc;stroke-linecap:square;stroke-linejoin:miter;stroke-width:1.25;"/>
   </g>
   <g id="patch_6">
    <path d="M 67.23125 13.2 
L 774.05625 13.2 
" style="fill:none;stroke:#cccccc;stroke-linecap:square;stroke-linejoin:miter;stroke-width:1.25;"/>
   </g>
  </g>
  <g id="axes_2">
   <g id="patch_7">
    <path d="M 67.23125 447.9 
L 774.05625 447.9 
L 774.05625 284.196364 
L 67.23125 284.196364 
z
" style="fill:#ffffff;"/>
   </g>
   <g id="matplotlib.axis_3">
    <g id="xtick_7">
     <g id="text_10">
      <!-- 0.0 -->
      <g style="fill:#262626;" transform="translate(77.492862 478.295703)scale(0.275 -0.275)">
       <use xlink:href="#DejaVuSans-48"/>
       <use x="63.623047" xlink:href="#DejaVuSans-46"/>
       <use x="95.410156" xlink:href="#DejaVuSans-48"/>
      </g>
     </g>
    </g>
    <g id="xtick_8">
     <g id="text_11">
      <!-- 0.1 -->
      <g style="fill:#262626;" transform="translate(206.006499 478.295703)scale(0.275 -0.275)">
       <use xlink:href="#DejaVuSans-48"/>
       <use x="63.623047" xlink:href="#DejaVuSans-46"/>
       <use x="95.410156" xlink:href="#DejaVuSans-49"/>
      </g>
     </g>
    </g>
    <g id="xtick_9">
     <g id="text_12">
      <!-- 0.2 -->
      <g style="fill:#262626;" transform="translate(334.520135 478.295703)scale(0.275 -0.275)">
       <use xlink:href="#DejaVuSans-48"/>
       <use x="63.623047" xlink:href="#DejaVuSans-46"/>
       <use x="95.410156" xlink:href="#DejaVuSans-50"/>
      </g>
     </g>
    </g>
    <g id="xtick_10">
     <g id="text_13">
      <!-- 0.3 -->
      <g style="fill:#262626;" transform="translate(463.033771 478.295703)scale(0.275 -0.275)">
       <use xlink:href="#DejaVuSans-48"/>
       <use x="63.623047" xlink:href="#DejaVuSans-46"/>
       <use x="95.410156" xlink:href="#DejaVuSans-51"/>
      </g>
     </g>
    </g>
    <g id="xtick_11">
     <g id="text_14">
      <!-- 0.4 -->
      <g style="fill:#262626;" transform="translate(591.547408 478.295703)scale(0.275 -0.275)">
       <use xlink:href="#DejaVuSans-48"/>
       <use x="63.623047" xlink:href="#DejaVuSans-46"/>
       <use x="95.410156" xlink:href="#DejaVuSans-52"/>
      </g>
     </g>
    </g>
    <g id="xtick_12">
     <g id="text_15">
      <!-- 0.5 -->
      <g style="fill:#262626;" transform="translate(720.061044 478.295703)scale(0.275 -0.275)">
       <use xlink:href="#DejaVuSans-48"/>
       <use x="63.623047" xlink:href="#DejaVuSans-46"/>
       <use x="95.410156" xlink:href="#DejaVuSans-53"/>
      </g>
     </g>
    </g>
    <g id="text_16">
     <!-- Time (s) -->
     <defs>
      <path d="M -0.296875 72.90625 
L 61.375 72.90625 
L 61.375 64.59375 
L 35.5 64.59375 
L 35.5 0 
L 25.59375 0 
L 25.59375 64.59375 
L -0.296875 64.59375 
z
" id="DejaVuSans-84"/>
      <path d="M 9.421875 54.6875 
L 18.40625 54.6875 
L 18.40625 0 
L 9.421875 0 
z
M 9.421875 75.984375 
L 18.40625 75.984375 
L 18.40625 64.59375 
L 9.421875 64.59375 
z
" id="DejaVuSans-105"/>
      <path d="M 52 44.1875 
Q 55.375 50.25 60.0625 53.125 
Q 64.75 56 71.09375 56 
Q 79.640625 56 84.28125 50.015625 
Q 88.921875 44.046875 88.921875 33.015625 
L 88.921875 0 
L 79.890625 0 
L 79.890625 32.71875 
Q 79.890625 40.578125 77.09375 44.375 
Q 74.3125 48.1875 68.609375 48.1875 
Q 61.625 48.1875 57.5625 43.546875 
Q 53.515625 38.921875 53.515625 30.90625 
L 53.515625 0 
L 44.484375 0 
L 44.484375 32.71875 
Q 44.484375 40.625 41.703125 44.40625 
Q 38.921875 48.1875 33.109375 48.1875 
Q 26.21875 48.1875 22.15625 43.53125 
Q 18.109375 38.875 18.109375 30.90625 
L 18.109375 0 
L 9.078125 0 
L 9.078125 54.6875 
L 18.109375 54.6875 
L 18.109375 46.1875 
Q 21.1875 51.21875 25.484375 53.609375 
Q 29.78125 56 35.6875 56 
Q 41.65625 56 45.828125 52.96875 
Q 50 49.953125 52 44.1875 
z
" id="DejaVuSans-109"/>
      <path d="M 56.203125 29.59375 
L 56.203125 25.203125 
L 14.890625 25.203125 
Q 15.484375 15.921875 20.484375 11.0625 
Q 25.484375 6.203125 34.421875 6.203125 
Q 39.59375 6.203125 44.453125 7.46875 
Q 49.3125 8.734375 54.109375 11.28125 
L 54.109375 2.78125 
Q 49.265625 0.734375 44.1875 -0.34375 
Q 39.109375 -1.421875 33.890625 -1.421875 
Q 20.796875 -1.421875 13.15625 6.1875 
Q 5.515625 13.8125 5.515625 26.8125 
Q 5.515625 40.234375 12.765625 48.109375 
Q 20.015625 56 32.328125 56 
Q 43.359375 56 49.78125 48.890625 
Q 56.203125 41.796875 56.203125 29.59375 
z
M 47.21875 32.234375 
Q 47.125 39.59375 43.09375 43.984375 
Q 39.0625 48.390625 32.421875 48.390625 
Q 24.90625 48.390625 20.390625 44.140625 
Q 15.875 39.890625 15.1875 32.171875 
z
" id="DejaVuSans-101"/>
      <path id="DejaVuSans-32"/>
      <path d="M 31 75.875 
Q 24.46875 64.65625 21.28125 53.65625 
Q 18.109375 42.671875 18.109375 31.390625 
Q 18.109375 20.125 21.3125 9.0625 
Q 24.515625 -2 31 -13.1875 
L 23.1875 -13.1875 
Q 15.875 -1.703125 12.234375 9.375 
Q 8.59375 20.453125 8.59375 31.390625 
Q 8.59375 42.28125 12.203125 53.3125 
Q 15.828125 64.359375 23.1875 75.875 
z
" id="DejaVuSans-40"/>
      <path d="M 44.28125 53.078125 
L 44.28125 44.578125 
Q 40.484375 46.53125 36.375 47.5 
Q 32.28125 48.484375 27.875 48.484375 
Q 21.1875 48.484375 17.84375 46.4375 
Q 14.5 44.390625 14.5 40.28125 
Q 14.5 37.15625 16.890625 35.375 
Q 19.28125 33.59375 26.515625 31.984375 
L 29.59375 31.296875 
Q 39.15625 29.25 43.1875 25.515625 
Q 47.21875 21.78125 47.21875 15.09375 
Q 47.21875 7.46875 41.1875 3.015625 
Q 35.15625 -1.421875 24.609375 -1.421875 
Q 20.21875 -1.421875 15.453125 -0.5625 
Q 10.6875 0.296875 5.421875 2 
L 5.421875 11.28125 
Q 10.40625 8.6875 15.234375 7.390625 
Q 20.0625 6.109375 24.8125 6.109375 
Q 31.15625 6.109375 34.5625 8.28125 
Q 37.984375 10.453125 37.984375 14.40625 
Q 37.984375 18.0625 35.515625 20.015625 
Q 33.0625 21.96875 24.703125 23.78125 
L 21.578125 24.515625 
Q 13.234375 26.265625 9.515625 29.90625 
Q 5.8125 33.546875 5.8125 39.890625 
Q 5.8125 47.609375 11.28125 51.796875 
Q 16.75 56 26.8125 56 
Q 31.78125 56 36.171875 55.265625 
Q 40.578125 54.546875 44.28125 53.078125 
z
" id="DejaVuSans-115"/>
      <path d="M 8.015625 75.875 
L 15.828125 75.875 
Q 23.140625 64.359375 26.78125 53.3125 
Q 30.421875 42.28125 30.421875 31.390625 
Q 30.421875 20.453125 26.78125 9.375 
Q 23.140625 -1.703125 15.828125 -13.1875 
L 8.015625 -13.1875 
Q 14.5 -2 17.703125 9.0625 
Q 20.90625 20.125 20.90625 31.390625 
Q 20.90625 42.671875 17.703125 53.65625 
Q 14.5 64.65625 8.015625 75.875 
z
" id="DejaVuSans-41"/>
     </defs>
     <g style="fill:#262626;" transform="translate(359.195312 510.810156)scale(0.3 -0.3)">
      <use xlink:href="#DejaVuSans-84"/>
      <use x="61.037109" xlink:href="#DejaVuSans-105"/>
      <use x="88.820312" xlink:href="#DejaVuSans-109"/>
      <use x="186.232422" xlink:href="#DejaVuSans-101"/>
      <use x="247.755859" xlink:href="#DejaVuSans-32"/>
      <use x="279.542969" xlink:href="#DejaVuSans-40"/>
      <use x="318.556641" xlink:href="#DejaVuSans-115"/>
      <use x="370.65625" xlink:href="#DejaVuSans-41"/>
     </g>
    </g>
   </g>
   <g id="matplotlib.axis_4">
    <g id="ytick_3">
     <g id="text_17">
      <!-- 0 -->
      <g style="fill:#262626;" transform="translate(40.234375 450.906777)scale(0.275 -0.275)">
       <use xlink:href="#DejaVuSans-48"/>
      </g>
     </g>
    </g>
    <g id="ytick_4">
     <g id="text_18">
      <!-- 1 -->
      <g style="fill:#262626;" transform="translate(40.234375 302.08529)scale(0.275 -0.275)">
       <use xlink:href="#DejaVuSans-49"/>
      </g>
     </g>
    </g>
    <g id="text_19">
     <!-- z, w -->
     <defs>
      <path d="M 5.515625 54.6875 
L 48.1875 54.6875 
L 48.1875 46.484375 
L 14.40625 7.171875 
L 48.1875 7.171875 
L 48.1875 0 
L 4.296875 0 
L 4.296875 8.203125 
L 38.09375 47.515625 
L 5.515625 47.515625 
z
" id="DejaVuSans-122"/>
      <path d="M 11.71875 12.40625 
L 22.015625 12.40625 
L 22.015625 4 
L 14.015625 -11.625 
L 7.71875 -11.625 
L 11.71875 4 
z
" id="DejaVuSans-44"/>
      <path d="M 4.203125 54.6875 
L 13.1875 54.6875 
L 24.421875 12.015625 
L 35.59375 54.6875 
L 46.1875 54.6875 
L 57.421875 12.015625 
L 68.609375 54.6875 
L 77.59375 54.6875 
L 63.28125 0 
L 52.6875 0 
L 40.921875 44.828125 
L 29.109375 0 
L 18.5 0 
z
" id="DejaVuSans-119"/>
     </defs>
     <g style="fill:#262626;" transform="translate(29.995312 395.722401)rotate(-90)scale(0.3 -0.3)">
      <use xlink:href="#DejaVuSans-122"/>
      <use x="52.490234" xlink:href="#DejaVuSans-44"/>
      <use x="84.277344" xlink:href="#DejaVuSans-32"/>
      <use x="116.064453" xlink:href="#DejaVuSans-119"/>
     </g>
    </g>
   </g>
   <g id="line2d_7">
    <path clip-path="url(#pff3ace51d0)" d="M 99.359659 440.458926 
L 248.435477 440.458926 
L 252.290886 431.707032 
L 256.146295 423.469819 
L 260.001705 415.71702 
L 263.857114 408.420148 
L 267.712523 401.552391 
L 271.567932 395.088512 
L 275.423341 389.004761 
L 279.27875 383.278784 
L 283.134159 377.889539 
L 286.989568 372.817226 
L 290.844977 368.043205 
L 294.700386 363.549935 
L 298.555795 359.320904 
L 303.696341 354.066512 
L 308.836886 349.220029 
L 313.977432 344.749786 
L 319.117977 340.626577 
L 324.258523 336.82346 
L 329.399068 333.315586 
L 334.539614 330.080034 
L 339.680159 327.095665 
L 344.820705 324.342978 
L 349.96125 321.803986 
L 356.386932 318.905608 
L 362.812614 316.285704 
L 369.238295 313.917519 
L 375.663977 311.776866 
L 376.949114 311.374078 
L 380.804523 318.965299 
L 384.659932 326.110097 
L 388.515341 332.834722 
L 392.37075 339.163887 
L 396.226159 345.120845 
L 400.081568 350.727487 
L 403.936977 356.004414 
L 407.792386 360.971014 
L 411.647795 365.64554 
L 415.503205 370.045165 
L 419.358614 374.186058 
L 424.499159 379.330942 
L 429.639705 384.07642 
L 434.78025 388.453498 
L 439.920795 392.490775 
L 445.061341 396.214631 
L 450.201886 399.649397 
L 455.342432 402.817515 
L 460.482977 405.739687 
L 465.623523 408.435006 
L 470.764068 410.921082 
L 477.18975 413.759054 
L 483.615432 416.324356 
L 490.041114 418.643187 
L 496.466795 420.739225 
L 504.177614 422.990379 
L 511.888432 424.984547 
L 519.59925 426.751065 
L 528.595205 428.558782 
L 537.591159 430.128107 
L 547.87225 431.669847 
L 558.153341 432.981503 
L 569.719568 434.224641 
L 582.570932 435.365061 
L 596.707432 436.380109 
L 612.129068 437.25821 
L 630.120977 438.046732 
L 650.683159 438.712985 
L 675.10075 439.269534 
L 704.658886 439.711575 
L 741.927841 440.042938 
L 741.927841 440.042938 
" style="fill:none;stroke:#dd8452;stroke-linecap:round;stroke-width:7;"/>
   </g>
   <g id="line2d_8">
    <path clip-path="url(#pff3ace51d0)" d="M 99.359659 440.458926 
L 376.949114 440.458926 
L 378.23425 410.694628 
L 379.519386 386.88319 
L 380.804523 367.83404 
L 382.089659 352.594719 
L 383.374795 340.403263 
L 384.659932 330.650098 
L 385.945068 322.847566 
L 387.230205 316.60554 
L 388.515341 311.61192 
L 389.800477 307.617024 
L 391.085614 304.421106 
L 392.37075 301.864373 
L 393.655886 299.818986 
L 394.941023 298.182676 
L 396.226159 296.873629 
L 397.511295 295.82639 
L 398.796432 294.9886 
L 400.081568 294.318368 
L 402.651841 293.353233 
L 405.222114 292.735547 
L 407.792386 292.340228 
L 411.647795 291.997266 
L 416.788341 291.784824 
L 425.784295 291.668347 
L 454.057295 291.637666 
L 505.46275 291.637438 
L 506.747886 321.401736 
L 508.033023 345.213174 
L 509.318159 364.262324 
L 510.603295 379.501644 
L 511.888432 391.693101 
L 513.173568 401.446266 
L 514.458705 409.248798 
L 515.743841 415.490823 
L 517.028977 420.484444 
L 518.314114 424.47934 
L 519.59925 427.675257 
L 520.884386 430.231991 
L 522.169523 432.277378 
L 523.454659 433.913687 
L 524.739795 435.222735 
L 526.024932 436.269973 
L 527.310068 437.107764 
L 528.595205 437.777996 
L 531.165477 438.743131 
L 533.73575 439.360817 
L 536.306023 439.756136 
L 540.161432 440.099097 
L 545.301977 440.31154 
L 554.297932 440.428017 
L 582.570932 440.458698 
L 741.927841 440.458926 
L 741.927841 440.458926 
" style="fill:none;stroke:#55a868;stroke-dasharray:25.9,11.2;stroke-dashoffset:0;stroke-width:7;"/>
   </g>
   <g id="line2d_9">
    <path clip-path="url(#pff3ace51d0)" d="M 99.359659 440.458926 
L 376.949114 440.458926 
L 378.23425 366.366575 
L 382.089659 370.595259 
L 385.945068 374.455041 
L 389.800477 377.998293 
L 393.655886 381.270231 
L 397.511295 384.308988 
L 402.651841 388.051789 
L 407.792386 391.495504 
L 412.932932 394.686162 
L 419.358614 398.372237 
L 425.784295 401.771711 
L 432.209977 404.925442 
L 439.920795 408.430162 
L 447.631614 411.67046 
L 455.342432 414.680818 
L 464.338386 417.939137 
L 473.334341 420.957997 
L 483.615432 424.15188 
L 493.896523 427.105933 
L 505.46275 430.178017 
L 508.033023 430.576258 
L 510.603295 430.736115 
L 514.458705 430.707203 
L 519.59925 430.399214 
L 527.310068 429.690731 
L 544.016841 427.869936 
L 586.426341 422.958472 
L 646.82775 416.016305 
L 689.23725 411.376076 
L 729.076477 407.237646 
L 741.927841 405.949103 
L 741.927841 405.949103 
" style="fill:none;stroke:#8f1402;stroke-linecap:round;stroke-width:10;"/>
   </g>
   <g id="line2d_10">
    <path clip-path="url(#pff3ace51d0)" d="M 67.23125 405.821482 
L 774.05625 405.821482 
" style="fill:none;stroke:#8f1402;stroke-dasharray:5.55,2.4;stroke-dashoffset:0;stroke-width:1.5;"/>
   </g>
   <g id="patch_8">
    <path d="M 67.23125 447.9 
L 67.23125 284.196364 
" style="fill:none;stroke:#cccccc;stroke-linecap:square;stroke-linejoin:miter;stroke-width:1.25;"/>
   </g>
   <g id="patch_9">
    <path d="M 774.05625 447.9 
L 774.05625 284.196364 
" style="fill:none;stroke:#cccccc;stroke-linecap:square;stroke-linejoin:miter;stroke-width:1.25;"/>
   </g>
   <g id="patch_10">
    <path d="M 67.23125 447.9 
L 774.05625 447.9 
" style="fill:none;stroke:#cccccc;stroke-linecap:square;stroke-linejoin:miter;stroke-width:1.25;"/>
   </g>
   <g id="patch_11">
    <path d="M 67.23125 284.196364 
L 774.05625 284.196364 
" style="fill:none;stroke:#cccccc;stroke-linecap:square;stroke-linejoin:miter;stroke-width:1.25;"/>
   </g>
   <g id="legend_1">
    <g id="line2d_11">
     <path d="M 113.5725 269.216727 
L 168.5725 269.216727 
" style="fill:none;stroke:#dd8452;stroke-linecap:round;stroke-width:7;"/>
    </g>
    <g id="line2d_12"/>
    <g id="text_20">
     <!-- $\tau_{z_{pre}}$ -->
     <defs>
      <path d="M 32.859375 9.96875 
Q 34.1875 7.625 39.453125 7.625 
L 43.75 7.625 
L 42.28125 0 
L 36.921875 0 
Q 28.125 0 25 4.6875 
Q 21.921875 9.46875 23.96875 19.828125 
L 29 45.703125 
L 8.453125 45.703125 
L 10.203125 54.6875 
L 60.640625 54.6875 
L 58.890625 45.703125 
L 38.1875 45.703125 
L 33.015625 19.28125 
Q 31.640625 12.203125 32.859375 9.96875 
z
" id="DejaVuSans-Oblique-964"/>
      <path d="M 11.625 54.6875 
L 54.296875 54.6875 
L 52.6875 46.484375 
L 11.53125 7.171875 
L 45.515625 7.171875 
L 44.09375 0 
L -0.296875 0 
L 1.3125 8.203125 
L 42.484375 47.515625 
L 10.203125 47.515625 
z
" id="DejaVuSans-Oblique-122"/>
      <path d="M 49.609375 33.6875 
Q 49.609375 40.875 46.484375 44.671875 
Q 43.359375 48.484375 37.5 48.484375 
Q 33.5 48.484375 29.859375 46.4375 
Q 26.21875 44.390625 23.390625 40.484375 
Q 20.609375 36.625 18.9375 31.15625 
Q 17.28125 25.6875 17.28125 20.3125 
Q 17.28125 13.484375 20.40625 9.796875 
Q 23.53125 6.109375 29.296875 6.109375 
Q 33.546875 6.109375 37.1875 8.109375 
Q 40.828125 10.109375 43.40625 13.921875 
Q 46.1875 17.921875 47.890625 23.34375 
Q 49.609375 28.765625 49.609375 33.6875 
z
M 21.78125 46.390625 
Q 25.390625 51.125 30.296875 53.5625 
Q 35.203125 56 41.21875 56 
Q 49.609375 56 54.25 50.5 
Q 58.890625 45.015625 58.890625 35.109375 
Q 58.890625 27 56 19.65625 
Q 53.125 12.3125 47.703125 6.5 
Q 44.09375 2.640625 39.546875 0.609375 
Q 35.015625 -1.421875 29.984375 -1.421875 
Q 24.171875 -1.421875 20.21875 1 
Q 16.265625 3.421875 14.3125 8.203125 
L 8.6875 -20.796875 
L -0.296875 -20.796875 
L 14.40625 54.6875 
L 23.390625 54.6875 
z
" id="DejaVuSans-Oblique-112"/>
      <path d="M 44.578125 46.390625 
Q 43.21875 47.125 41.453125 47.515625 
Q 39.703125 47.90625 37.703125 47.90625 
Q 30.515625 47.90625 25.140625 42.453125 
Q 19.78125 37.015625 18.015625 27.875 
L 12.5 0 
L 3.515625 0 
L 14.203125 54.6875 
L 23.1875 54.6875 
L 21.484375 46.1875 
Q 25.046875 50.921875 30 53.453125 
Q 34.96875 56 40.578125 56 
Q 42.046875 56 43.453125 55.828125 
Q 44.875 55.671875 46.296875 55.28125 
z
" id="DejaVuSans-Oblique-114"/>
      <path d="M 48.09375 32.234375 
Q 48.25 33.015625 48.3125 33.84375 
Q 48.390625 34.671875 48.390625 35.5 
Q 48.390625 41.453125 44.890625 44.921875 
Q 41.40625 48.390625 35.40625 48.390625 
Q 28.71875 48.390625 23.578125 44.15625 
Q 18.453125 39.9375 15.828125 32.171875 
z
M 55.90625 25.203125 
L 14.109375 25.203125 
Q 13.8125 23.34375 13.71875 22.265625 
Q 13.625 21.1875 13.625 20.40625 
Q 13.625 13.625 17.796875 9.90625 
Q 21.96875 6.203125 29.59375 6.203125 
Q 35.453125 6.203125 40.671875 7.515625 
Q 45.90625 8.84375 50.390625 11.375 
L 48.6875 2.484375 
Q 43.84375 0.53125 38.6875 -0.4375 
Q 33.546875 -1.421875 28.21875 -1.421875 
Q 16.84375 -1.421875 10.71875 4.015625 
Q 4.59375 9.46875 4.59375 19.484375 
Q 4.59375 28.03125 7.640625 35.375 
Q 10.6875 42.71875 16.609375 48.484375 
Q 20.40625 52.09375 25.65625 54.046875 
Q 30.90625 56 36.8125 56 
Q 46.09375 56 51.578125 50.4375 
Q 57.078125 44.875 57.078125 35.5 
Q 57.078125 33.25 56.78125 30.6875 
Q 56.5 28.125 55.90625 25.203125 
z
" id="DejaVuSans-Oblique-101"/>
     </defs>
     <g style="fill:#262626;" transform="translate(190.5725 278.841727)scale(0.275 -0.275)">
      <use transform="translate(0 0.3125)" xlink:href="#DejaVuSans-Oblique-964"/>
      <use transform="translate(60.205078 -16.09375)scale(0.7)" xlink:href="#DejaVuSans-Oblique-122"/>
      <use transform="translate(96.948242 -27.578125)scale(0.49)" xlink:href="#DejaVuSans-Oblique-112"/>
      <use transform="translate(128.051758 -27.578125)scale(0.49)" xlink:href="#DejaVuSans-Oblique-114"/>
      <use transform="translate(148.197266 -27.578125)scale(0.49)" xlink:href="#DejaVuSans-Oblique-101"/>
     </g>
    </g>
    <g id="line2d_13">
     <path d="M 295.8975 269.216727 
L 350.8975 269.216727 
" style="fill:none;stroke:#55a868;stroke-dasharray:25.9,11.2;stroke-dashoffset:0;stroke-width:7;"/>
    </g>
    <g id="line2d_14"/>
    <g id="text_21">
     <!-- $\tau_{z_{post}}$ -->
     <defs>
      <path d="M 25.390625 -1.421875 
Q 15.765625 -1.421875 10.171875 4.515625 
Q 4.59375 10.453125 4.59375 20.703125 
Q 4.59375 26.65625 6.515625 32.828125 
Q 8.453125 39.015625 11.53125 43.21875 
Q 16.359375 49.75 22.3125 52.875 
Q 28.265625 56 35.796875 56 
Q 45.125 56 50.859375 50.1875 
Q 56.59375 44.390625 56.59375 35.015625 
Q 56.59375 28.515625 54.6875 22.0625 
Q 52.78125 15.625 49.703125 11.375 
Q 44.921875 4.828125 38.96875 1.703125 
Q 33.015625 -1.421875 25.390625 -1.421875 
z
M 13.921875 21 
Q 13.921875 13.578125 17.015625 9.890625 
Q 20.125 6.203125 26.421875 6.203125 
Q 35.453125 6.203125 41.375 14.078125 
Q 47.3125 21.96875 47.3125 34.078125 
Q 47.3125 41.15625 44.140625 44.765625 
Q 40.96875 48.390625 34.8125 48.390625 
Q 29.734375 48.390625 25.78125 46.015625 
Q 21.828125 43.65625 18.703125 38.8125 
Q 16.40625 35.203125 15.15625 30.5625 
Q 13.921875 25.921875 13.921875 21 
z
" id="DejaVuSans-Oblique-111"/>
      <path d="M 50 53.078125 
L 48.296875 44.578125 
Q 44.734375 46.53125 40.765625 47.5 
Q 36.8125 48.484375 32.625 48.484375 
Q 25.53125 48.484375 21.453125 46.0625 
Q 17.390625 43.65625 17.390625 39.5 
Q 17.390625 34.671875 26.859375 32.078125 
Q 27.59375 31.890625 27.9375 31.78125 
L 30.8125 30.90625 
Q 39.796875 28.421875 42.796875 25.6875 
Q 45.796875 22.953125 45.796875 18.21875 
Q 45.796875 9.515625 38.890625 4.046875 
Q 31.984375 -1.421875 20.796875 -1.421875 
Q 16.453125 -1.421875 11.671875 -0.578125 
Q 6.890625 0.25 1.125 2 
L 2.875 11.28125 
Q 7.8125 8.734375 12.59375 7.421875 
Q 17.390625 6.109375 21.78125 6.109375 
Q 28.375 6.109375 32.5 8.9375 
Q 36.625 11.765625 36.625 16.109375 
Q 36.625 20.796875 25.78125 23.6875 
L 24.859375 23.921875 
L 21.78125 24.703125 
Q 14.9375 26.515625 11.765625 29.46875 
Q 8.59375 32.421875 8.59375 37.015625 
Q 8.59375 45.75 15.15625 50.875 
Q 21.734375 56 33.015625 56 
Q 37.453125 56 41.671875 55.265625 
Q 45.90625 54.546875 50 53.078125 
z
" id="DejaVuSans-Oblique-115"/>
      <path d="M 42.28125 54.6875 
L 40.921875 47.703125 
L 23 47.703125 
L 17.1875 18.015625 
Q 16.890625 16.359375 16.75 15.234375 
Q 16.609375 14.109375 16.609375 13.484375 
Q 16.609375 10.359375 18.484375 8.9375 
Q 20.359375 7.515625 24.515625 7.515625 
L 33.59375 7.515625 
L 32.078125 0 
L 23.484375 0 
Q 15.484375 0 11.546875 3.125 
Q 7.625 6.25 7.625 12.59375 
Q 7.625 13.71875 7.765625 15.0625 
Q 7.90625 16.40625 8.203125 18.015625 
L 14.015625 47.703125 
L 6.390625 47.703125 
L 7.8125 54.6875 
L 15.28125 54.6875 
L 18.3125 70.21875 
L 27.296875 70.21875 
L 24.3125 54.6875 
z
" id="DejaVuSans-Oblique-116"/>
     </defs>
     <g style="fill:#262626;" transform="translate(372.8975 278.841727)scale(0.275 -0.275)">
      <use transform="translate(0 0.3125)" xlink:href="#DejaVuSans-Oblique-964"/>
      <use transform="translate(60.205078 -16.09375)scale(0.7)" xlink:href="#DejaVuSans-Oblique-122"/>
      <use transform="translate(96.948242 -27.578125)scale(0.49)" xlink:href="#DejaVuSans-Oblique-112"/>
      <use transform="translate(128.051758 -27.578125)scale(0.49)" xlink:href="#DejaVuSans-Oblique-111"/>
      <use transform="translate(158.030762 -27.578125)scale(0.49)" xlink:href="#DejaVuSans-Oblique-115"/>
      <use transform="translate(183.55957 -27.578125)scale(0.49)" xlink:href="#DejaVuSans-Oblique-116"/>
     </g>
    </g>
    <g id="line2d_15">
     <path d="M 485.0975 269.216727 
L 540.0975 269.216727 
" style="fill:none;stroke:#8f1402;stroke-linecap:round;stroke-width:10;"/>
    </g>
    <g id="line2d_16"/>
    <g id="text_22">
     <!-- $w_{12}$ -->
     <defs>
      <path d="M 8.5 54.6875 
L 17.390625 54.6875 
L 19.671875 10.6875 
L 40.09375 54.6875 
L 50.484375 54.6875 
L 53.515625 10.6875 
L 72.90625 54.6875 
L 81.890625 54.6875 
L 56.890625 0 
L 46.390625 0 
L 43.703125 45.3125 
L 22.796875 0 
L 12.203125 0 
z
" id="DejaVuSans-Oblique-119"/>
     </defs>
     <g style="fill:#262626;" transform="translate(562.0975 278.841727)scale(0.275 -0.275)">
      <use transform="translate(0 0.3125)" xlink:href="#DejaVuSans-Oblique-119"/>
      <use transform="translate(81.787109 -16.09375)scale(0.7)" xlink:href="#DejaVuSans-49"/>
      <use transform="translate(126.323242 -16.09375)scale(0.7)" xlink:href="#DejaVuSans-50"/>
     </g>
    </g>
   </g>
  </g>
 </g>
 <defs>
  <clipPath id="p3613571136">
   <rect height="163.703636" width="706.825" x="67.23125" y="13.2"/>
  </clipPath>
  <clipPath id="pff3ace51d0">
   <rect height="163.703636" width="706.825" x="67.23125" y="284.196364"/>
  </clipPath>
 </defs>
</svg>
